<svg width="15" height="9" viewBox="0 0 15 9" fill="none" xmlns="http://www.w3.org/2000/svg">
<path fill-rule="evenodd" clip-rule="evenodd" d="M1.86184 8.65092L7.49976 2.12831L13.1377 8.65092C13.2117 8.73658 13.3069 8.81015 13.4178 8.86743C13.5287 8.92471 13.6532 8.96459 13.784 8.98478C13.9149 9.00497 14.0497 9.00507 14.1806 8.9851C14.3115 8.96512 14.4361 8.92544 14.5472 8.86834C14.6582 8.81124 14.7536 8.73782 14.8279 8.65228C14.9021 8.56675 14.9538 8.47076 14.98 8.36982C15.0062 8.26887 15.0063 8.16494 14.9804 8.06395C14.9545 7.96296 14.9031 7.86689 14.8291 7.78124L8.43791 0.387203C8.33493 0.268094 8.19543 0.170432 8.03177 0.102887C7.86811 0.0353409 7.68537 0 7.49976 0C7.31414 0 7.1314 0.0353409 6.96774 0.102887C6.80409 0.170432 6.66458 0.268094 6.56161 0.387203L0.170459 7.78124C0.0964212 7.86689 0.0449828 7.96296 0.0190801 8.06395C-0.00682265 8.16494 -0.00668341 8.26887 0.019493 8.36982C0.0456695 8.47076 0.0973691 8.56675 0.171639 8.65228C0.245911 8.73782 0.341298 8.81124 0.452355 8.86834C0.563413 8.92544 0.687965 8.96512 0.818903 8.9851C0.949839 9.00507 1.0846 9.00497 1.21548 8.98478C1.34636 8.96459 1.47081 8.92471 1.58171 8.86743C1.69261 8.81015 1.7878 8.73658 1.86184 8.65092Z" fill="#0046B5"/>
</svg>
