<svg width="75" height="74" viewBox="0 0 75 74" fill="none" xmlns="http://www.w3.org/2000/svg">
<g opacity="0.9">
<mask id="mask0_154_4811" style="mask-type:alpha" maskUnits="userSpaceOnUse" x="0" y="0" width="75" height="74">
<circle cx="37.3532" cy="37" r="37" fill="#D9D9D9"/>
</mask>
<g mask="url(#mask0_154_4811)">
<path d="M37.4874 3.08325C18.7091 3.08325 3.43655 18.3612 3.43655 37.1396C3.43655 55.9179 18.7091 71.1941 37.4874 71.1941C56.2658 71.1941 71.5438 55.9179 71.5438 37.1468C71.5438 18.3756 56.2658 3.08325 37.4874 3.08325ZM37.4874 70.2452C19.2367 70.2452 4.38725 55.3957 4.38725 37.145C4.38725 18.8942 19.2367 4.04477 37.4874 4.04477C55.7382 4.04477 70.5913 18.8888 70.5913 37.1468C70.5913 55.4047 55.7418 70.2398 37.4874 70.2398V70.2452Z" fill="black"/>
<path d="M37.4874 3.08325C18.7091 3.08325 3.43655 18.3612 3.43655 37.1396C3.43655 55.9179 18.7091 71.1941 37.4874 71.1941C56.2658 71.1941 71.5438 55.9179 71.5438 37.1468C71.5438 18.3756 56.2658 3.08325 37.4874 3.08325ZM37.4874 70.2452C19.2367 70.2452 4.38725 55.3957 4.38725 37.145C4.38725 18.8942 19.2367 4.04477 37.4874 4.04477C55.7382 4.04477 70.5913 18.8888 70.5913 37.1468C70.5913 55.4047 55.7418 70.2398 37.4874 70.2398V70.2452Z" fill="black"/>
<path d="M37.4874 4.03931C19.2366 4.03931 4.38718 18.8887 4.38718 37.1395C4.38718 55.3903 19.2366 70.2397 37.4874 70.2397C55.7381 70.2397 70.5912 55.3903 70.5912 37.1467C70.5912 18.9032 55.7417 4.03931 37.4874 4.03931ZM37.4874 56.0889C33.7389 56.0882 30.0749 54.9759 26.9587 52.8927C23.8425 50.8094 21.414 47.8489 19.9805 44.3854C18.5469 40.922 18.1727 37.1112 18.9051 33.435C19.6374 29.7588 21.4435 26.3824 24.0949 23.7327C26.7463 21.0831 30.124 19.2792 33.8006 18.5493C37.4773 17.8194 41.2878 18.1962 44.7503 19.632C48.2128 21.0679 51.1718 23.4983 53.2529 26.6159C55.3341 29.7335 56.4439 33.3983 56.4422 37.1467C56.4345 42.1703 54.4347 46.9858 50.8813 50.5369C47.3278 54.0879 42.511 56.0846 37.4874 56.0889Z" fill="black"/>
<path d="M37.4874 3.08325C18.7091 3.08325 3.43655 18.3612 3.43655 37.1396C3.43655 55.9179 18.7091 71.1941 37.4874 71.1941C56.2658 71.1941 71.5438 55.9179 71.5438 37.1468C71.5438 18.3756 56.2658 3.08325 37.4874 3.08325ZM37.4874 70.2452C19.2367 70.2452 4.38725 55.3957 4.38725 37.145C4.38725 18.8942 19.2367 4.04477 37.4874 4.04477C55.7382 4.04477 70.5913 18.8888 70.5913 37.1468C70.5913 55.4047 55.7418 70.2398 37.4874 70.2398V70.2452Z" fill="black"/>
<path d="M37.4874 18.1885C33.7396 18.1892 30.0763 19.3011 26.9604 21.3836C23.8445 23.4661 21.416 26.4257 19.982 29.8882C18.548 33.3507 18.1728 37.1607 18.9039 40.8364C19.6349 44.5121 21.4394 47.8886 24.0892 50.5389C26.739 53.1892 30.1151 54.9943 33.7907 55.7261C37.4663 56.4578 41.2763 56.0834 44.7391 54.65C48.2019 53.2166 51.162 50.7887 53.2451 47.6732C55.3282 44.5578 56.4407 40.8946 56.4422 37.1469C56.4388 32.1204 54.4409 27.3008 50.887 23.7462C47.3331 20.1917 42.5138 18.1928 37.4874 18.1885ZM37.4874 55.1005C33.9357 55.1002 30.4639 54.0466 27.511 52.073C24.5581 50.0995 22.2567 47.2946 20.898 44.0131C19.5392 40.7316 19.1841 37.1209 19.8774 33.6375C20.5708 30.1542 22.2816 26.9547 24.7934 24.4436C27.3052 21.9326 30.5052 20.2228 33.9888 19.5305C37.4723 18.8381 41.0829 19.1944 44.364 20.5541C47.6451 21.9139 50.4493 24.2161 52.422 27.1695C54.3946 30.123 55.4471 33.5952 55.4464 37.1469C55.4393 41.9067 53.5446 46.4694 50.1778 49.8341C46.8111 53.1988 42.2472 55.0908 37.4874 55.0951V55.1005Z" fill="black"/>
<path d="M55.4466 37.1467C55.4466 40.6982 54.3935 44.17 52.4204 47.123C50.4473 50.0761 47.6429 52.3777 44.3617 53.7369C41.0806 55.0961 37.47 55.4518 33.9867 54.7591C30.5034 54.0663 27.3037 52.3562 24.7923 49.845C22.2809 47.3339 20.5704 44.1344 19.8773 40.6511C19.1843 37.1679 19.5396 33.5573 20.8985 30.276C22.2573 26.9947 24.5587 24.1901 27.5115 22.2167C30.4643 20.2433 33.936 19.1898 37.4875 19.1895C42.2488 19.1942 46.8137 21.0876 50.1806 24.4542C53.5475 27.8207 55.4414 32.3854 55.4466 37.1467Z" fill="white"/>
<path d="M37.4874 55.1977C33.9157 55.197 30.4244 54.1371 27.4551 52.1521C24.4858 50.1671 22.1718 47.3462 20.8058 44.046C19.4398 40.7458 19.0831 37.1147 19.7809 33.6118C20.4787 30.1089 22.1995 26.8916 24.7258 24.3668C27.2522 21.842 30.4705 20.1231 33.9738 19.4274C37.4771 18.7317 41.108 19.0906 44.4074 20.4586C47.7067 21.8265 50.5263 24.1422 52.5095 27.1127C54.4928 30.0832 55.5505 33.5751 55.5491 37.1468C55.542 41.9339 53.6364 46.5227 50.2504 49.9067C46.8645 53.2906 42.2745 55.1935 37.4874 55.1977ZM37.4874 19.285C33.9566 19.2857 30.5052 20.3333 27.5697 22.2953C24.6341 24.2573 22.3462 27.0457 20.9952 30.3078C19.6441 33.57 19.2906 37.1594 19.9794 40.6225C20.6681 44.0855 22.3682 47.2666 24.8646 49.7635C27.3611 52.2604 30.5418 53.9611 34.0047 54.6506C37.4676 55.34 41.0571 54.9873 44.3195 53.6369C47.582 52.2865 50.3707 49.9992 52.3333 47.064C54.2959 44.1289 55.3443 40.6777 55.3457 37.1468C55.3423 32.4112 53.4599 27.8705 50.1116 24.5216C46.7634 21.1727 42.223 19.2893 37.4874 19.285Z" fill="white"/>
<path d="M12.6033 41.1477L13.419 43.6577H16.0568L13.9231 45.208L14.7388 47.718L12.6033 46.1659L10.4696 47.718L11.2853 45.208L9.14978 43.6577H11.7894L12.6033 41.1477Z" fill="white"/>
<path d="M11.5698 30.3188L12.3836 32.8289H15.0233L12.8878 34.3792L13.7034 36.8892L11.5698 35.3371L9.43426 36.8892L10.2499 34.3792L8.11624 32.8289H10.7541L11.5698 30.3188Z" fill="white"/>
<path d="M62.8919 41.1477L62.0762 43.6577H59.4384L61.5721 45.208L60.7582 47.718L62.8919 46.1659L65.0256 47.718L64.2117 45.208L66.3454 43.6577H63.7076L62.8919 41.1477Z" fill="white"/>
<path d="M63.9272 30.3188L63.1115 32.8289H60.4737L62.6074 34.3792L61.7917 36.8892L63.9272 35.3371L66.0609 36.8892L65.2453 34.3792L67.3807 32.8289H64.7411L63.9272 30.3188Z" fill="white"/>
<path d="M20.6556 21.8615C20.5057 22.49 20.2281 23.0808 19.8399 23.5973C18.5128 25.4879 16.516 25.8066 14.701 24.5318C12.742 23.158 12.5187 20.9576 13.8007 19.13C14.3049 18.4098 14.8054 18.0083 15.0773 17.8696L15.7796 18.7159C15.3635 18.9711 15.0059 19.3109 14.7298 19.7134C13.8782 20.9288 14.0222 22.3351 15.4501 23.3416C16.7645 24.2635 18.1329 24.0817 19.0512 22.7726C19.3403 22.3693 19.5499 21.9147 19.6688 21.433L20.6556 21.8615Z" fill="white"/>
<path d="M17.5369 15.1939L20.227 18.4782C21.1273 19.5783 22.006 19.717 22.7028 19.1462C23.4447 18.5394 23.4735 17.6661 22.5678 16.5605L19.8777 13.2763L20.9076 12.4336L23.5473 15.6512C24.9679 17.387 24.7068 18.8923 23.3474 20.0033C22.0474 21.0692 20.6033 21.0332 19.1521 19.2614L16.5106 16.0366L17.5369 15.1939Z" fill="white"/>
<path d="M25.6901 16.3772C26.307 16.4249 26.9261 16.3172 27.4906 16.0639C28.2613 15.7038 28.526 15.1492 28.2775 14.609C28.0488 14.1085 27.5771 13.968 26.6012 14.0491C25.3299 14.1643 24.3613 13.8978 23.9255 12.9507C23.4286 11.8704 23.9597 10.6334 25.3948 9.97434C25.9342 9.70718 26.5286 9.56968 27.1305 9.57281L27.2908 10.6802C26.7852 10.659 26.2819 10.7597 25.8233 10.9737C25.0562 11.3338 24.923 11.883 25.1031 12.2737C25.3353 12.7815 25.8233 12.8427 26.8658 12.7743C28.2181 12.686 29.0265 13.0083 29.4713 13.959C29.9611 15.0232 29.5848 16.316 27.876 17.0993C27.1756 17.4216 26.3581 17.5566 25.8953 17.5008L25.6901 16.3772Z" fill="white"/>
<path d="M31.0917 9.35473L29.0553 9.77786L28.832 8.68131L34.2338 7.57935L34.457 8.6741L32.4007 9.09544L33.6342 15.1346L32.3305 15.4011L31.0917 9.35473Z" fill="white"/>
<path d="M42.2535 11.312C42.1257 13.7464 40.5754 15.0608 38.5731 14.9564C36.5186 14.8483 35.2996 13.2098 35.4131 11.0797C35.5301 8.84876 37.0228 7.34347 39.0755 7.4515C41.193 7.56314 42.3633 9.23769 42.2535 11.312ZM36.8157 11.1319C36.7383 12.6156 37.4261 13.8328 38.6955 13.8994C39.965 13.966 40.7681 12.8191 40.8473 11.2904C40.9211 9.91831 40.3071 8.58948 38.9819 8.51745C37.6566 8.44543 36.895 9.63382 36.8157 11.1283V11.1319Z" fill="white"/>
<path d="M49.1607 14.5513C49.4668 13.66 49.8414 12.5923 50.2123 11.6703L50.1853 11.6595C49.6307 12.3996 48.9843 13.2008 48.3523 13.9409L46.1916 16.4725L45.2408 16.0944L45.4929 12.8533C45.5739 11.8792 45.6982 10.8727 45.853 9.94179L45.8296 9.93278C45.4479 10.8079 44.978 11.872 44.5602 12.7723L43.3268 15.43L42.1744 14.9726L45.3345 8.38428L46.955 9.03069L46.7551 12.0917C46.6795 12.992 46.5751 13.8761 46.4382 14.6953L46.4689 14.7079C46.9442 14.0399 47.506 13.3071 48.0894 12.6157L50.1078 10.2749L51.7103 10.9123L49.4056 17.8338L48.201 17.353L49.1607 14.5513Z" fill="white"/>
<path d="M54.982 18.3702L52.8303 16.6668L51.5051 18.3413L53.9106 20.2464L53.2318 21.1034L49.7819 18.3738L54.3014 12.6587L57.6235 15.2893L56.9446 16.1482L54.6651 14.3476L53.5037 15.8169L55.6644 17.5185L54.982 18.3702Z" fill="white"/>
<path d="M59.2961 17.1008C59.7931 17.5582 60.2502 18.0569 60.6627 18.5917C61.3073 19.4128 61.608 20.0826 61.5864 20.7218C61.5723 20.9968 61.4963 21.2652 61.3641 21.5068C61.2319 21.7484 61.047 21.957 60.823 22.1173C60.5037 22.3651 60.1144 22.5062 59.7104 22.5204C59.3064 22.5346 58.9082 22.4213 58.5722 22.1965L58.5488 22.2163C58.7163 22.7565 58.511 23.2967 58.0663 23.8854C57.4919 24.6291 56.9553 25.3007 56.8221 25.5888L55.9794 24.5084C56.0766 24.2906 56.4421 23.7882 57.0309 23.068C57.6485 22.3189 57.6774 21.8562 57.2254 21.2512L56.8131 20.7236L54.4561 22.562L53.6422 21.5231L59.2961 17.1008ZM57.5783 20.1222L58.0645 20.7416C58.6208 21.451 59.3375 21.5951 59.9065 21.1504C60.5313 20.6606 60.4791 19.9908 59.9515 19.312C59.7864 19.0891 59.5975 18.885 59.3879 18.7034L57.5783 20.1222Z" fill="white"/>
<path d="M15.9254 55.3866C16.0886 55.9811 16.3982 56.5252 16.8257 56.9694C17.4181 57.5744 18.0357 57.6356 18.4606 57.2196C18.855 56.8343 18.8208 56.3446 18.4228 55.4515C17.8827 54.2937 17.8088 53.2908 18.5543 52.5705C19.4077 51.7369 20.7456 51.8215 21.8512 52.9504C22.2848 53.3677 22.6147 53.8808 22.8144 54.4485L21.8259 54.9725C21.6752 54.4897 21.4109 54.0501 21.0553 53.6905C20.4647 53.0873 19.8939 53.1503 19.5878 53.4456C19.1881 53.8363 19.2943 54.3207 19.7102 55.275C20.2504 56.5156 20.2216 57.3943 19.4743 58.1271C18.6371 58.9464 17.2938 59.0274 15.9794 57.6842C15.4392 57.1332 15.0377 56.4094 14.9333 55.9538L15.9254 55.3866Z" fill="white"/>
<path d="M24.7284 55.5415L22.5569 59.1895C21.8366 60.4121 21.9969 61.2835 22.7711 61.7445C23.594 62.236 24.4259 61.966 25.1569 60.738L27.3284 57.09L28.4718 57.7706L26.3435 61.3448C25.1965 63.2714 23.6948 63.5397 22.1841 62.6394C20.7437 61.7805 20.2809 60.4102 21.4531 58.4422L23.585 54.8608L24.7284 55.5415Z" fill="white"/>
<path d="M29.2606 58.1218C29.9381 58.2004 30.6078 58.3353 31.2629 58.5252C32.1974 58.788 32.8258 59.1752 33.1661 59.6757C33.3358 59.9292 33.4467 60.2175 33.4907 60.5194C33.5346 60.8213 33.5105 61.1292 33.42 61.4205C33.3526 61.7162 33.2253 61.995 33.046 62.2397C32.8667 62.4843 32.6392 62.6897 32.3774 62.843C31.7202 63.2031 30.8595 63.2319 29.9503 62.978C29.7386 62.9243 29.5329 62.8495 29.3362 62.7547L28.5962 65.4016L27.325 65.0415L29.2606 58.1218ZM29.6207 61.7464C29.8142 61.8498 30.0198 61.9285 30.2329 61.9805C31.1908 62.2488 31.9093 61.9355 32.1379 61.1126C32.354 60.3402 31.9291 59.773 31.0414 59.5245C30.7943 59.4506 30.5403 59.4018 30.2833 59.3786L29.6207 61.7464Z" fill="white"/>
<path d="M34.5561 59.483C35.2325 59.3966 35.9149 59.3677 36.5962 59.3965C37.5667 59.4272 38.2689 59.654 38.7209 60.061C38.9458 60.2667 39.1218 60.5202 39.2361 60.8027C39.3505 61.0853 39.4002 61.3898 39.3817 61.6941C39.3869 61.9972 39.33 62.2981 39.2145 62.5784C39.099 62.8586 38.9273 63.1122 38.7101 63.3236C38.1573 63.8368 37.3272 64.0637 36.3837 64.0349C36.1658 64.0319 35.9487 64.0078 35.7355 63.9628L35.6473 66.7105L34.3292 66.6673L34.5561 59.483ZM35.7679 62.9167C35.9802 62.9716 36.1987 62.9989 36.4179 62.9977C37.4118 63.0301 38.0385 62.5548 38.0601 61.7013C38.0853 60.8982 37.5379 60.4499 36.6196 60.4211C36.3615 60.4082 36.1028 60.4208 35.8472 60.4589L35.7679 62.9167Z" fill="white"/>
<path d="M47.0395 61.4729C47.6229 63.8406 46.521 65.5476 44.5727 66.0284C42.5759 66.5199 40.9355 65.3081 40.4314 63.2357C39.8912 61.0641 40.8905 59.1933 42.8838 58.7018C44.9418 58.194 46.5408 59.4526 47.0395 61.4729ZM41.7836 62.8737C42.1437 64.3142 43.1485 65.2829 44.3837 64.9786C45.6189 64.6743 46.051 63.3365 45.6873 61.8582C45.3578 60.5222 44.3873 59.4256 43.0981 59.7443C41.8088 60.063 41.4253 61.4207 41.7836 62.8737Z" fill="white"/>
<path d="M46.584 57.7907C47.1094 57.3663 47.6696 56.9868 48.2586 56.6563C49.1589 56.1395 49.8791 55.9361 50.5003 56.0531C50.7689 56.1082 51.0217 56.2232 51.2399 56.3893C51.4581 56.5554 51.6361 56.7685 51.7607 57.0128C51.9588 57.3646 52.0414 57.7697 51.9969 58.171C51.9523 58.5723 51.7828 58.9494 51.5122 59.2491L51.5266 59.2743C52.0848 59.1879 52.607 59.4706 53.1075 59.9946C53.7594 60.6716 54.3464 61.2982 54.6129 61.4711L53.4262 62.1481C53.2228 62.022 52.7745 61.5863 52.1479 60.9003C51.4978 60.18 51.0441 60.0828 50.3797 60.4411L49.7981 60.7742L51.28 63.3725L50.133 64.0261L46.584 57.7907ZM49.3227 59.928L50.0069 59.539C50.7902 59.0907 51.0369 58.4029 50.6785 57.7745C50.286 57.0866 49.6162 57.0398 48.878 57.463C48.6327 57.5923 48.4031 57.7493 48.1937 57.9311L49.3227 59.928Z" fill="white"/>
<path d="M53.1202 54.6505L51.6077 56.0784L50.8407 55.2663L54.8452 51.4851L55.6122 52.299L54.0871 53.7394L58.3185 58.2211L57.3516 59.134L53.1202 54.6505Z" fill="white"/>
<path d="M25.6432 40.3105V39.1275L26.6911 38.2956C28.2792 37.0352 29.0319 36.3294 29.0463 35.6596C29.0463 35.141 28.7006 34.7737 27.9335 34.7737C27.2853 34.7737 26.7019 35.1086 26.2806 35.4219L25.6648 33.9958C26.4517 33.4426 27.393 33.1516 28.3549 33.164C29.9646 33.164 31.0881 33.9742 31.0881 35.5047C31.0881 36.5635 30.2887 37.4494 29.446 38.076L28.6573 38.6593V38.681H31.2286V40.3231L25.6432 40.3105Z" fill="black"/>
<path d="M35.6582 40.3105V38.7332H32.4063V37.4368L34.9019 33.2954H37.6136V37.2567H38.4239V38.7368H37.6136V40.3141L35.6582 40.3105ZM35.6582 37.2495V36.0395C35.6582 35.5534 35.6798 35.0672 35.7014 34.527H35.6582C35.3989 35.0564 35.1828 35.5533 34.9019 36.0827L34.3185 37.2279L34.3077 37.2495H35.6582Z" fill="black"/>
<path d="M39.4393 40.7481L41.2399 32.9048H42.5471L40.7465 40.7481H39.4393Z" fill="black"/>
<path d="M49.022 33.2881V34.5305L45.9863 40.3104H43.7607L46.8217 34.9518V34.9302H43.4294V33.2881H49.022Z" fill="black"/>
<circle cx="37.3532" cy="37" r="36.5" stroke="black" stroke-dasharray="1.6 1.6"/>
</g>
</g>
</svg>
