<svg width="77" height="76" viewBox="0 0 77 76" fill="none" xmlns="http://www.w3.org/2000/svg">
<mask id="mask0_154_4781" style="mask-type:alpha" maskUnits="userSpaceOnUse" x="0" y="0" width="77" height="76">
<circle cx="38.3532" cy="38" r="38" fill="#D9D9D9"/>
</mask>
<g mask="url(#mask0_154_4781)">
<path d="M62.8532 63C76.3842 49.469 76.3842 27.531 62.8532 14C49.3222 0.469019 27.3842 0.469021 13.8532 14C0.322236 27.531 0.322233 49.469 13.8532 63C27.3842 76.531 49.3222 76.531 62.8532 63Z" fill="#231F20"/>
<path d="M39.7072 75.9999C39.6374 76.0012 39.568 75.9888 39.503 75.9633C39.438 75.9378 39.3786 75.8997 39.3283 75.8512C39.2267 75.7534 39.1682 75.6192 39.1655 75.4781C39.1628 75.337 39.2162 75.2006 39.314 75.099C39.4118 74.9973 39.546 74.9387 39.687 74.936L40.2186 74.9126C40.3596 74.9056 40.4976 74.9549 40.6022 75.0496C40.7069 75.1444 40.7697 75.2769 40.7767 75.418C40.7838 75.5591 40.7345 75.6972 40.6398 75.8019C40.5451 75.9066 40.4127 75.9695 40.2717 75.9765C40.091 75.985 39.9102 75.9935 39.7295 75.9999H39.7072ZM36.4974 75.9786H36.4709C36.2901 75.9691 36.1094 75.9595 35.9297 75.9478C35.7887 75.9389 35.657 75.8743 35.5636 75.7683C35.4702 75.6622 35.4227 75.5234 35.4316 75.3823C35.4405 75.2413 35.505 75.1095 35.611 75.016C35.7169 74.9225 35.8557 74.875 35.9967 74.8839C36.1721 74.8945 36.3475 74.9052 36.5282 74.9137C36.6692 74.9172 36.8031 74.9767 36.9003 75.0789C36.9975 75.1812 37.0501 75.3179 37.0465 75.4589C37.043 75.6 36.9836 75.7339 36.8815 75.8312C36.7793 75.9284 36.6427 75.9811 36.5017 75.9776L36.4974 75.9786ZM43.4358 75.6776C43.2948 75.687 43.1558 75.64 43.0494 75.547C42.943 75.4539 42.878 75.3223 42.8685 75.1813C42.8591 75.0402 42.906 74.9011 42.9991 74.7947C43.0921 74.6882 43.2235 74.6231 43.3645 74.6137C43.5389 74.5892 43.7132 74.5637 43.8865 74.5371C44.026 74.5158 44.1682 74.5508 44.2818 74.6344C44.3955 74.718 44.4713 74.8433 44.4926 74.9829C44.5138 75.1224 44.4789 75.2647 44.3953 75.3784C44.3118 75.4921 44.1865 75.568 44.0471 75.5893C43.8674 75.6169 43.6888 75.6424 43.5091 75.6669C43.4849 75.6721 43.4604 75.6756 43.4358 75.6776ZM32.7731 75.6063C32.746 75.6062 32.719 75.6041 32.6923 75.5999C32.5137 75.5733 32.3351 75.5446 32.1607 75.5148C32.0251 75.488 31.9053 75.4094 31.8266 75.2957C31.7479 75.182 31.7166 75.0421 31.7393 74.9056C31.762 74.7692 31.8369 74.647 31.9481 74.5649C32.0593 74.4828 32.1981 74.4472 32.3351 74.4658C32.5084 74.4945 32.6817 74.5222 32.856 74.5477C32.997 74.5582 33.1281 74.6242 33.2204 74.7314C33.3127 74.8385 33.3587 74.9779 33.3483 75.119C33.3378 75.2601 33.2718 75.3913 33.1648 75.4836C33.0577 75.576 32.9184 75.622 32.7774 75.6116L32.7731 75.6063ZM47.1143 74.9786C46.9842 74.9787 46.8585 74.9311 46.7612 74.8447C46.6638 74.7583 46.6014 74.6392 46.586 74.5099C46.5705 74.3806 46.603 74.2501 46.6773 74.1431C46.7515 74.0362 46.8624 73.9602 46.9889 73.9296C47.1604 73.8885 47.3313 73.8459 47.5014 73.8019C47.6367 73.7701 47.779 73.7926 47.898 73.8645C48.0169 73.9364 48.103 74.0521 48.1377 74.1868C48.1725 74.3214 48.1531 74.4643 48.0839 74.5849C48.0146 74.7054 47.9009 74.7941 47.7672 74.8318C47.5917 74.8765 47.4163 74.9211 47.2356 74.9637C47.1976 74.9731 47.1587 74.9781 47.1197 74.9786H47.1143ZM29.1041 74.8584C29.0592 74.8584 29.0146 74.8527 28.9712 74.8414C28.7957 74.7956 28.6203 74.7499 28.446 74.702C28.3099 74.6647 28.1942 74.5749 28.1243 74.4523C28.0544 74.3297 28.0361 74.1844 28.0733 74.0482C28.1105 73.9121 28.2003 73.7963 28.3228 73.7264C28.4453 73.6565 28.5906 73.6381 28.7266 73.6754C28.896 73.7222 29.0658 73.7672 29.2359 73.8105C29.3619 73.8421 29.4721 73.9188 29.5454 74.0261C29.6188 74.1334 29.6504 74.2639 29.6341 74.3929C29.6179 74.5219 29.555 74.6405 29.4573 74.7262C29.3597 74.812 29.234 74.859 29.1041 74.8584ZM50.7037 73.9094C50.5784 73.9092 50.4573 73.8648 50.3616 73.784C50.2659 73.7031 50.2018 73.5911 50.1806 73.4676C50.1594 73.3442 50.1824 73.2171 50.2456 73.109C50.3088 73.0008 50.4082 72.9184 50.5261 72.8764C50.692 72.8168 50.8567 72.7572 51.0215 72.6955C51.087 72.6712 51.1566 72.6601 51.2264 72.6627C51.2962 72.6653 51.3648 72.6816 51.4283 72.7108C51.4918 72.7399 51.5489 72.7813 51.5964 72.8325C51.6439 72.8838 51.6809 72.9438 51.7052 73.0094C51.7295 73.0749 51.7406 73.1446 51.738 73.2144C51.7354 73.2842 51.7191 73.3529 51.6899 73.4164C51.6608 73.4799 51.6195 73.5371 51.5683 73.5846C51.5171 73.6322 51.457 73.6691 51.3915 73.6935C51.2214 73.7566 51.051 73.8183 50.8802 73.8786C50.8236 73.8991 50.7638 73.9095 50.7037 73.9094ZM25.5296 73.7402C25.4668 73.7403 25.4044 73.7288 25.3457 73.7062C25.1756 73.6431 25.0058 73.5789 24.8364 73.5136C24.7049 73.4629 24.5989 73.3619 24.5418 73.2329C24.4847 73.1039 24.4811 72.9575 24.5318 72.8259C24.5826 72.6942 24.6835 72.5882 24.8124 72.531C24.9413 72.4738 25.0877 72.4703 25.2192 72.5211C25.3836 72.5849 25.5488 72.6473 25.7146 72.7083C25.8324 72.7511 25.9314 72.8341 25.9939 72.9428C26.0565 73.0515 26.0787 73.1788 26.0566 73.3023C26.0344 73.4257 25.9694 73.5373 25.873 73.6175C25.7766 73.6976 25.655 73.7411 25.5296 73.7402ZM54.1632 72.4806C54.0424 72.4809 53.925 72.44 53.8305 72.3646C53.736 72.2892 53.67 72.1838 53.6434 72.0659C53.6168 71.9479 53.6311 71.8244 53.6841 71.7157C53.737 71.6069 53.8254 71.5195 53.9347 71.4678L54.4078 71.2391C54.4706 71.2082 54.5389 71.19 54.6087 71.1856C54.6786 71.1811 54.7487 71.1904 54.8149 71.2131C54.8812 71.2357 54.9423 71.2711 54.9948 71.3174C55.0474 71.3637 55.0903 71.4199 55.1212 71.4827C55.152 71.5456 55.1702 71.6139 55.1747 71.6838C55.1791 71.7537 55.1698 71.8238 55.1472 71.8901C55.1246 71.9564 55.0892 72.0176 55.0429 72.0702C54.9967 72.1227 54.9405 72.1657 54.8777 72.1966C54.7161 72.2767 54.5538 72.3551 54.3908 72.4317C54.3195 72.4646 54.2418 72.4813 54.1632 72.4806ZM22.086 72.2615C22.0049 72.2615 21.9249 72.2429 21.8521 72.2072C21.6894 72.1274 21.5268 72.0455 21.3652 71.9636C21.3028 71.932 21.2474 71.8883 21.2019 71.8352C21.1564 71.7821 21.1219 71.7205 21.1003 71.654C21.0786 71.5875 21.0703 71.5174 21.0757 71.4477C21.0812 71.378 21.1003 71.31 21.132 71.2477C21.1638 71.1854 21.2075 71.13 21.2606 71.0846C21.3138 71.0392 21.3754 71.0047 21.4419 70.9832C21.5084 70.9616 21.5784 70.9534 21.6481 70.959C21.7178 70.9646 21.7856 70.9838 21.8479 71.0157C22.0041 71.0955 22.1668 71.1742 22.3199 71.2519C22.4278 71.3047 22.5146 71.3926 22.5661 71.5012C22.6177 71.6097 22.631 71.7326 22.6039 71.8497C22.5767 71.9668 22.5108 72.0712 22.4167 72.146C22.3227 72.2208 22.2061 72.2615 22.086 72.2615ZM57.4591 70.7072C57.3428 70.7075 57.2297 70.6697 57.1369 70.5996C57.0442 70.5294 56.977 70.4308 56.9456 70.3187C56.9142 70.2067 56.9204 70.0875 56.9633 69.9793C57.0061 69.8712 57.0831 69.78 57.1827 69.7199C57.3336 69.6295 57.4825 69.5369 57.6314 69.4444C57.6906 69.4073 57.7565 69.3823 57.8253 69.3708C57.8942 69.3593 57.9646 69.3614 58.0326 69.3771C58.1006 69.3928 58.1649 69.4218 58.2217 69.4623C58.2786 69.5029 58.3269 69.5543 58.3639 69.6135C58.4009 69.6727 58.4259 69.7387 58.4374 69.8076C58.4489 69.8765 58.4468 69.947 58.4311 70.015C58.4154 70.0831 58.3864 70.1474 58.3459 70.2043C58.3054 70.2612 58.254 70.3095 58.1948 70.3465C58.0417 70.4423 57.8879 70.5369 57.7334 70.6306C57.6507 70.6806 57.5558 70.7071 57.4591 70.7072ZM18.8103 70.4412C18.711 70.4415 18.6137 70.4134 18.5297 70.3603C18.3752 70.2646 18.222 70.1674 18.0704 70.0688C18.0086 70.0325 17.9547 69.9841 17.9121 69.9265C17.8695 69.8688 17.8389 69.8032 17.8223 69.7334C17.8057 69.6636 17.8034 69.5912 17.8154 69.5205C17.8275 69.4499 17.8537 69.3823 17.8925 69.3221C17.9313 69.2618 17.9819 69.2099 18.0412 69.1697C18.1005 69.1295 18.1674 69.1017 18.2377 69.088C18.3081 69.0742 18.3805 69.0749 18.4506 69.0899C18.5206 69.1049 18.5869 69.1339 18.6455 69.1752L19.0921 69.4582C19.19 69.5194 19.2653 69.6108 19.3066 69.7187C19.348 69.8265 19.3532 69.9449 19.3213 70.0559C19.2895 70.1669 19.2224 70.2646 19.1302 70.3341C19.0381 70.4036 18.9258 70.4412 18.8103 70.4412ZM60.5593 68.6092C60.4478 68.6092 60.339 68.5741 60.2485 68.5088C60.158 68.4435 60.0903 68.3514 60.055 68.2455C60.0197 68.1396 60.0187 68.0252 60.0519 67.9187C60.0852 67.8121 60.1511 67.7187 60.2404 67.6517C60.3821 67.5453 60.5214 67.439 60.6582 67.3326C60.7133 67.2888 60.7765 67.2564 60.8441 67.2372C60.9118 67.2181 60.9826 67.2125 61.0524 67.2209C61.1222 67.2294 61.1897 67.2515 61.2509 67.2862C61.3121 67.3209 61.3658 67.3674 61.4089 67.423C61.452 67.4786 61.4837 67.5422 61.502 67.6101C61.5204 67.678 61.5251 67.7489 61.5159 67.8187C61.5067 67.8884 61.4838 67.9557 61.4484 68.0165C61.4131 68.0773 61.366 68.1305 61.3099 68.173C61.1682 68.2837 61.0247 68.3936 60.8794 68.5028C60.787 68.5721 60.6747 68.6095 60.5593 68.6092ZM15.7367 68.2986C15.6195 68.3 15.5051 68.2626 15.4113 68.1922L14.9861 67.856C14.8758 67.768 14.805 67.6397 14.7893 67.4995C14.7735 67.3592 14.8141 67.2184 14.9021 67.1081C14.9901 66.9978 15.1182 66.9269 15.2584 66.9112C15.3986 66.8954 15.5392 66.936 15.6495 67.024C15.7866 67.1304 15.9259 67.2432 16.0641 67.3507C16.1516 67.4186 16.2158 67.5122 16.2475 67.6184C16.2793 67.7246 16.2771 67.8381 16.2412 67.943C16.2054 68.0479 16.1377 68.1389 16.0476 68.2034C15.9575 68.268 15.8496 68.3027 15.7388 68.3028L15.7367 68.2986ZM63.4331 66.2091C63.326 66.2095 63.2212 66.1774 63.1326 66.1171C63.044 66.0568 62.9756 65.9711 62.9365 65.8712C62.8975 65.7714 62.8894 65.662 62.9135 65.5575C62.9377 65.453 62.9928 65.3583 63.0716 65.2857C63.2014 65.1665 63.3289 65.0463 63.4565 64.925C63.5587 64.8278 63.6953 64.7752 63.8363 64.7788C63.9773 64.7824 64.111 64.8419 64.2082 64.9442C64.3053 65.0465 64.3579 65.1832 64.3543 65.3242C64.3507 65.4653 64.2913 65.5991 64.1891 65.6963C64.0579 65.8205 63.9261 65.9442 63.7936 66.0676C63.6955 66.1585 63.5668 66.209 63.4331 66.2091ZM12.8948 65.858C12.7587 65.8581 12.6278 65.8059 12.5291 65.7123C12.3972 65.5878 12.2675 65.4623 12.1378 65.3357C12.0879 65.2868 12.0481 65.2285 12.0207 65.1642C11.9933 65.1 11.9788 65.0309 11.978 64.961C11.9773 64.8911 11.9903 64.8218 12.0164 64.7569C12.0424 64.692 12.081 64.6329 12.1298 64.583C12.1787 64.5331 12.2369 64.4932 12.3012 64.4658C12.3654 64.4384 12.4344 64.4239 12.5043 64.4231C12.5741 64.4224 12.6434 64.4354 12.7083 64.4615C12.7731 64.4875 12.8321 64.5261 12.882 64.575C13.0082 64.6977 13.1351 64.8197 13.2627 64.941C13.3396 65.0143 13.3928 65.109 13.4154 65.2129C13.438 65.3168 13.429 65.4251 13.3895 65.5238C13.35 65.6225 13.2819 65.7071 13.1939 65.7667C13.1059 65.8262 13.0021 65.8581 12.8959 65.858H12.8948ZM66.0539 63.5314C65.9514 63.5314 65.8511 63.5018 65.7651 63.4461C65.679 63.3904 65.6109 63.3111 65.5689 63.2175C65.5269 63.124 65.5128 63.0203 65.5283 62.919C65.5438 62.8176 65.5882 62.7229 65.6562 62.6462C65.7721 62.5143 65.888 62.3824 66.0018 62.2483C66.0937 62.1413 66.2243 62.0751 66.365 62.0644C66.5057 62.0538 66.6448 62.0994 66.7518 62.1914C66.8589 62.2834 66.925 62.4142 66.9356 62.5549C66.9463 62.6957 66.9006 62.8349 66.8087 62.942C66.6907 63.0792 66.5716 63.2165 66.4515 63.3516C66.4011 63.4075 66.3394 63.452 66.2705 63.4823C66.2015 63.5126 66.127 63.5278 66.0518 63.5271L66.0539 63.5314ZM10.3155 63.1441C10.239 63.1441 10.1634 63.1276 10.0938 63.0956C10.0243 63.0637 9.96247 63.0171 9.91258 62.959C9.79456 62.8228 9.67761 62.6845 9.56172 62.5462C9.47121 62.438 9.42737 62.2983 9.43983 62.1577C9.45229 62.0172 9.52003 61.8873 9.62817 61.7967C9.73631 61.7062 9.87596 61.6623 10.0164 61.6748C10.1569 61.6872 10.2867 61.755 10.3772 61.8632C10.4899 61.998 10.6037 62.132 10.7185 62.2654C10.7848 62.3426 10.8276 62.4372 10.8418 62.538C10.856 62.6388 10.841 62.7415 10.7986 62.834C10.7561 62.9265 10.6881 63.0049 10.6024 63.0599C10.5168 63.1149 10.4173 63.1441 10.3155 63.1441ZM68.3833 60.6025C68.2856 60.6024 68.1898 60.5752 68.1064 60.5241C68.0231 60.473 67.9554 60.3999 67.9109 60.3128C67.8664 60.2257 67.8468 60.128 67.8541 60.0305C67.8615 59.933 67.8956 59.8394 67.9527 59.76C68.059 59.6174 68.1568 59.4738 68.2579 59.3291C68.3397 59.2166 68.4625 59.1407 68.5996 59.1176C68.7368 59.0946 68.8776 59.1263 68.9917 59.206C69.1058 59.2856 69.1841 59.4068 69.2099 59.5436C69.2357 59.6804 69.2069 59.8219 69.1297 59.9376C69.0233 60.0866 68.917 60.2344 68.816 60.3813C68.7667 60.4499 68.7017 60.5058 68.6264 60.5443C68.5512 60.5828 68.4678 60.6027 68.3833 60.6025ZM8.01372 60.1855C7.92811 60.1855 7.84378 60.1648 7.76789 60.1251C7.69199 60.0855 7.6268 60.0281 7.57783 59.9578C7.47152 59.81 7.37156 59.661 7.27056 59.511C7.22907 59.4533 7.19959 59.3878 7.18384 59.3184C7.16809 59.249 7.1664 59.1772 7.17888 59.1072C7.19136 59.0371 7.21775 58.9703 7.25649 58.9107C7.29523 58.851 7.34551 58.7998 7.40439 58.7599C7.46328 58.7201 7.52956 58.6924 7.5993 58.6787C7.66904 58.6649 7.74083 58.6653 7.81043 58.6797C7.88003 58.6942 7.94603 58.7225 8.00451 58.763C8.06298 58.8034 8.11275 58.8552 8.15088 58.9152C8.24975 59.0599 8.34863 59.2046 8.44964 59.3482C8.5055 59.428 8.53842 59.5215 8.54479 59.6187C8.55117 59.7159 8.53076 59.813 8.48579 59.8993C8.44083 59.9857 8.37301 60.0581 8.28977 60.1085C8.20653 60.159 8.11105 60.1856 8.01372 60.1855ZM70.414 57.4524C70.321 57.4529 70.2295 57.4282 70.1493 57.3811C70.0273 57.3108 69.9381 57.1949 69.9015 57.0588C69.8648 56.9228 69.8836 56.7778 69.9536 56.6556C70.0408 56.5024 70.128 56.3492 70.213 56.1949C70.247 56.1339 70.2926 56.0801 70.3473 56.0367C70.402 55.9933 70.4647 55.9611 70.5318 55.9419C70.5989 55.9227 70.6692 55.917 70.7385 55.925C70.8079 55.933 70.875 55.9546 70.936 55.9885C70.997 56.0225 71.0507 56.0681 71.0941 56.1229C71.1375 56.1776 71.1697 56.2403 71.1889 56.3075C71.208 56.3747 71.2138 56.445 71.2058 56.5144C71.1978 56.5838 71.1762 56.6509 71.1423 56.712C71.0551 56.8701 70.9658 57.0279 70.8743 57.1854C70.8282 57.2658 70.7618 57.3328 70.6818 57.3796C70.6018 57.4265 70.5109 57.4516 70.4182 57.4524H70.414ZM6.02877 57.0099C5.93411 57.01 5.84112 56.9848 5.75945 56.9369C5.67777 56.889 5.61034 56.8202 5.56415 56.7375C5.47697 56.5793 5.39015 56.4208 5.30367 56.262C5.23685 56.1377 5.22211 55.9919 5.26269 55.8567C5.30326 55.7216 5.39584 55.6081 5.52005 55.5412C5.64426 55.4743 5.78991 55.4596 5.925 55.5002C6.06008 55.5408 6.17351 55.6334 6.24034 55.7577C6.32327 55.9116 6.4076 56.0655 6.49337 56.2194C6.53837 56.3004 6.56145 56.3917 6.56034 56.4844C6.55922 56.577 6.53395 56.6677 6.48701 56.7476C6.44007 56.8275 6.3731 56.8937 6.29272 56.9397C6.21235 56.9857 6.12136 57.0099 6.02877 57.0099ZM72.1151 54.1119C72.0418 54.1117 71.9693 54.0961 71.9024 54.0661C71.7738 54.0087 71.6731 53.9024 71.6227 53.7708C71.5722 53.6391 71.5761 53.4928 71.6335 53.364C71.7043 53.2023 71.7752 53.0406 71.8461 52.8789C71.9029 52.7512 72.0077 52.6511 72.1378 52.6001C72.2678 52.5491 72.4127 52.5514 72.5411 52.6065C72.6695 52.6616 72.771 52.765 72.8238 52.8944C72.8766 53.0238 72.8764 53.1688 72.8231 53.298C72.7523 53.4647 72.6796 53.631 72.6052 53.797C72.5633 53.8908 72.4951 53.9705 72.4089 54.0264C72.3226 54.0823 72.222 54.112 72.1193 54.1119H72.1151ZM4.37978 53.6512C4.27602 53.6516 4.17443 53.6216 4.08753 53.5648C4.00063 53.5081 3.9322 53.4272 3.8907 53.3321C3.81982 53.1661 3.74894 52.9998 3.67806 52.8331C3.6514 52.7685 3.63773 52.6993 3.63781 52.6293C3.63788 52.5594 3.6517 52.4902 3.67851 52.4257C3.70531 52.3611 3.74456 52.3025 3.79401 52.2531C3.84347 52.2037 3.90215 52.1646 3.96673 52.1379C4.0313 52.1112 4.10049 52.0975 4.17036 52.0976C4.24022 52.0976 4.30939 52.1115 4.37391 52.1383C4.43843 52.1651 4.49704 52.2044 4.54639 52.2539C4.59574 52.3034 4.63484 52.3621 4.66151 52.4267C4.72743 52.5884 4.79655 52.7459 4.86566 52.9108C4.89325 52.975 4.90794 53.044 4.90887 53.1138C4.90981 53.1837 4.89698 53.2531 4.87111 53.318C4.84524 53.3829 4.80682 53.4421 4.75809 53.4921C4.70936 53.5422 4.65126 53.5822 4.58709 53.6097C4.52154 53.6376 4.45099 53.6517 4.37978 53.6512ZM73.4717 50.6149C73.415 50.615 73.3586 50.6061 73.3048 50.5883C73.171 50.5441 73.0603 50.4486 72.9969 50.3227C72.9335 50.1968 72.9227 50.0509 72.9667 49.917C73.0213 49.749 73.0751 49.5809 73.1283 49.4128C73.1492 49.3461 73.1831 49.2843 73.2279 49.2307C73.2728 49.1772 73.3277 49.133 73.3896 49.1007C73.4515 49.0684 73.5191 49.0486 73.5887 49.0424C73.6582 49.0363 73.7283 49.0439 73.7949 49.0649C73.8615 49.0858 73.9233 49.1197 73.9768 49.1646C74.0303 49.2094 74.0745 49.2644 74.1068 49.3264C74.1391 49.3883 74.1588 49.456 74.165 49.5256C74.1711 49.5952 74.1635 49.6653 74.1425 49.7319C74.0887 49.9057 74.0331 50.0788 73.9756 50.2511C73.9405 50.3568 73.873 50.4488 73.7828 50.5141C73.6925 50.5794 73.5841 50.6146 73.4728 50.6149H73.4717ZM3.07631 50.1415C2.96319 50.1415 2.85301 50.1054 2.7618 50.0385C2.67059 49.9715 2.60311 49.8772 2.56917 49.7692C2.51495 49.5958 2.46286 49.4234 2.4097 49.2489C2.38804 49.1815 2.38004 49.1105 2.38618 49.04C2.39232 48.9694 2.41247 48.9009 2.44544 48.8382C2.47841 48.7756 2.52353 48.7202 2.57818 48.6752C2.63283 48.6302 2.69593 48.5967 2.76372 48.5764C2.83151 48.5562 2.90264 48.5496 2.97298 48.5573C3.04332 48.5649 3.11142 48.5865 3.17331 48.6208C3.2352 48.6551 3.28964 48.7014 3.33341 48.757C3.37718 48.8126 3.40942 48.8764 3.42823 48.9447C3.47927 49.1138 3.53455 49.2819 3.58345 49.45C3.6044 49.5166 3.61202 49.5868 3.60588 49.6564C3.59974 49.7259 3.57997 49.7936 3.54768 49.8556C3.5154 49.9175 3.47124 49.9725 3.41772 50.0174C3.3642 50.0622 3.30239 50.0961 3.23579 50.1171C3.18443 50.1328 3.13108 50.141 3.07738 50.1415H3.07631ZM74.4604 46.9999C74.3808 47 74.3022 46.9823 74.2303 46.9479C74.1585 46.9135 74.0953 46.8635 74.0454 46.8014C73.9955 46.7393 73.9601 46.6668 73.942 46.5892C73.9238 46.5116 73.9233 46.4309 73.9406 46.3531C73.9788 46.1818 74.015 46.0095 74.0469 45.8371C74.0608 45.7687 74.0881 45.7036 74.1272 45.6457C74.1663 45.5878 74.2164 45.5382 74.2746 45.4997C74.3329 45.4611 74.3981 45.4345 74.4667 45.4212C74.5352 45.4079 74.6057 45.4082 74.6741 45.4222C74.7425 45.4362 74.8075 45.4635 74.8654 45.5026C74.9233 45.5417 74.9729 45.5918 75.0114 45.6501C75.0499 45.7084 75.0765 45.7737 75.0898 45.8423C75.1031 45.9109 75.1028 45.9814 75.0888 46.0499C75.0526 46.2275 75.0144 46.4052 74.9761 46.5818C74.9503 46.6995 74.8854 46.805 74.7919 46.881C74.6984 46.9569 74.5819 46.9989 74.4615 46.9999H74.4604ZM2.13645 46.5148C2.0139 46.5148 1.89512 46.4725 1.80018 46.3949C1.70525 46.3174 1.64001 46.2094 1.6155 46.0893C1.57936 45.9127 1.54427 45.735 1.50919 45.5573C1.48549 45.4199 1.51663 45.2788 1.59591 45.1641C1.67518 45.0495 1.79626 44.9706 1.93308 44.9444C2.06991 44.9182 2.21154 44.9468 2.32752 45.024C2.4435 45.1012 2.52455 45.2209 2.55324 45.3573C2.5862 45.5307 2.62128 45.7031 2.65955 45.8754C2.67532 45.9527 2.6737 46.0325 2.65483 46.1091C2.63596 46.1857 2.6003 46.2572 2.55043 46.3183C2.50057 46.3794 2.43774 46.4286 2.3665 46.4624C2.29527 46.4962 2.21742 46.5137 2.13858 46.5137L2.13645 46.5148ZM75.0813 43.304H75.0207C74.9513 43.2961 74.8842 43.2746 74.8231 43.2407C74.762 43.2067 74.7082 43.1611 74.6648 43.1064C74.6213 43.0516 74.5891 42.9889 74.5699 42.9217C74.5507 42.8544 74.545 42.7841 74.5529 42.7147C74.5731 42.5402 74.5923 42.3657 74.6093 42.1902C74.6163 42.1207 74.6369 42.0532 74.6699 41.9917C74.7029 41.9301 74.7477 41.8757 74.8018 41.8315C74.8558 41.7873 74.9181 41.7542 74.9849 41.734C75.0518 41.7139 75.1219 41.7071 75.1914 41.7141C75.2608 41.7211 75.3283 41.7417 75.3898 41.7747C75.4513 41.8078 75.5057 41.8526 75.5498 41.9067C75.594 41.9608 75.6271 42.0231 75.6472 42.09C75.6674 42.1569 75.6741 42.2271 75.6672 42.2966C75.6491 42.4764 75.6299 42.6572 75.6097 42.837C75.5939 42.966 75.5314 43.0847 75.434 43.1708C75.3367 43.2568 75.2112 43.3042 75.0813 43.304ZM1.57511 42.8115C1.44287 42.8121 1.31511 42.7635 1.21681 42.6749C1.11851 42.5864 1.05675 42.4644 1.04352 42.3327C1.02545 42.1529 1.00842 41.9731 0.992467 41.7923C0.980202 41.6512 1.02446 41.511 1.11548 41.4026C1.2065 41.2942 1.33684 41.2263 1.47783 41.2141C1.61882 41.2018 1.75889 41.2461 1.86726 41.3371C1.97562 41.4282 2.04338 41.5587 2.05565 41.6997C2.0716 41.8753 2.08757 42.0508 2.10564 42.2263C2.1196 42.3666 2.07739 42.5066 1.98829 42.6157C1.89919 42.7248 1.77046 42.794 1.63038 42.8083L1.57511 42.8115ZM75.3216 39.5656H75.3131C75.1723 39.5634 75.0382 39.5053 74.9401 39.4042C74.842 39.3031 74.788 39.1671 74.79 39.0262C74.79 38.8507 74.79 38.6752 74.79 38.4943V38.4198C74.79 38.2787 74.846 38.1434 74.9457 38.0437C75.0454 37.9439 75.1806 37.8879 75.3216 37.8879C75.4626 37.8879 75.5978 37.9439 75.6975 38.0437C75.7972 38.1434 75.8532 38.2787 75.8532 38.4198V38.5017C75.8532 38.6837 75.8532 38.8645 75.8532 39.0454C75.8501 39.1852 75.7922 39.3181 75.6919 39.4155C75.5916 39.5128 75.4571 39.5668 75.3174 39.5656H75.3216ZM1.3848 39.0698C1.24381 39.0698 1.10859 39.0138 1.0089 38.914C0.909205 38.8143 0.85321 38.679 0.85321 38.5379V38.4985C0.85321 38.3305 0.85321 38.1624 0.85321 37.9953C0.855166 37.8556 0.912038 37.7222 1.01152 37.624C1.111 37.5259 1.24509 37.4708 1.3848 37.4709H1.39222C1.53303 37.4728 1.66731 37.5306 1.76558 37.6315C1.86385 37.7325 1.9181 37.8683 1.91639 38.0092C1.91639 38.1719 1.91639 38.3358 1.91639 38.4985V38.5379C1.91639 38.6081 1.90249 38.6776 1.87551 38.7425C1.84853 38.8073 1.80899 38.8661 1.75917 38.9156C1.70936 38.965 1.65028 39.0041 1.58529 39.0306C1.5203 39.0571 1.45071 39.0704 1.38054 39.0698H1.3848ZM75.1802 35.7421C75.047 35.7426 74.9184 35.693 74.8199 35.6032C74.7215 35.5133 74.6603 35.3898 74.6486 35.2569C74.6327 35.0814 74.6167 34.9059 74.5987 34.7314C74.5883 34.6603 74.5925 34.5879 74.6109 34.5184C74.6292 34.449 74.6615 34.384 74.7057 34.3274C74.7499 34.2707 74.8051 34.2237 74.868 34.189C74.9308 34.1543 75 34.1327 75.0715 34.1255C75.1429 34.1183 75.2151 34.1257 75.2836 34.1471C75.3521 34.1686 75.4156 34.2037 75.4701 34.2504C75.5247 34.2971 75.5692 34.3543 75.6011 34.4187C75.6329 34.4831 75.6514 34.5533 75.6554 34.625C75.6746 34.8048 75.6916 34.9857 75.7075 35.1654C75.7199 35.306 75.6761 35.4456 75.5855 35.5538C75.495 35.6619 75.3653 35.7296 75.2249 35.7421C75.2086 35.7432 75.1922 35.7432 75.176 35.7421H75.1802ZM1.56873 35.3282H1.51557C1.37529 35.3142 1.2463 35.2451 1.15698 35.136C1.06766 35.0268 1.02532 34.8867 1.03927 34.7463C1.05734 34.5654 1.07542 34.3856 1.09668 34.2058C1.11697 34.0694 1.18939 33.9462 1.2987 33.8622C1.40801 33.7782 1.54564 33.74 1.68258 33.7556C1.81951 33.7712 1.94505 33.8394 2.0327 33.9458C2.12036 34.0522 2.16328 34.1886 2.15242 34.3261C2.13328 34.5005 2.11414 34.6761 2.09713 34.8505C2.08364 34.9822 2.02158 35.1041 1.92309 35.1924C1.82459 35.2808 1.69673 35.3292 1.56447 35.3282H1.56873ZM74.6561 32.0366C74.5326 32.0363 74.4131 31.9931 74.3181 31.9143C74.223 31.8355 74.1583 31.726 74.1351 31.6047C74.1022 31.4313 74.0671 31.2589 74.0288 31.0866C74.0117 31.017 74.0088 30.9447 74.0203 30.874C74.0319 30.8034 74.0575 30.7357 74.0958 30.6752C74.1341 30.6147 74.1842 30.5625 74.2431 30.5218C74.302 30.4811 74.3685 30.4528 74.4386 30.4384C74.5087 30.4241 74.5811 30.4241 74.6512 30.4384C74.7213 30.4527 74.7878 30.481 74.8468 30.5217C74.9057 30.5623 74.9558 30.6145 74.9941 30.675C75.0324 30.7355 75.0581 30.8031 75.0696 30.8738C75.1068 31.0504 75.1419 31.2281 75.176 31.4057C75.1892 31.4746 75.1887 31.5455 75.1744 31.6142C75.1602 31.6829 75.1325 31.7481 75.093 31.806C75.0534 31.864 75.0029 31.9135 74.9441 31.9518C74.8854 31.9901 74.8196 32.0164 74.7507 32.0292C74.7194 32.0344 74.6878 32.0369 74.6561 32.0366ZM2.11945 31.6281C2.08374 31.6282 2.04811 31.6247 2.01313 31.6174C1.94462 31.6036 1.87951 31.5764 1.82152 31.5373C1.76353 31.4983 1.71379 31.4482 1.67518 31.3899C1.63657 31.3316 1.60982 31.2662 1.59648 31.1976C1.58313 31.1289 1.58347 31.0583 1.59744 30.9898C1.63359 30.8125 1.67113 30.6351 1.71011 30.4578C1.74133 30.3212 1.82517 30.2024 1.94341 30.1273C2.06165 30.0522 2.20474 30.0268 2.34159 30.0567C2.47843 30.0865 2.59796 30.1692 2.67422 30.2867C2.75048 30.4043 2.7773 30.5472 2.74885 30.6844C2.71057 30.8568 2.67442 31.0291 2.64253 31.2015C2.61741 31.3209 2.55206 31.428 2.4574 31.5049C2.36275 31.5818 2.24456 31.6238 2.12264 31.6238L2.11945 31.6281ZM73.7662 28.3971C73.6521 28.3969 73.5411 28.36 73.4495 28.2918C73.358 28.2236 73.2909 28.1277 73.258 28.0184C73.207 27.8496 73.1552 27.6815 73.1028 27.5141C73.0783 27.4466 73.0678 27.3749 73.0719 27.3033C73.0759 27.2317 73.0943 27.1616 73.1261 27.0973C73.1579 27.0329 73.2023 26.9757 73.2568 26.9291C73.3113 26.8824 73.3746 26.8472 73.443 26.8257C73.5114 26.8041 73.5834 26.7966 73.6548 26.8037C73.7262 26.8107 73.7953 26.8321 73.8582 26.8666C73.9211 26.9011 73.9763 26.948 74.0206 27.0044C74.0649 27.0609 74.0974 27.1257 74.116 27.1949C74.1702 27.3684 74.2223 27.5407 74.2754 27.7152C74.3158 27.8502 74.3009 27.9957 74.2341 28.1198C74.1674 28.2438 74.0541 28.3363 73.9193 28.3769C73.8703 28.3892 73.8198 28.3945 73.7694 28.3929L73.7662 28.3971ZM3.05399 27.9939C3.00027 27.9936 2.94689 27.9854 2.89558 27.9694C2.82891 27.9487 2.76697 27.915 2.71331 27.8703C2.65965 27.8256 2.61531 27.7708 2.58283 27.709C2.55035 27.6471 2.53034 27.5795 2.52398 27.5099C2.51763 27.4403 2.52505 27.3702 2.54579 27.3035C2.60036 27.129 2.65601 26.9556 2.71271 26.7832C2.758 26.6508 2.85358 26.5416 2.97877 26.4793C3.10396 26.417 3.24866 26.4065 3.38151 26.4501C3.51437 26.4938 3.62468 26.5881 3.68855 26.7126C3.75242 26.837 3.76471 26.9817 3.72274 27.1152C3.66745 27.2833 3.61358 27.4513 3.56113 27.6194C3.52757 27.7278 3.46024 27.8226 3.369 27.89C3.27776 27.9574 3.16738 27.9938 3.05399 27.9939ZM72.5138 24.864C72.4086 24.864 72.3057 24.8328 72.2183 24.7742C72.1309 24.7157 72.0628 24.6326 72.0226 24.5353C71.9552 24.3736 71.8872 24.2122 71.8184 24.0512C71.7905 23.9871 71.7755 23.9181 71.7742 23.8482C71.7729 23.7782 71.7855 23.7087 71.811 23.6436C71.8366 23.5785 71.8747 23.5191 71.9232 23.4687C71.9717 23.4184 72.0297 23.3781 72.0938 23.3501C72.1579 23.3222 72.2269 23.3071 72.2967 23.3059C72.3666 23.3046 72.4361 23.3171 72.5012 23.3427C72.5662 23.3683 72.6256 23.4064 72.6759 23.455C72.7262 23.5035 72.7665 23.5615 72.7944 23.6257C72.8653 23.7902 72.9362 23.9562 73.0071 24.1236C73.0407 24.2044 73.0538 24.2923 73.0453 24.3795C73.0368 24.4666 73.0069 24.5504 72.9584 24.6232C72.9098 24.696 72.844 24.7557 72.7668 24.797C72.6896 24.8383 72.6034 24.8598 72.5159 24.8598L72.5138 24.864ZM4.35107 24.4746C4.26273 24.4748 4.17577 24.4529 4.09802 24.4109C4.02026 24.369 3.95417 24.3083 3.90573 24.2344C3.85729 24.1605 3.82804 24.0756 3.82059 23.9876C3.81314 23.8995 3.82772 23.8109 3.86306 23.7299C3.93394 23.5625 4.00659 23.3962 4.08101 23.231C4.10812 23.1652 4.14812 23.1056 4.19865 23.0556C4.24918 23.0056 4.30922 22.9663 4.37521 22.9399C4.4412 22.9135 4.51181 22.9007 4.58286 22.9021C4.65391 22.9035 4.72395 22.9191 4.78885 22.948C4.85375 22.977 4.91221 23.0187 4.96074 23.0706C5.00926 23.1226 5.04688 23.1837 5.07139 23.2505C5.09589 23.3172 5.10678 23.3882 5.10339 23.4592C5.10001 23.5302 5.08245 23.5999 5.05171 23.664C4.98048 23.8257 4.90925 23.9831 4.83908 24.1491C4.79894 24.2457 4.73123 24.3283 4.64443 24.3865C4.55763 24.4448 4.45559 24.4762 4.35107 24.4768V24.4746ZM70.9062 21.483C70.8102 21.4833 70.7159 21.4575 70.6333 21.4084C70.5508 21.3593 70.4831 21.2888 70.4374 21.2043C70.3544 21.049 70.2704 20.8958 70.1843 20.7426C70.1503 20.6816 70.1285 20.6145 70.1204 20.5451C70.1122 20.4757 70.1178 20.4054 70.1368 20.3382C70.1558 20.271 70.1879 20.2081 70.2311 20.1533C70.2744 20.0985 70.328 20.0527 70.389 20.0186C70.4499 19.9845 70.517 19.9628 70.5863 19.9546C70.6557 19.9465 70.726 19.9521 70.7931 19.9711C70.8603 19.9901 70.9231 20.0222 70.9779 20.0655C71.0327 20.1088 71.0784 20.1624 71.1125 20.2234C71.2011 20.3809 71.2879 20.5394 71.373 20.699C71.4165 20.7799 71.4384 20.8708 71.4364 20.9627C71.4344 21.0545 71.4086 21.1444 71.3616 21.2233C71.3146 21.3023 71.2479 21.3677 71.1681 21.4132C71.0883 21.4588 70.9981 21.4828 70.9062 21.483ZM5.999 21.1075C5.90656 21.1074 5.81574 21.0832 5.73551 21.0372C5.65529 20.9913 5.58842 20.9252 5.54151 20.8455C5.4946 20.7658 5.46928 20.6752 5.46803 20.5828C5.46678 20.4903 5.48966 20.399 5.5344 20.3181C5.62229 20.1592 5.71125 20.0011 5.80126 19.8436C5.87175 19.7212 5.98796 19.6317 6.12434 19.595C6.26072 19.5583 6.40608 19.5773 6.52846 19.6479C6.65084 19.7184 6.7402 19.8347 6.77689 19.9712C6.81358 20.1076 6.79459 20.2531 6.7241 20.3756C6.63621 20.5288 6.54974 20.6823 6.46469 20.8362C6.41863 20.9191 6.35126 20.9881 6.26957 21.0362C6.18788 21.0843 6.09483 21.1096 6.00006 21.1096L5.999 21.1075ZM68.9638 18.2819C68.877 18.2819 68.7915 18.2607 68.7148 18.2201C68.638 18.1795 68.5724 18.1207 68.5236 18.0489C68.4251 17.9028 68.3255 17.7581 68.2249 17.6148C68.1824 17.5577 68.1517 17.4927 68.1348 17.4235C68.1178 17.3544 68.1149 17.2825 68.1263 17.2122C68.1376 17.1419 68.1629 17.0746 68.2007 17.0143C68.2385 16.954 68.288 16.9018 68.3463 16.861C68.4046 16.8202 68.4705 16.7915 68.5401 16.7767C68.6097 16.7618 68.6816 16.7611 68.7515 16.7745C68.8213 16.788 68.8878 16.8153 68.9469 16.8549C69.006 16.8946 69.0566 16.9457 69.0956 17.0052C69.1998 17.1535 69.3023 17.302 69.4029 17.451C69.4572 17.5309 69.4887 17.6241 69.494 17.7206C69.4993 17.8171 69.4783 17.9132 69.4331 17.9986C69.388 18.084 69.3204 18.1555 69.2378 18.2054C69.1551 18.2553 69.0604 18.2818 68.9638 18.2819ZM7.97972 17.9265C7.87125 17.9268 7.76537 17.8933 7.6767 17.8308C7.61879 17.7909 7.56937 17.7399 7.53129 17.6807C7.49322 17.6216 7.46726 17.5555 7.4549 17.4862C7.44254 17.4169 7.44403 17.3459 7.45929 17.2772C7.47455 17.2085 7.50328 17.1436 7.5438 17.0861C7.65012 16.9371 7.75644 16.7893 7.85744 16.6424C7.94054 16.5305 8.06426 16.4557 8.20196 16.4341C8.33965 16.4125 8.48032 16.4459 8.59364 16.5271C8.70697 16.6083 8.78389 16.7307 8.80786 16.8681C8.83184 17.0055 8.80095 17.1468 8.72182 17.2616C8.6155 17.4052 8.51767 17.5489 8.41667 17.6935C8.36853 17.7652 8.3037 17.824 8.22776 17.865C8.15182 17.906 8.06705 17.9278 7.98078 17.9287L7.97972 17.9265ZM66.7088 15.2924C66.631 15.2925 66.5541 15.2755 66.4835 15.2426C66.413 15.2097 66.3505 15.1617 66.3005 15.102C66.1878 14.9679 66.0741 14.8342 65.9592 14.7009C65.9117 14.6483 65.8752 14.5867 65.8518 14.5198C65.8284 14.4529 65.8186 14.382 65.823 14.3112C65.8274 14.2404 65.8459 14.1713 65.8774 14.1078C65.9089 14.0442 65.9527 13.9877 66.0063 13.9414C66.06 13.8951 66.1224 13.86 66.1898 13.8381C66.2572 13.8163 66.3282 13.8081 66.3988 13.8141C66.4694 13.8202 66.5381 13.8403 66.6008 13.8733C66.6636 13.9062 66.7191 13.9514 66.7641 14.0062C66.8821 14.1424 67.0001 14.2807 67.116 14.419C67.1809 14.4965 67.2224 14.591 67.2355 14.6913C67.2486 14.7917 67.2329 14.8936 67.1902 14.9853C67.1474 15.077 67.0794 15.1546 66.9942 15.209C66.9089 15.2634 66.8099 15.2923 66.7088 15.2924ZM10.2719 14.9615C10.1703 14.9615 10.0708 14.9324 9.98523 14.8776C9.89965 14.8227 9.83156 14.7445 9.78905 14.6521C9.74653 14.5598 9.73139 14.4572 9.74536 14.3564C9.75934 14.2557 9.80188 14.1611 9.86793 14.0838C9.98559 13.947 10.1043 13.8101 10.2241 13.6732C10.3174 13.5674 10.4489 13.503 10.5897 13.4942C10.7305 13.4854 10.869 13.533 10.9747 13.6264C11.0804 13.7198 11.1448 13.8514 11.1535 13.9922C11.1623 14.1331 11.1148 14.2717 11.0215 14.3775C10.9052 14.5094 10.7897 14.6424 10.6749 14.7764C10.6253 14.8347 10.5637 14.8816 10.4944 14.914C10.425 14.9463 10.3495 14.9632 10.273 14.9637L10.2719 14.9615ZM64.1625 12.5455C64.0238 12.5455 63.8907 12.4913 63.7914 12.3944C63.666 12.271 63.5394 12.149 63.4119 12.0284C63.3095 11.9314 63.2499 11.7976 63.2461 11.6566C63.2423 11.5155 63.2947 11.3787 63.3917 11.2763C63.4887 11.1739 63.6223 11.1142 63.7633 11.1104C63.9043 11.1066 64.041 11.159 64.1433 11.2561C64.2741 11.3805 64.4049 11.5061 64.5335 11.6327C64.6092 11.7065 64.6612 11.8013 64.6828 11.9048C64.7044 12.0084 64.6946 12.116 64.6548 12.214C64.615 12.312 64.5469 12.3958 64.4592 12.4549C64.3715 12.5139 64.2682 12.5455 64.1625 12.5455ZM12.8501 12.2487C12.7439 12.2487 12.6401 12.2169 12.5521 12.1573C12.4641 12.0977 12.396 12.0131 12.3565 11.9144C12.317 11.8157 12.308 11.7074 12.3306 11.6035C12.3532 11.4997 12.4064 11.4049 12.4833 11.3316C12.6141 11.2071 12.7459 11.0827 12.8788 10.9603C12.9297 10.9114 12.9899 10.8731 13.0557 10.8476C13.1216 10.8222 13.1919 10.8101 13.2625 10.8121C13.333 10.8142 13.4025 10.8302 13.4668 10.8594C13.5311 10.8886 13.5889 10.9303 13.6369 10.9821C13.6849 11.0339 13.7222 11.0947 13.7464 11.161C13.7707 11.2274 13.7815 11.2979 13.7782 11.3685C13.7749 11.439 13.7577 11.5082 13.7274 11.5721C13.6971 11.6359 13.6544 11.693 13.6018 11.7401C13.4721 11.8604 13.3445 11.9806 13.217 12.1018C13.1181 12.1961 12.9867 12.2487 12.8501 12.2487ZM61.3546 10.072C61.2344 10.0723 61.1177 10.0314 61.024 9.95603C60.8868 9.84964 60.7475 9.73794 60.6093 9.63049C60.5516 9.58872 60.5029 9.53578 60.466 9.4748C60.4291 9.41382 60.4049 9.34605 60.3947 9.27551C60.3845 9.20498 60.3886 9.13312 60.4067 9.06419C60.4248 8.99526 60.4566 8.93068 60.5001 8.87428C60.5437 8.81788 60.5981 8.7708 60.6602 8.73586C60.7222 8.70091 60.7907 8.6788 60.8615 8.67085C60.9323 8.66289 61.0039 8.66924 61.0722 8.68953C61.1405 8.70982 61.204 8.74364 61.2589 8.78897C61.4007 8.89961 61.5424 9.01131 61.6842 9.12408C61.7704 9.19286 61.8332 9.28676 61.8637 9.39278C61.8942 9.49881 61.891 9.61172 61.8546 9.71586C61.8182 9.82 61.7502 9.91022 61.6603 9.97403C61.5703 10.0378 61.4628 10.0721 61.3525 10.072H61.3546ZM15.6878 9.80177C15.5769 9.80187 15.4688 9.76728 15.3785 9.70284C15.2883 9.63841 15.2204 9.54736 15.1845 9.44242C15.1485 9.33749 15.1462 9.22393 15.1779 9.11763C15.2097 9.01134 15.2738 8.91762 15.3614 8.8496C15.5031 8.73896 15.6467 8.62903 15.792 8.51981C15.8478 8.47789 15.9114 8.4474 15.979 8.43006C16.0466 8.41273 16.117 8.40889 16.1861 8.41876C16.2552 8.42864 16.3217 8.45205 16.3818 8.48764C16.4418 8.52323 16.4943 8.57031 16.5362 8.62619C16.5781 8.68208 16.6086 8.74567 16.6259 8.81334C16.6432 8.88101 16.647 8.95143 16.6372 9.02058C16.6273 9.08973 16.6039 9.15626 16.5683 9.21637C16.5328 9.27648 16.4857 9.32899 16.4299 9.3709C16.2895 9.47729 16.1502 9.58368 16.011 9.69006C15.9185 9.7619 15.8049 9.80117 15.6878 9.80177ZM58.3097 7.8868C58.2082 7.88714 58.1088 7.85793 58.0237 7.80276L57.5771 7.51977C57.5163 7.48363 57.4633 7.43571 57.4213 7.37882C57.3792 7.32194 57.3489 7.25722 57.3322 7.18847C57.3154 7.11972 57.3125 7.04831 57.3237 6.97844C57.3349 6.90856 57.3599 6.84161 57.3972 6.78152C57.4346 6.72142 57.4835 6.66939 57.5412 6.62847C57.5989 6.58754 57.6642 6.55855 57.7332 6.54319C57.8022 6.52782 57.8736 6.5264 57.9432 6.539C58.0128 6.55159 58.0792 6.57796 58.1385 6.61655C58.2926 6.71229 58.4457 6.81017 58.5978 6.90804C58.6941 6.97033 58.7678 7.06215 58.8077 7.16977C58.8476 7.2774 58.8517 7.39505 58.8193 7.50517C58.7868 7.61529 58.7197 7.71197 58.6279 7.78075C58.536 7.84953 58.4244 7.88674 58.3097 7.8868ZM18.7593 7.65594C18.6438 7.65618 18.5313 7.61875 18.439 7.54932C18.3466 7.4799 18.2793 7.38225 18.2474 7.27117C18.2154 7.16008 18.2205 7.0416 18.2618 6.93366C18.3032 6.82572 18.3785 6.73419 18.4765 6.67293C18.6296 6.57718 18.7834 6.4825 18.9379 6.38888C18.9976 6.35055 19.0644 6.32458 19.1344 6.31249C19.2043 6.30039 19.2759 6.30243 19.345 6.31847C19.4141 6.33451 19.4793 6.36424 19.5368 6.4059C19.5942 6.44755 19.6428 6.5003 19.6795 6.56102C19.7163 6.62174 19.7405 6.68921 19.7508 6.75946C19.7611 6.8297 19.7573 6.9013 19.7395 6.97003C19.7217 7.03876 19.6903 7.10323 19.6473 7.15964C19.6042 7.21605 19.5503 7.26326 19.4887 7.29849C19.3387 7.38998 19.1899 7.48147 19.041 7.57509C18.9555 7.62813 18.8567 7.6558 18.7561 7.65488L18.7593 7.65594ZM55.0638 6.02291C54.9802 6.02327 54.8978 6.00357 54.8235 5.96546C54.6661 5.88567 54.5045 5.80694 54.3504 5.72928C54.2875 5.69861 54.2314 5.65587 54.1851 5.60347C54.1387 5.55108 54.1032 5.49008 54.0804 5.42394C54.0577 5.3578 54.0481 5.28782 54.0524 5.218C54.0567 5.14818 54.0747 5.07989 54.1053 5.01702C54.136 4.95415 54.1787 4.89794 54.231 4.85159C54.2834 4.80524 54.3444 4.76967 54.4105 4.7469C54.4766 4.72413 54.5465 4.7146 54.6162 4.71888C54.686 4.72315 54.7543 4.74113 54.8171 4.7718C54.9801 4.85194 55.1424 4.9328 55.304 5.01436C55.4106 5.06841 55.4959 5.15683 55.5461 5.26535C55.5963 5.37386 55.6086 5.49614 55.5808 5.61244C55.553 5.72875 55.4869 5.83231 55.3931 5.90639C55.2993 5.98048 55.1833 6.02077 55.0638 6.02078V6.02291ZM22.0286 5.83035C21.9087 5.83034 21.7923 5.78977 21.6983 5.71522C21.6044 5.64067 21.5384 5.53653 21.511 5.4197C21.4837 5.30287 21.4966 5.18023 21.5477 5.07169C21.5989 4.96314 21.6851 4.87508 21.7926 4.8218C21.9542 4.74236 22.1168 4.66364 22.2806 4.58562C22.4055 4.53748 22.544 4.53829 22.6684 4.58789C22.7927 4.63749 22.8938 4.73221 22.9514 4.85315C23.009 4.97408 23.0189 5.11231 22.9791 5.24022C22.9393 5.36813 22.8527 5.47629 22.7367 5.5431C22.5782 5.61864 22.4177 5.69524 22.2635 5.7729C22.1907 5.80986 22.1103 5.82952 22.0286 5.83035ZM51.6414 4.49732C51.576 4.49765 51.5111 4.48574 51.45 4.46221C51.2863 4.39838 51.1204 4.33667 50.9556 4.27497C50.8879 4.2526 50.8254 4.21683 50.7718 4.16978C50.7181 4.12273 50.6745 4.06537 50.6435 4.0011C50.6125 3.93684 50.5948 3.86699 50.5913 3.79572C50.5878 3.72444 50.5987 3.6532 50.6233 3.58622C50.648 3.51925 50.6858 3.45791 50.7346 3.40587C50.7834 3.35383 50.8421 3.31215 50.9074 3.2833C50.9726 3.25446 51.0429 3.23904 51.1143 3.23797C51.1856 3.2369 51.2564 3.25019 51.3224 3.27706C51.4932 3.33948 51.6634 3.40366 51.8328 3.46962C51.9482 3.51455 52.0443 3.59841 52.1046 3.70671C52.1648 3.81502 52.1854 3.94098 52.1627 4.06283C52.14 4.18468 52.0755 4.29478 51.9803 4.37411C51.8851 4.45344 51.7653 4.49702 51.6414 4.49732ZM25.4637 4.34838C25.3388 4.3488 25.2177 4.3052 25.1218 4.22522C25.0258 4.14523 24.961 4.03398 24.9388 3.91098C24.9166 3.78798 24.9384 3.66109 25.0004 3.55256C25.0623 3.44404 25.1605 3.36081 25.2777 3.31749C25.4471 3.25437 25.6172 3.19266 25.788 3.13238C25.8541 3.10732 25.9246 3.09572 25.9953 3.09825C26.0659 3.10078 26.1354 3.1174 26.1996 3.14713C26.2637 3.17686 26.3213 3.2191 26.369 3.27139C26.4166 3.32367 26.4534 3.38494 26.4771 3.45161C26.5008 3.51828 26.5109 3.58901 26.507 3.65966C26.503 3.73032 26.485 3.79947 26.454 3.86307C26.423 3.92666 26.3796 3.98343 26.3264 4.03005C26.2732 4.07666 26.2113 4.11219 26.1442 4.13454C25.9783 4.19305 25.8135 4.2537 25.6487 4.31434C25.5883 4.33734 25.5241 4.34888 25.4595 4.34838H25.4637ZM48.0765 3.33026C48.0295 3.33042 47.9827 3.32434 47.9372 3.31217C47.7671 3.26536 47.597 3.22032 47.4269 3.17706C47.2903 3.14207 47.1732 3.05421 47.1013 2.93281C47.0294 2.8114 47.0087 2.6664 47.0436 2.52969C47.0786 2.39299 47.1664 2.27578 47.2877 2.20386C47.4091 2.13193 47.554 2.11118 47.6906 2.14617C47.8671 2.19192 48.0415 2.23766 48.2158 2.28554C48.3396 2.31971 48.4469 2.3976 48.5178 2.5048C48.5887 2.612 48.6184 2.74125 48.6014 2.86866C48.5844 2.99607 48.5219 3.11302 48.4254 3.19788C48.3289 3.28273 48.205 3.32976 48.0765 3.33026ZM29.0286 3.22387C28.8993 3.22375 28.7744 3.17647 28.6775 3.0909C28.5805 3.00533 28.518 2.88732 28.5017 2.75897C28.4854 2.63062 28.5164 2.50073 28.589 2.39361C28.6615 2.28649 28.7705 2.20949 28.8957 2.17702C29.07 2.13092 29.2472 2.08659 29.4273 2.04404C29.4959 2.02497 29.5676 2.0199 29.6383 2.02911C29.7089 2.03833 29.7769 2.06165 29.8384 2.09769C29.8998 2.13374 29.9534 2.18176 29.9959 2.23893C30.0384 2.29609 30.069 2.36122 30.0859 2.43045C30.1028 2.49968 30.1056 2.5716 30.0942 2.64194C30.0828 2.71228 30.0573 2.7796 30.0194 2.83992C29.9815 2.90023 29.9318 2.9523 29.8734 2.99304C29.8149 3.03377 29.7489 3.06235 29.6792 3.07706C29.5081 3.11961 29.3379 3.16217 29.1678 3.20685C29.1227 3.2182 29.0762 3.22357 29.0296 3.22281L29.0286 3.22387ZM44.4192 2.53342C44.39 2.53341 44.3609 2.53128 44.332 2.52704C44.1587 2.49831 43.9854 2.47065 43.811 2.44405C43.7398 2.43626 43.6709 2.41414 43.6085 2.37904C43.546 2.34393 43.4913 2.29655 43.4476 2.23976C43.4039 2.18296 43.3722 2.11791 43.3542 2.04852C43.3363 1.97913 43.3325 1.90683 43.3432 1.83595C43.3539 1.76508 43.3788 1.69709 43.4164 1.63608C43.454 1.57507 43.5035 1.5223 43.562 1.48092C43.6205 1.43954 43.6867 1.41042 43.7568 1.39531C43.8268 1.38019 43.8991 1.37939 43.9695 1.39295C44.1481 1.41955 44.3267 1.44721 44.5011 1.477C44.6323 1.49919 44.7504 1.56983 44.8321 1.67494C44.9138 1.78006 44.9531 1.91202 44.9423 2.04474C44.9315 2.17746 44.8713 2.30129 44.7736 2.39177C44.676 2.48225 44.548 2.5328 44.4149 2.53342H44.4192ZM32.6955 2.46746C32.5617 2.46713 32.433 2.41637 32.335 2.32529C32.237 2.23422 32.1769 2.10952 32.1667 1.97608C32.1565 1.84263 32.197 1.71025 32.28 1.60532C32.363 1.5004 32.4825 1.43064 32.6147 1.40997C32.7933 1.38231 32.973 1.35678 33.1526 1.33125C33.2924 1.31192 33.434 1.34892 33.5465 1.43412C33.6589 1.51931 33.733 1.64571 33.7523 1.78552C33.7716 1.92533 33.7346 2.06709 33.6495 2.17961C33.5643 2.29214 33.438 2.36621 33.2983 2.38554C33.1239 2.40895 32.9496 2.43448 32.7763 2.46108C32.7499 2.46485 32.7232 2.46663 32.6966 2.46639L32.6955 2.46746ZM40.6991 2.11106H40.6651C40.4907 2.10042 40.3143 2.09085 40.1335 2.08234C39.9925 2.07557 39.86 2.01303 39.7651 1.90848C39.6702 1.80394 39.6207 1.66595 39.6274 1.52487C39.6342 1.3838 39.6967 1.25119 39.8012 1.15622C39.9056 1.06125 40.0436 1.0117 40.1845 1.01847C40.3653 1.02698 40.546 1.03762 40.7268 1.04826C40.8678 1.05263 41.0012 1.11287 41.0978 1.21572C41.1944 1.31857 41.2463 1.45561 41.2419 1.59668C41.2375 1.73776 41.1773 1.87132 41.0745 1.96799C40.9717 2.06465 40.8348 2.1165 40.6938 2.11213L40.6991 2.11106ZM36.4198 2.08766C36.2788 2.09118 36.1422 2.03852 36.04 1.94126C35.9378 1.844 35.8785 1.7101 35.8749 1.56902C35.8714 1.42794 35.924 1.29124 36.0212 1.18899C36.1184 1.08674 36.2523 1.02732 36.3932 1.02379C36.5729 1.01528 36.7536 1.00677 36.9344 1.00038C37.0042 0.997729 37.0739 1.00886 37.1394 1.03314C37.2049 1.05742 37.265 1.09438 37.3162 1.14189C37.3674 1.18941 37.4088 1.24656 37.438 1.31008C37.4672 1.37361 37.4835 1.44225 37.4862 1.5121C37.4888 1.58196 37.4777 1.65165 37.4534 1.71721C37.4292 1.78276 37.3922 1.84289 37.3448 1.89416C37.2973 1.94543 37.2402 1.98684 37.1767 2.01603C37.1132 2.04521 37.0446 2.0616 36.9748 2.06425C36.7983 2.07064 36.6229 2.07915 36.4432 2.08766H36.4198Z" fill="black"/>
<path d="M38.3536 70.0942C20.9323 70.0942 6.75873 55.9216 6.75873 38.4994C6.75873 21.0771 20.9323 6.90454 38.3536 6.90454C55.7748 6.90454 69.9484 21.0781 69.9484 38.4994C69.9484 55.9206 55.7758 70.0942 38.3536 70.0942ZM38.3536 8.24083C21.6687 8.24083 8.09502 21.8155 8.09502 38.4994C8.09502 55.1832 21.6687 68.7579 38.3536 68.7579C55.0384 68.7579 68.6121 55.1842 68.6121 38.4994C68.6121 21.8146 55.0384 8.24083 38.3536 8.24083Z" fill="#F1F2F2"/>
<path d="M26.0408 63.9642L25.5726 64.7561L24.2858 63.9979C23.975 63.8151 23.7704 63.6623 23.6721 63.5396C23.6273 63.4905 23.5925 63.4331 23.57 63.3706C23.5474 63.3081 23.5374 63.2417 23.5405 63.1753C23.551 63.0546 23.6285 62.8718 23.7731 62.6269C23.4185 62.4172 23.134 62.1073 22.9555 61.7361C22.7939 61.409 22.7516 61.0359 22.8357 60.6809C22.9208 60.3338 23.1369 59.8656 23.484 59.2763L24.6788 57.2481C24.8711 56.9016 25.0986 56.5759 25.3578 56.2761C25.5571 56.0676 25.8016 55.9078 26.0725 55.8089C26.3622 55.6971 26.6761 55.663 26.9831 55.7099C27.3216 55.7635 27.6464 55.8825 27.9393 56.0603C28.2916 56.2596 28.5992 56.5291 28.843 56.8522C29.0305 57.0849 29.156 57.3612 29.2079 57.6554C29.2598 57.9496 29.2365 58.2522 29.14 58.5349C29.007 58.8821 28.8413 59.2159 28.6451 59.5317L27.391 61.6609C27.0471 62.2442 26.7858 62.6227 26.607 62.7962C26.441 62.9638 26.2235 63.0708 25.9893 63.1001C25.7162 63.1231 25.4412 63.0894 25.1816 63.0011C25.1034 63.1526 25.0826 63.2634 25.1094 63.3317C25.1361 63.4 25.2529 63.4931 25.4499 63.6099L26.0408 63.9642ZM27.2019 58.0865C27.3807 57.7817 27.4797 57.5768 27.4989 57.4718C27.5072 57.4212 27.4986 57.3693 27.4744 57.324C27.4503 57.2787 27.4119 57.2427 27.3652 57.2214C27.3262 57.1959 27.2814 57.1809 27.2349 57.1778C27.1884 57.1746 27.142 57.1835 27.0999 57.2036C27.0115 57.2452 26.8683 57.4346 26.6703 57.7718L24.8668 60.8324C24.6422 61.2125 24.5194 61.457 24.4986 61.5639C24.488 61.6166 24.4958 61.6714 24.5209 61.719C24.546 61.7666 24.5867 61.8041 24.6362 61.8252C24.6825 61.8592 24.7395 61.8756 24.7968 61.8715C24.8541 61.8673 24.9081 61.8428 24.949 61.8024C25.0421 61.7193 25.2024 61.4847 25.4301 61.0986L27.2019 58.0865Z" fill="#F1F2F2"/>
<path d="M34.2347 58.7938L32.6866 63.6371C32.572 64.0263 32.4305 64.407 32.2629 64.7764C32.1343 65.0119 31.9502 65.2124 31.7265 65.3604C31.4711 65.5402 31.1718 65.6473 30.8603 65.6703C30.4956 65.6944 30.1298 65.6453 29.7844 65.5257C29.3888 65.4084 29.0219 65.2106 28.7064 64.9447C28.4496 64.7372 28.2544 64.4634 28.1422 64.1528C28.0532 63.8891 28.0331 63.6069 28.0838 63.3332C28.1366 63.0693 28.2933 62.5278 28.554 61.7089L29.924 57.4209L31.8047 58.0227L30.0685 63.457C29.9662 63.7737 29.9187 63.9816 29.9259 64.0806C29.9275 64.1273 29.9446 64.1721 29.9746 64.2079C30.0045 64.2438 30.0456 64.2686 30.0912 64.2785C30.1386 64.3001 30.192 64.3049 30.2424 64.2919C30.2928 64.2789 30.3373 64.2491 30.3684 64.2073C30.4344 64.1215 30.5248 63.8978 30.6396 63.5362L32.3461 58.191L34.2347 58.7938Z" fill="#F1F2F2"/>
<path d="M37.7438 59.114L38.1516 66.7951L36.1392 66.6041L36.162 65.2332L35.4582 65.1659L35.2107 66.516L33.1746 66.324L34.897 58.8447L37.7438 59.114ZM36.2382 63.885C36.219 63.0179 36.219 61.9482 36.2382 60.6759C35.8997 62.1073 35.673 63.1558 35.5582 63.8217L36.2382 63.885Z" fill="#F1F2F2"/>
<path d="M40.633 58.9595L41.1378 65.0242L42.3365 64.9253L42.4593 66.4387L39.2918 66.703L38.6603 59.1208L40.633 58.9595Z" fill="#F1F2F2"/>
<path d="M43.8076 58.3723L45.4586 65.7961L43.5264 66.2257L41.8764 58.8019L43.8076 58.3723Z" fill="#F1F2F2"/>
<path d="M47.8422 56.8936L48.3985 58.312L47.3037 58.7386L49.516 64.4084L47.6729 65.1271L45.4606 59.4582L44.3718 59.8839L43.8185 58.4644L47.8422 56.8936Z" fill="#F1F2F2"/>
<path d="M51.4392 54.5505L52.8527 59.4107L54.3444 61.7259L52.8032 62.7158L51.3115 60.4005L47.5135 57.0727L49.0418 56.0888C50.0838 57.1835 50.7595 57.9368 51.069 58.3486C50.7212 57.6068 50.3342 56.6675 49.9079 55.5305L51.4392 54.5505Z" fill="#F1F2F2"/>
<path d="M38.3535 56.5579C28.3957 56.5579 20.2948 48.457 20.2948 38.4991C20.2948 28.5413 28.3957 20.4404 38.3535 20.4404C48.3113 20.4404 56.4162 28.5413 56.4162 38.4991C56.4162 48.457 48.3113 56.5579 38.3535 56.5579ZM38.3535 21.7777C29.1331 21.7777 21.6321 29.2787 21.6321 38.4991C21.6321 47.7195 29.1331 55.2216 38.3535 55.2216C47.5739 55.2216 55.0759 47.7195 55.0759 38.4991C55.0759 29.2787 47.5739 21.7777 38.3535 21.7777Z" fill="#F1F2F2"/>
<path d="M59.9599 47.3733L58.9492 49.839L56.2925 49.641L58.3256 51.3634L57.315 53.8291L59.5817 52.4274L61.6149 54.1507L60.9823 51.5613L63.2491 50.1607L60.5924 49.9617L59.9599 47.3733Z" fill="#F1F2F2"/>
<path d="M63.3769 38.0776L62.3663 40.5433L59.7095 40.3454L61.7426 42.0677L60.733 44.5334L62.9988 43.1318L65.0319 44.8541L64.4004 42.2657L66.6661 40.865L64.0094 40.6661L63.3769 38.0776Z" fill="#F1F2F2"/>
<path d="M62.1782 28.8909L61.1685 31.3566L58.5108 31.1576L60.5439 32.8799L59.5343 35.3466L61.801 33.945L63.8342 35.6673L63.2017 33.0789L65.4684 31.6773L62.8107 31.4793L62.1782 28.8909Z" fill="#F1F2F2"/>
<path d="M17.4293 47.3733L18.4389 49.839L21.0967 49.641L19.0635 51.3634L20.0732 53.8291L17.8064 52.4274L15.7733 54.1507L16.4058 51.5613L14.139 50.1607L16.7968 49.9617L17.4293 47.3733Z" fill="#F1F2F2"/>
<path d="M14.0112 38.0776L15.0219 40.5433L17.6786 40.3454L15.6455 42.0677L16.6561 44.5334L14.3893 43.1318L12.3562 44.8541L12.9887 42.2657L10.722 40.865L13.3787 40.6661L14.0112 38.0776Z" fill="#F1F2F2"/>
<path d="M15.21 28.8909L16.2197 31.3566L18.8774 31.1576L16.8443 32.8799L17.8539 35.3466L15.5882 33.945L13.554 35.6673L14.1866 33.0789L11.9198 31.6773L14.5775 31.4793L15.21 28.8909Z" fill="#F1F2F2"/>
<path fill-rule="evenodd" clip-rule="evenodd" d="M48.9359 36.8306C48.54 36.2189 48.5519 35.6814 48.9607 35.2993C49.1375 35.1337 49.3668 35.0352 49.6086 35.0208C49.8505 35.0064 50.0898 35.0771 50.2851 35.2206C50.4803 35.364 50.6193 35.5712 50.6779 35.8063C50.7364 36.0415 50.7109 36.2896 50.6058 36.5079C50.3623 37.0128 49.8614 37.1919 49.1715 36.9959C49.0983 37.1127 49.0161 37.2365 48.9428 37.3642C48.2351 38.5807 47.5205 39.7913 46.8266 41.0157C46.3158 41.9184 45.9298 42.8716 45.7892 43.911C45.7798 43.9438 45.7658 43.9751 45.7476 44.004C40.8195 42.6182 35.8819 42.6206 30.9346 44.011C30.7079 42.1679 29.6904 40.6871 28.8035 39.1479C28.3897 38.4302 27.969 37.7175 27.5553 37.0098C26.7377 37.1622 26.2685 36.9752 26.0705 36.4248C25.9858 36.2005 25.9813 35.9539 26.0578 35.7267C26.1342 35.4995 26.287 35.3058 26.49 35.1784C26.6931 35.051 26.934 34.9977 27.1718 35.0277C27.4096 35.0577 27.6298 35.1691 27.7948 35.3429C28.169 35.7388 28.165 36.2704 27.778 36.8118C27.7852 36.8381 27.797 36.8628 27.8127 36.8851C29.1856 38.2105 30.6129 39.4725 32.2947 40.397C32.8453 40.6944 33.4286 40.9269 34.0328 41.0899C34.9583 41.3443 35.7264 41.0325 36.2956 40.2545C36.8402 39.4933 37.2008 38.616 37.3488 37.6918C37.6171 36.1486 37.812 34.5926 38.0259 33.0395C38.0862 32.599 38.1011 32.1487 38.1387 31.6795C37.6537 31.536 37.2073 31.2944 37.0657 30.7718C36.979 30.4644 36.9695 30.1404 37.038 29.8285C37.1904 29.2197 37.8536 28.8089 38.4584 28.8673C39.1266 28.9317 39.6749 29.4543 39.7403 30.0878C39.8195 30.8569 39.4195 31.4003 38.5406 31.6795C38.594 32.1744 38.6396 32.6891 38.7029 33.1979C38.9157 34.9885 39.1761 36.7712 39.7413 38.4906C39.9256 39.0575 40.1646 39.6052 40.4549 40.1258C40.9746 41.0503 41.6715 41.3206 42.7088 41.0959C43.6066 40.8979 44.3915 40.4614 45.1478 39.9704C46.4959 39.0964 47.7026 38.0471 48.8558 36.9336C48.8795 36.9068 48.9013 36.8722 48.9359 36.8306Z" fill="#F1F2F2"/>
<path fill-rule="evenodd" clip-rule="evenodd" d="M45.612 44.8432C45.522 45.2609 45.4477 45.6054 45.3695 45.9647C40.7034 44.6535 36.0274 44.6535 31.3414 45.9647L31.093 44.8442C35.9373 43.4297 40.7628 43.4297 45.612 44.8432Z" fill="#F1F2F2"/>
<path fill-rule="evenodd" clip-rule="evenodd" d="M45.3012 46.8989L45.0696 47.9728C40.6021 46.719 36.126 46.719 31.6414 47.9728C31.5681 47.6432 31.4919 47.2978 31.4038 46.8999C36.0413 45.5467 40.6599 45.5457 45.3012 46.8989Z" fill="#F1F2F2"/>
<path d="M18.3794 18.9609L19.8642 17.6295C20.1662 17.3399 20.5058 17.0922 20.8738 16.8931C21.0977 16.7727 21.3504 16.7162 21.6043 16.7298C21.824 16.7533 22.0335 16.8342 22.2121 16.9644C22.4908 17.1818 22.7466 17.4272 22.9752 17.6968L23.4177 18.1918C23.7424 18.5534 23.9403 18.8503 24.0116 19.0826C24.0846 19.3324 24.0602 19.6005 23.9433 19.8329C23.7821 20.1535 23.5567 20.4376 23.2811 20.6674L22.8852 21.0227L24.9322 23.2994L23.4593 24.6208L18.3794 18.9609ZM20.7204 18.6075L22.0141 20.0477C22.0586 20.0131 22.0953 19.9814 22.126 19.9547C22.2616 19.8329 22.3239 19.7151 22.318 19.6023C22.312 19.4895 22.2131 19.3271 22.021 19.1173L21.6033 18.652C21.4291 18.4541 21.2856 18.3551 21.1727 18.3551C21.0599 18.3551 20.9124 18.4363 20.7204 18.6075Z" fill="#F1F2F2"/>
<path d="M23.1011 15.0122L24.3245 14.3312C25.1402 13.8778 25.71 13.602 26.034 13.5037C26.3583 13.4062 26.7077 13.4381 27.009 13.5928C27.3343 13.7511 27.655 14.1141 27.9711 14.6816C28.2588 15.1983 28.3878 15.5817 28.3581 15.8318C28.3285 16.0819 28.1348 16.3297 27.7771 16.5752C28.1661 16.4692 28.4591 16.4554 28.6561 16.5316C28.8205 16.5881 28.9702 16.6804 29.0946 16.8018C29.1896 16.9048 29.3876 17.2245 29.6885 17.761L30.6645 19.514L29.059 20.4049L27.8296 18.1955C27.6316 17.8399 27.4808 17.6353 27.3772 17.5818C27.2782 17.5284 27.103 17.567 26.8655 17.6996L28.5333 20.6979L26.8041 21.659L23.1011 15.0122ZM25.4629 15.1874L26.2854 16.6662C26.4794 16.5587 26.6008 16.4561 26.6497 16.3584C26.6982 16.2594 26.6408 16.0674 26.4774 15.7744L26.2735 15.4081C26.1567 15.1976 26.0422 15.0805 25.9301 15.0567C25.8179 15.033 25.6621 15.0765 25.4629 15.1874Z" fill="#F1F2F2"/>
<path d="M28.8124 12.1408L31.9631 11.1619L32.4144 12.6159L31.1534 13.0119L31.582 14.3897L32.7619 14.0225L33.1915 15.4083L32.0106 15.7755L32.5055 17.3731L33.8913 16.9426L34.3426 18.3966L31.0672 19.4142L28.8124 12.1408Z" fill="#F1F2F2"/>
<path d="M40.3985 10.271L40.8281 17.8671L39.1019 17.966L38.8049 12.8377L38.409 18.0046L37.1845 18.0739L36.1759 13.1049L36.457 18.1155L34.7307 18.2145L34.3011 10.6184L36.8559 10.4739C36.9575 10.9266 37.0664 11.4605 37.1825 12.0755L37.5725 13.9908L37.8249 10.4185L40.3985 10.271Z" fill="#F1F2F2"/>
<path d="M44.538 10.9082L43.3433 18.4221L41.3893 18.1113L42.5841 10.5974L44.538 10.9082Z" fill="#F1F2F2"/>
<path d="M51.0887 13.5938L48.8121 18.1411C48.6384 18.5079 48.44 18.8624 48.2182 19.2023C48.0546 19.4152 47.8416 19.5851 47.5975 19.6972C47.3178 19.8355 47.0059 19.8954 46.6948 19.8704C46.3307 19.838 45.9767 19.7333 45.6535 19.5626C45.2809 19.3856 44.9487 19.1339 44.6775 18.8231C44.4555 18.5766 44.3052 18.274 44.243 17.9481C44.1949 17.6736 44.2184 17.3913 44.3113 17.1285C44.4037 16.8751 44.6415 16.3647 45.0249 15.5972L47.0383 11.5706L48.8081 12.4555L46.2563 17.5571C46.1078 17.8541 46.0286 18.0521 46.0197 18.151C46.0144 18.1976 46.0246 18.2446 46.0487 18.2847C46.0729 18.3248 46.1097 18.3558 46.1534 18.3728C46.197 18.4011 46.249 18.4138 46.3008 18.4088C46.3526 18.4038 46.4011 18.3813 46.4384 18.345C46.5156 18.2698 46.639 18.0626 46.8086 17.7234L49.3169 12.7089L51.0887 13.5938Z" fill="#F1F2F2"/>
<path d="M58.1405 18.7581L53.0349 24.4002L51.7481 23.2391L55.1937 19.4302L51.2344 22.7759L50.3247 21.9533L53.1547 17.7445L49.7892 21.4643L48.5024 20.3032L53.608 14.6611L55.5065 16.3785C55.2551 16.7698 54.9512 17.2222 54.5949 17.7356L53.5061 19.3589L56.2272 17.0298L58.1405 18.7581Z" fill="#F1F2F2"/>
</g>
</svg>
