<svg width="73" height="72" viewBox="0 0 73 72" fill="none" xmlns="http://www.w3.org/2000/svg">
<path d="M35.8817 71.8433C35.4629 71.8383 35.1303 71.4905 35.1401 71.0766C35.1451 70.6577 35.4884 70.3247 35.9073 70.3295C36.3257 70.3393 36.6587 70.6822 36.6489 71.1011C36.6439 71.5101 36.3054 71.8433 35.892 71.8433C35.892 71.8433 35.8872 71.8433 35.8817 71.8433ZM37.6735 71.0814C37.6479 70.6627 37.9711 70.3039 38.3845 70.2841C38.8033 70.2633 39.1615 70.5817 39.1818 71.0006C39.2069 71.4146 38.8842 71.7723 38.4653 71.7979C38.4653 71.7979 38.4653 71.7979 38.4703 71.7979C38.4555 71.7979 38.4402 71.7979 38.4302 71.7979C38.0262 71.7979 37.6931 71.4847 37.6735 71.0814ZM33.2983 71.7074C32.8799 71.672 32.5719 71.3032 32.6123 70.8845C32.6473 70.4705 33.016 70.1631 33.4299 70.1985C33.8486 70.2389 34.1562 70.6016 34.1212 71.0206C34.0858 71.4147 33.7526 71.7123 33.3642 71.7123C33.344 71.7122 33.3184 71.7074 33.2983 71.7074ZM40.2012 70.9101C40.1456 70.4912 40.4384 70.1128 40.8571 70.0625C41.271 70.0112 41.6496 70.3039 41.6998 70.7178C41.7554 71.1317 41.4578 71.5101 41.0439 71.5654C41.0133 71.5654 40.9832 71.5704 40.9478 71.5704C40.5748 71.5704 40.2466 71.2884 40.2012 70.9101ZM30.73 71.389C30.73 71.389 30.73 71.389 30.73 71.384C30.3166 71.318 30.0387 70.9297 30.1047 70.5157C30.1703 70.1077 30.5584 69.8248 30.9724 69.891C31.3858 69.9561 31.6637 70.3492 31.5982 70.7582C31.5375 71.1317 31.2143 71.3987 30.8513 71.3939C30.8107 71.3939 30.7703 71.3939 30.73 71.389ZM42.7089 70.5513C42.6231 70.1432 42.8907 69.7441 43.2991 69.6633C43.7131 69.5825 44.1117 69.8446 44.1924 70.2537C44.2729 70.6676 44.0056 71.0657 43.5967 71.1465C43.5465 71.1574 43.4957 71.1623 43.4503 71.1623C43.0977 71.1623 42.7793 70.9149 42.7089 70.5513ZM28.1922 70.8795C27.7833 70.784 27.5359 70.3748 27.6321 69.9659C27.7276 69.5628 28.1366 69.3106 28.5402 69.4061C28.9492 69.5018 29.2014 69.9107 29.1053 70.3197C29.0196 70.6676 28.7117 70.9001 28.3687 70.9001C28.308 70.9001 28.2524 70.8943 28.1922 70.8795ZM45.1864 70.0221C45.0701 69.6179 45.3078 69.1992 45.7112 69.0878C46.1149 68.9774 46.5286 69.209 46.6444 69.6131C46.7558 70.0173 46.5183 70.4351 46.1147 70.5465C46.0492 70.5671 45.9786 70.5721 45.9126 70.5721C45.5801 70.5719 45.2772 70.3551 45.1864 70.0221ZM25.6994 70.1936C25.3007 70.0675 25.0786 69.6387 25.2047 69.2396C25.3308 68.8415 25.755 68.6236 26.1537 68.7499C26.5523 68.876 26.7742 69.2999 26.6479 69.6989C26.5468 70.0221 26.2442 70.2291 25.9265 70.2291C25.8506 70.229 25.7753 70.2133 25.6994 70.1936ZM47.6133 69.3056C47.4725 68.9114 47.6788 68.4777 48.0726 68.3368C48.4663 68.1949 48.9005 68.4019 49.0414 68.795C49.1828 69.1892 48.9759 69.6229 48.5821 69.7649C48.4964 69.7944 48.4106 69.8102 48.3299 69.8102C48.0173 69.8044 47.7247 69.6131 47.6133 69.3056ZM23.2574 69.3203C22.8685 69.1686 22.6769 68.7251 22.8336 68.3368C22.9898 67.9476 23.4288 67.7613 23.8172 67.912C24.206 68.0687 24.3928 68.5083 24.2414 68.8966C24.1201 69.1942 23.8375 69.3757 23.5349 69.3757C23.444 69.3757 23.3479 69.3607 23.2574 69.3203ZM49.9849 68.4167C49.8182 68.0333 49.9899 67.5899 50.3738 67.4184C50.7521 67.2519 51.2011 67.4234 51.3726 67.8067C51.5391 68.1901 51.3676 68.6346 50.9842 68.8061C50.8832 68.8464 50.7822 68.8712 50.6763 68.8712C50.3885 68.871 50.111 68.6995 49.9849 68.4167ZM20.8856 68.2758C20.5073 68.0945 20.3509 67.64 20.5323 67.2667C20.7191 66.8883 21.168 66.7316 21.5465 66.9139C21.92 67.0952 22.0768 67.5495 21.895 67.928C21.7639 68.195 21.4963 68.3518 21.214 68.3518C21.1025 68.3516 20.9915 68.326 20.8856 68.2758ZM52.286 67.3622C52.0889 66.9947 52.2304 66.5354 52.5986 66.3383C52.9672 66.1412 53.4264 66.2831 53.623 66.6506C53.8201 67.0192 53.6787 67.4785 53.3101 67.6756C53.1943 67.7357 53.0732 67.7614 52.9568 67.7614C52.6847 67.7614 52.4221 67.6144 52.286 67.3622ZM18.5948 67.0646C18.2366 66.8527 18.1105 66.3934 18.3223 66.0307C18.5292 65.6671 18.9935 65.541 19.3517 65.7529C19.715 65.9597 19.8411 66.424 19.6292 66.7876C19.4933 67.029 19.2359 67.166 18.9734 67.166C18.8471 67.166 18.716 67.1306 18.5948 67.0646ZM54.506 66.1412C54.2842 65.7884 54.3902 65.3194 54.7432 65.0975C55.0964 64.8748 55.5661 64.9812 55.7879 65.3339C56.0101 65.6877 55.9042 66.1568 55.5459 66.3786C55.4248 66.4594 55.2832 66.495 55.1473 66.495C54.8949 66.495 54.6474 66.3687 54.506 66.1412ZM16.4051 65.6878C16.0568 65.4551 15.9661 64.9812 16.203 64.6382C16.4351 64.2894 16.9095 64.1987 17.2525 64.4361C17.6008 64.6678 17.6865 65.1427 17.4546 65.4857C17.3082 65.7025 17.0713 65.8187 16.8288 65.8187C16.6824 65.8188 16.5312 65.7785 16.4051 65.6878ZM56.6303 64.7585C56.3829 64.4264 56.4539 63.9514 56.7919 63.704C57.1298 63.4576 57.6044 63.5275 57.8513 63.8657C58.0988 64.2037 58.0228 64.6788 57.6902 64.9252C57.5537 65.0217 57.3974 65.0719 57.2408 65.0719C57.0087 65.0719 56.7765 64.9654 56.6303 64.7585ZM14.3162 64.1583C13.988 63.9011 13.9273 63.422 14.19 63.094C14.4472 62.7658 14.9267 62.7107 15.2545 62.9679C15.5827 63.2301 15.6378 63.704 15.3756 64.0322C15.2292 64.2243 15.0071 64.32 14.7804 64.32C14.6187 64.3198 14.4523 64.2697 14.3162 64.1583ZM58.6486 63.2349C58.3811 62.9175 58.4167 62.4376 58.7344 62.1656C59.0576 61.8976 59.5316 61.9331 59.8041 62.2564C60.0767 62.5748 60.0361 63.0486 59.7184 63.3206C59.577 63.4418 59.4005 63.503 59.2291 63.503C59.0117 63.503 58.7998 63.4112 58.6486 63.2349ZM12.3433 62.4828C12.0304 62.2009 12.0101 61.7211 12.2926 61.4135C12.5754 61.106 13.0548 61.0853 13.3624 61.3682C13.6703 61.6451 13.6905 62.1251 13.4077 62.4325C13.2613 62.599 13.0548 62.6797 12.8529 62.6797C12.6709 62.6799 12.4841 62.6139 12.3433 62.4828ZM60.5561 61.5654C60.2633 61.2668 60.2682 60.7879 60.5658 60.4951C60.864 60.2023 61.3429 60.2073 61.6357 60.5049C61.9285 60.8025 61.9235 61.2824 61.6259 61.5752C61.4795 61.7211 61.2879 61.7921 61.0961 61.7921C60.899 61.7921 60.7025 61.7161 60.5561 61.5654ZM10.4915 60.6716C10.2037 60.369 10.2189 59.89 10.5215 59.6023C10.8241 59.3145 11.3035 59.3245 11.5913 59.627C11.8791 59.9305 11.8688 60.4095 11.5613 60.6974C11.4149 60.8383 11.2281 60.9043 11.0415 60.9043C10.8442 60.9041 10.6427 60.8281 10.4915 60.6716ZM62.3374 59.7638C62.0245 59.486 61.9939 59.0069 62.2719 58.6937C62.5494 58.3813 63.0288 58.3507 63.3412 58.6286C63.6541 58.9055 63.6847 59.3805 63.4072 59.6978C63.4072 59.6978 63.4072 59.6978 63.4072 59.6929C63.2555 59.8643 63.0484 59.9501 62.8366 59.9501C62.6601 59.9501 62.4838 59.8899 62.3374 59.7638ZM8.78057 58.7291C8.51836 58.4059 8.56374 57.9318 8.8866 57.6648C9.20981 57.4026 9.68387 57.4479 9.95141 57.7703C10.2189 58.0935 10.1683 58.5725 9.84557 58.8356C9.70415 58.9509 9.53764 59.0071 9.36616 59.0071C9.14914 59.0069 8.93177 58.9103 8.78057 58.7291ZM63.9871 57.8361C63.6539 57.5839 63.5885 57.1098 63.8407 56.7766C64.0979 56.4436 64.5723 56.3774 64.9055 56.6347C65.2332 56.8869 65.2992 57.362 65.047 57.6941C64.9006 57.8912 64.6734 57.9928 64.4462 57.9928C64.2847 57.9928 64.1236 57.9416 63.9871 57.8361ZM7.21163 56.6752C6.96917 56.3323 7.04992 55.8582 7.39288 55.6207C7.73638 55.3783 8.20548 55.459 8.4474 55.7972C8.68986 56.1412 8.60909 56.6151 8.26613 56.8517C8.13503 56.9483 7.98328 56.9936 7.83208 56.9936C7.59496 56.9936 7.35803 56.8823 7.21163 56.6752ZM65.4959 55.7972C65.1427 55.5705 65.0471 55.1015 65.2738 54.7477C65.5009 54.3997 65.97 54.3042 66.3232 54.5308C66.6715 54.7585 66.7673 55.2276 66.5405 55.5803C66.3941 55.8022 66.1516 55.9233 65.9043 55.9233C65.7635 55.9233 65.622 55.8829 65.4959 55.7972ZM5.79832 54.5111C5.58148 54.1523 5.69232 53.6882 6.05058 53.4713C6.40884 53.2545 6.87347 53.3708 7.09031 53.7286C7.30715 54.0824 7.19134 54.5515 6.83308 54.7633C6.71177 54.8393 6.57532 54.8736 6.44422 54.8736C6.18718 54.8738 5.93974 54.7427 5.79832 54.5111ZM66.848 53.6526C66.4848 53.4516 66.3537 52.9923 66.5553 52.6287C66.7573 52.2601 67.2166 52.129 67.5846 52.3311C67.9482 52.5332 68.0793 52.9973 67.8774 53.36C67.7414 53.6074 67.4788 53.7492 67.2166 53.7492C67.0905 53.7492 66.9644 53.7188 66.848 53.6526ZM4.5423 52.2503C4.35054 51.8768 4.49692 51.4225 4.86995 51.2314C5.2435 51.0393 5.69783 51.191 5.88942 51.5596C6.0762 51.9321 5.92978 52.3914 5.5564 52.5785C5.44558 52.6337 5.32925 52.6643 5.21345 52.6643C4.9411 52.6641 4.6734 52.5125 4.5423 52.2503ZM68.0439 51.4225C67.6656 51.246 67.4991 50.7917 67.6759 50.4133C67.8523 50.035 68.3012 49.8683 68.685 50.0458C69.0634 50.2223 69.2246 50.6707 69.0531 51.0491C68.922 51.3269 68.6495 51.4886 68.3618 51.4886C68.256 51.4885 68.15 51.4678 68.0439 51.4225ZM3.45238 49.9037C3.28588 49.5203 3.46769 49.0769 3.85601 48.9104C4.23935 48.7487 4.68335 48.9301 4.84486 49.3135C5.00656 49.7018 4.82478 50.1461 4.44126 50.3078C4.3452 50.3482 4.24467 50.368 4.14844 50.368C3.85102 50.368 3.57352 50.1915 3.45238 49.9037ZM69.0783 49.1016C68.69 48.9557 68.4879 48.5162 68.6393 48.1279C68.7857 47.7346 69.2198 47.5375 69.6136 47.6894C70.0069 47.8352 70.204 48.2689 70.0526 48.6629C69.9413 48.9655 69.654 49.1518 69.3461 49.1518C69.2552 49.1518 69.1641 49.137 69.0783 49.1016ZM2.53397 47.4873C2.40287 47.0881 2.61473 46.6594 3.00839 46.5283C3.40703 46.3922 3.83572 46.6043 3.96682 47.0024C4.10326 47.3966 3.89141 47.8253 3.49277 47.9614C3.41201 47.987 3.33107 48.0017 3.25031 48.0017C2.93741 48.0017 2.63981 47.7997 2.53397 47.4873ZM69.9361 46.7195C69.5375 46.5993 69.3103 46.1804 69.4266 45.7764C69.5478 45.3783 69.9667 45.1506 70.3703 45.2669C70.769 45.3881 70.9956 45.807 70.8798 46.2101C70.7837 46.5383 70.4811 46.7501 70.1529 46.7501C70.0825 46.7501 70.0121 46.7403 69.9361 46.7195ZM1.79718 45.0047C1.69116 44.6007 1.93362 44.1868 2.33724 44.0813C2.74086 43.9798 3.15478 44.2222 3.26062 44.6264C3.36646 45.0294 3.12419 45.4434 2.71559 45.5498C2.65493 45.5645 2.58946 45.5745 2.5288 45.5745C2.191 45.5745 1.88292 45.3477 1.79718 45.0047ZM70.6226 44.2774C70.2136 44.1916 69.9564 43.7885 70.0469 43.3796C70.138 42.9706 70.5368 42.7134 70.9453 42.7991C71.3542 42.8897 71.6114 43.2938 71.5257 43.7028C71.4497 44.0555 71.132 44.298 70.7836 44.298C70.7334 44.2982 70.6779 44.2932 70.6226 44.2774ZM1.23701 42.477C1.16159 42.068 1.43412 41.6738 1.84805 41.5989C2.25648 41.5232 2.65031 41.7952 2.72556 42.2089C2.80151 42.6179 2.52898 43.0112 2.12003 43.0869C2.07467 43.0967 2.0245 43.0967 1.98412 43.0967C1.62088 43.0967 1.303 42.8445 1.23701 42.477ZM71.1272 41.795C70.7133 41.7348 70.431 41.3515 70.4861 40.9376C70.5468 40.5286 70.9301 40.2408 71.3441 40.297C71.758 40.3571 72.0453 40.7405 71.9852 41.1544C71.9295 41.5328 71.6068 41.8058 71.2382 41.8058C71.2027 41.8058 71.1676 41.8 71.1272 41.795ZM0.863977 39.9185C0.823597 39.5045 1.12121 39.1262 1.53515 39.0858C1.95389 39.0404 2.3269 39.338 2.37226 39.7569V39.752C2.41816 40.1709 2.11506 40.5443 1.70165 40.5896C1.67106 40.5896 1.64596 40.5946 1.61536 40.5946C1.237 40.5946 0.909159 40.3068 0.863977 39.9185ZM71.4549 39.2829C71.0362 39.2573 70.7236 38.8937 70.7536 38.4748C70.7837 38.056 71.1473 37.7435 71.5609 37.7741C71.9796 37.8036 72.2927 38.1674 72.2627 38.5861C72.2627 38.5861 72.2627 38.5861 72.2627 38.5811C72.2376 38.9792 71.8991 39.2877 71.5058 39.2877C71.4903 39.2879 71.4702 39.2879 71.4549 39.2829ZM0.677211 37.3395C0.661913 36.9208 0.990112 36.5678 1.40903 36.5531C1.82244 36.5372 2.17571 36.8654 2.19101 37.2843C2.20631 37.6983 1.8781 38.051 1.46416 38.0669C1.45438 38.0669 1.44407 38.0669 1.43411 38.0669C1.03049 38.0667 0.692509 37.7435 0.677211 37.3395ZM70.8394 35.9972C70.8394 35.9824 70.8394 35.9726 70.8394 35.9577C70.8394 35.9419 70.8394 35.9321 70.8394 35.9173C70.8394 35.4984 71.1774 35.1604 71.5963 35.1545C72.015 35.1545 72.3532 35.4925 72.3532 35.9114C72.3532 35.9273 72.3532 35.942 72.3532 35.9577C72.3532 35.9724 72.3532 35.9822 72.3532 35.9972C72.3532 36.4161 72.015 36.7541 71.5963 36.7541C71.1824 36.7541 70.8394 36.4161 70.8394 35.9972ZM1.40903 35.5331C0.990112 35.5183 0.661913 35.1704 0.677211 34.7514C0.686994 34.3327 1.04045 34.0045 1.45919 34.0193C1.87793 34.0351 2.2008 34.3829 2.19101 34.8018C2.17571 35.2107 1.83773 35.5331 1.43411 35.5331C1.42379 35.5331 1.41383 35.5331 1.40903 35.5331ZM70.7487 33.4397C70.7181 33.0208 71.031 32.6572 71.4449 32.6266C71.8636 32.5971 72.2269 32.9094 72.257 33.3284C72.2876 33.7423 71.9747 34.105 71.5557 34.1354C71.5404 34.1404 71.5203 34.1404 71.5001 34.1404C71.1069 34.1404 70.774 33.8378 70.7487 33.4397ZM1.52963 33.0002C1.11071 32.9598 0.813104 32.5862 0.853662 32.1675C0.899023 31.7546 1.27258 31.451 1.69132 31.4963C2.10526 31.5426 2.40785 31.9151 2.36249 32.329C2.32211 32.7173 1.9939 33.005 1.61056 33.005C1.5853 33.0051 1.55525 33.0051 1.52963 33.0002ZM70.4762 30.9721C70.4155 30.5631 70.7033 30.1748 71.1167 30.1147C71.5307 30.0535 71.914 30.3413 71.9747 30.7553C72.0353 31.1692 71.7475 31.5525 71.3341 31.6127C71.2987 31.6177 71.2582 31.6226 71.2228 31.6226C70.8547 31.6225 70.5315 31.3505 70.4762 30.9721ZM1.83275 30.4872C1.41881 30.4123 1.14629 30.0181 1.22224 29.61C1.29767 29.1961 1.69133 28.9232 2.10046 28.999C2.51387 29.07 2.78639 29.4633 2.71096 29.8771C2.64497 30.2406 2.32709 30.4979 1.96883 30.4979C1.92329 30.498 1.87793 30.4931 1.83275 30.4872ZM70.0268 28.5349C69.9361 28.1259 70.1935 27.7229 70.6025 27.6321C71.0109 27.5453 71.4145 27.8036 71.5058 28.2117C71.5965 28.6158 71.3393 29.0198 70.9303 29.1105C70.8752 29.1253 70.8193 29.1303 70.7638 29.1303C70.4205 29.1301 70.1078 28.8877 70.0268 28.5349ZM2.31713 27.9997C1.91351 27.8942 1.67106 27.4852 1.7721 27.0812C1.87794 26.6732 2.28652 26.4307 2.69548 26.5312C3.0991 26.6378 3.34138 27.0515 3.24034 27.4546C3.14926 27.7976 2.8417 28.0253 2.50372 28.0253C2.44324 28.0254 2.38259 28.0155 2.31713 27.9997ZM69.4064 26.1381C69.2852 25.74 69.5124 25.3152 69.911 25.1949C70.3147 25.0786 70.7334 25.3052 70.8547 25.7044C70.976 26.1025 70.7489 26.5264 70.3452 26.6476C70.2743 26.6682 70.2038 26.6781 70.1279 26.6781C69.8052 26.6781 69.5021 26.4663 69.4064 26.1381ZM2.98331 25.5527C2.58467 25.4216 2.37226 24.9929 2.5039 24.5987C2.6398 24.2006 3.06905 23.9887 3.46235 24.1198C3.86099 24.2509 4.07284 24.6796 3.94174 25.0788C3.83572 25.3961 3.53813 25.5932 3.22043 25.5932C3.14447 25.5931 3.06353 25.5833 2.98331 25.5527ZM68.6091 23.7916C68.4579 23.4033 68.6544 22.9648 69.0481 22.8179C69.4364 22.6661 69.8754 22.8632 70.0218 23.2565C70.173 23.6457 69.9765 24.0794 69.5826 24.2312C69.4969 24.2657 69.4062 24.2815 69.3156 24.2815C69.0079 24.2813 68.7249 24.094 68.6091 23.7916ZM3.82594 23.1608C3.43708 22.9991 3.25529 22.5557 3.41699 22.1723C3.57869 21.7831 4.0225 21.6017 4.40584 21.7634C4.7947 21.9251 4.97598 22.3685 4.81481 22.7577C4.69349 23.0445 4.41065 23.2218 4.11304 23.2218C4.01752 23.2218 3.92146 23.2012 3.82594 23.1608ZM67.6453 21.5111C67.4688 21.1328 67.63 20.6833 68.0086 20.507C68.3924 20.3305 68.8412 20.4922 69.0177 20.8706C69.1947 21.2489 69.028 21.7032 68.6497 21.8797C68.5486 21.9251 68.4378 21.9496 68.3317 21.9496C68.0439 21.9496 67.7714 21.789 67.6453 21.5111ZM4.83509 20.835C4.46652 20.6477 4.31531 20.1944 4.50191 19.8209C4.69367 19.4473 5.14745 19.2956 5.52101 19.4877C5.89457 19.6739 6.04078 20.1283 5.854 20.5018C5.7229 20.764 5.45537 20.9207 5.17805 20.9207C5.06171 20.9207 4.94592 20.8901 4.83509 20.835ZM66.5204 19.3064C66.3133 18.9428 66.4444 18.4785 66.8077 18.2765C67.1762 18.0746 67.6355 18.2055 67.8419 18.5693C67.8419 18.5693 67.8419 18.5693 67.8369 18.5693C68.0438 18.9329 67.9128 19.3971 67.5496 19.5982C67.4285 19.6642 67.3023 19.6947 67.181 19.6947C66.9137 19.6947 66.6565 19.5528 66.5204 19.3064ZM6.01571 18.5949C5.65745 18.3772 5.54128 17.9129 5.75848 17.5551C5.97532 17.1964 6.43943 17.0811 6.79769 17.2929C7.15595 17.5098 7.27229 17.9739 7.05492 18.3316C6.9135 18.5691 6.66125 18.7002 6.40403 18.7002C6.27293 18.7004 6.13703 18.665 6.01571 18.5949ZM65.2334 17.1866C65.0067 16.8386 65.1023 16.3695 65.4508 16.1371C65.804 15.9104 66.2731 16.006 66.5003 16.3589C66.7322 16.7077 66.6314 17.1768 66.2829 17.4036C66.1518 17.4893 66.0104 17.5297 65.8695 17.5297C65.6221 17.5295 65.3796 17.4084 65.2334 17.1866ZM7.35251 16.4396C7.00955 16.1982 6.92879 15.7231 7.17107 15.3851C7.40801 15.0422 7.8826 14.9614 8.22557 15.1989C8.56853 15.4413 8.64928 15.9154 8.40736 16.2534C8.26096 16.4653 8.029 16.5766 7.78654 16.5766C7.64032 16.5766 7.48415 16.5312 7.35251 16.4396ZM63.8003 15.1633C63.5481 14.8351 63.6135 14.3562 63.9417 14.1038C64.2749 13.8516 64.749 13.9165 65.0012 14.2447C65.259 14.5779 65.1928 15.0518 64.8652 15.309C64.7237 15.4106 64.562 15.4607 64.4059 15.4607C64.1739 15.4611 63.9517 15.3604 63.8003 15.1633ZM8.84124 14.3868C8.51837 14.1237 8.47318 13.6447 8.7352 13.3215C9.00274 12.9993 9.47682 12.9479 9.80004 13.216C10.1229 13.4782 10.1736 13.9571 9.91102 14.2803H9.90605C9.75965 14.4616 9.5428 14.5581 9.32063 14.5581C9.15413 14.5583 8.98265 14.5021 8.84124 14.3868ZM62.226 13.2516C61.9485 12.9381 61.9792 12.4591 62.2915 12.1813C62.6044 11.9034 63.084 11.9338 63.3613 12.2522C63.6392 12.5598 63.6086 13.0387 63.2959 13.3165C63.1495 13.4426 62.973 13.5086 62.7912 13.5086C62.5843 13.5086 62.3778 13.4229 62.226 13.2516ZM10.4762 12.4483C10.1736 12.1615 10.1583 11.6816 10.4456 11.379C10.7334 11.0764 11.2128 11.0608 11.5154 11.3484C11.8183 11.6362 11.8331 12.1161 11.546 12.4187C11.3948 12.5744 11.1977 12.6553 10.9961 12.6553C10.8092 12.6553 10.6224 12.5852 10.4762 12.4483ZM60.5207 11.4549C60.2181 11.1623 60.2131 10.6824 60.5059 10.3846C60.7982 10.087 61.2776 10.082 61.5752 10.3748C61.8733 10.6675 61.8831 11.1465 61.5905 11.4452C61.4393 11.596 61.2425 11.6718 61.0454 11.6718C60.8537 11.6718 60.6669 11.6008 60.5207 11.4549ZM12.2422 10.6321C11.9594 10.3245 11.9796 9.84562 12.2876 9.56279C12.6005 9.27995 13.0751 9.30058 13.3574 9.60814C13.6397 9.91553 13.6196 10.3955 13.312 10.6774C13.1656 10.8085 12.9838 10.8795 12.8025 10.8795C12.5955 10.8793 12.3934 10.7936 12.2422 10.6321ZM58.684 9.78443C58.3661 9.51743 58.3257 9.03731 58.5982 8.72015C58.8658 8.40173 59.3449 8.36135 59.6626 8.62942C59.9808 8.90141 60.0208 9.37547 59.7536 9.69869C59.6023 9.87515 59.39 9.96569 59.1732 9.96569C59.0019 9.96569 58.8254 9.90575 58.684 9.78443ZM14.1344 8.94677C13.8771 8.61857 13.9323 8.14451 14.2605 7.88249C14.5832 7.62527 15.0627 7.68041 15.32 8.00861C15.5825 8.3368 15.527 8.81087 15.1992 9.06809C15.0578 9.17944 14.8963 9.23459 14.7296 9.23459C14.5079 9.23459 14.2856 9.13408 14.1344 8.94677ZM56.7362 8.25106C56.3982 8.00861 56.3228 7.53454 56.5695 7.19656C56.8169 6.85751 57.2914 6.78262 57.6293 7.03006C57.9673 7.27643 58.038 7.75139 57.796 8.08954C57.6443 8.29162 57.4176 8.39711 57.18 8.39711C57.029 8.39693 56.8726 8.35157 56.7362 8.25106ZM16.1423 7.40255C15.9054 7.05461 15.9959 6.58553 16.3444 6.34805C16.6874 6.11645 17.157 6.20219 17.3939 6.55013C17.6311 6.89807 17.5403 7.36804 17.1973 7.59965C17.0657 7.69037 16.9145 7.73075 16.7681 7.73075C16.5262 7.73057 16.2887 7.62028 16.1423 7.40255ZM54.6828 6.86338C54.3296 6.64067 54.2182 6.17159 54.4404 5.81867C54.6626 5.46485 55.1316 5.35937 55.4851 5.58119C55.8384 5.79803 55.9492 6.26711 55.727 6.62093C55.5806 6.85253 55.3339 6.97865 55.0815 6.97865C54.9451 6.97865 54.8089 6.93827 54.6828 6.86338ZM18.2568 6.00491C18.045 5.64718 18.1711 5.18308 18.5294 4.97105C18.8926 4.76399 19.3567 4.8853 19.5638 5.24801C19.7756 5.6068 19.6543 6.07091 19.2912 6.28277C19.1701 6.34787 19.039 6.38327 18.9129 6.38327C18.6505 6.38345 18.3983 6.24737 18.2568 6.00491ZM52.5329 5.62655C52.1649 5.43052 52.0235 4.97122 52.2151 4.60265C52.4122 4.23407 52.8709 4.09318 53.2395 4.28441C53.6075 4.48151 53.7491 4.9408 53.5574 5.30938C53.4213 5.5666 53.1587 5.71247 52.8862 5.71247C52.7651 5.71229 52.6443 5.68276 52.5329 5.62655ZM20.4619 4.76915C20.2801 4.39079 20.4368 3.93647 20.8152 3.75502C21.1882 3.57269 21.6425 3.72941 21.8243 4.10297C22.0111 4.48133 21.8544 4.93565 21.476 5.11709C21.37 5.16743 21.2592 5.19305 21.1484 5.19305C20.8655 5.19287 20.5978 5.03615 20.4619 4.76915ZM50.2978 4.5475C49.9145 4.37495 49.743 3.93148 49.9095 3.54814C50.0756 3.1648 50.525 2.99332 50.9083 3.15982C51.2916 3.32543 51.4631 3.77477 51.2972 4.15811C51.171 4.44095 50.8932 4.60745 50.6059 4.60745C50.4999 4.60745 50.3989 4.58681 50.2978 4.5475ZM22.7575 3.69401C22.6013 3.30071 22.7881 2.86133 23.1764 2.7055C23.5647 2.55377 24.0038 2.7409 24.1605 3.12923C24.3167 3.51755 24.1299 3.95603 23.7416 4.11275C23.6455 4.14815 23.5498 4.16896 23.4588 4.16896C23.1563 4.16896 22.874 3.98663 22.7575 3.69401ZM47.9917 3.63389C47.5986 3.49193 47.3915 3.05843 47.5324 2.66513C47.6688 2.27093 48.1031 2.06405 48.5017 2.20583C48.5017 2.20583 48.5017 2.20583 48.4962 2.20583C48.8948 2.34671 49.0969 2.77541 48.9603 3.16961C48.8495 3.48197 48.5567 3.67426 48.2438 3.67426C48.1632 3.67426 48.0774 3.65843 47.9917 3.63389ZM25.1189 2.78626C24.9928 2.38709 25.215 1.95839 25.6136 1.83227C26.0122 1.70615 26.436 1.92797 26.5623 2.32697C26.6884 2.72027 26.4715 3.14879 26.0729 3.27509C25.9971 3.30071 25.9162 3.31049 25.841 3.31049C25.5229 3.31067 25.2249 3.10361 25.1189 2.78626ZM45.6305 2.88677C45.2268 2.77541 44.9899 2.35667 45.1007 1.95839C45.2115 1.55423 45.6255 1.31782 46.0291 1.42811C46.4327 1.53947 46.6697 1.95341 46.5588 2.35649C46.4681 2.69448 46.1602 2.91719 45.8325 2.91719C45.7616 2.91736 45.6959 2.90758 45.6305 2.88677ZM27.5464 2.04911C27.4501 1.64602 27.6976 1.23707 28.106 1.13549C28.51 1.03997 28.9186 1.29221 29.0196 1.69636C29.1151 2.10443 28.8682 2.51339 28.4592 2.60891C28.3986 2.62474 28.3386 2.62955 28.283 2.62955C27.94 2.62955 27.6271 2.39705 27.5464 2.04911ZM43.2183 2.31629C42.8049 2.23642 42.5422 1.83743 42.6231 1.42829C42.7041 1.02022 43.1025 0.752328 43.5111 0.833088C43.9201 0.913847 44.1873 1.31302 44.1069 1.72109C44.0359 2.08469 43.718 2.33212 43.3647 2.33212C43.3144 2.33195 43.2637 2.32714 43.2183 2.31629ZM30.0184 1.49429C29.948 1.08035 30.2308 0.692027 30.6442 0.626032C31.0532 0.556123 31.4415 0.837891 31.5119 1.24685C31.5779 1.66079 31.3001 2.04911 30.8867 2.12008C30.8463 2.12506 30.8059 2.12987 30.7654 2.12987C30.4023 2.12987 30.0791 1.86785 30.0184 1.49429ZM40.7714 1.92299C40.3526 1.87265 40.0598 1.49429 40.1102 1.08035C40.1609 0.666412 40.5394 0.368811 40.9582 0.423955C41.3716 0.475186 41.6643 0.853545 41.614 1.26748C41.5686 1.65082 41.2405 1.92779 40.8621 1.92779C40.832 1.92797 40.8014 1.92797 40.7714 1.92299ZM32.5266 1.12073C32.4862 0.701987 32.7936 0.333411 33.2075 0.297835C33.6263 0.258344 33.995 0.565906 34.0299 0.984646C34.0703 1.39858 33.7629 1.76609 33.3489 1.80647C33.3239 1.80647 33.2983 1.80647 33.278 1.80647C32.8897 1.80665 32.5614 1.51403 32.5266 1.12073ZM38.2986 1.70615C37.8852 1.68551 37.562 1.33259 37.5821 0.913849C37.6072 0.49493 37.9604 0.171714 38.3794 0.197329C38.7981 0.217964 39.116 0.570886 39.0959 0.989627C39.0756 1.39378 38.7426 1.71095 38.339 1.71095C38.3292 1.71113 38.3139 1.71113 38.2986 1.70615ZM35.8212 1.66577C35.4028 1.67573 35.0593 1.34255 35.0495 0.928612C35.044 0.510761 35.3722 0.161929 35.7911 0.156948C36.21 0.147165 36.553 0.480165 36.5633 0.899083C36.5731 1.318 36.2401 1.66097 35.8212 1.67075C35.4028 1.67573 35.8212 1.67075 35.8212 1.66577Z" fill="#231F20"/>
<path d="M69.4897 36C69.4897 54.2113 54.7262 68.9748 36.5149 68.9748C18.3035 68.9748 3.53998 54.2113 3.53998 36C3.53998 17.7886 18.3035 3.02563 36.5149 3.02563C54.7262 3.02563 69.4897 17.7886 69.4897 36Z" fill="url(#paint0_linear_154_4743)"/>
<path d="M69.4897 36C69.4897 54.2113 54.7262 68.9748 36.5149 68.9748C18.3035 68.9748 3.53998 54.2113 3.53998 36C3.53998 17.7886 18.3035 3.02563 36.5149 3.02563C54.7262 3.02563 69.4897 17.7886 69.4897 36Z" fill="url(#paint1_radial_154_4743)"/>
<path d="M52.9166 35.9999C52.9166 45.0587 45.573 52.4018 36.5148 52.4018C27.4565 52.4018 20.1129 45.0587 20.1129 35.9999C20.1129 26.942 27.4565 19.5984 36.5148 19.5984C45.573 19.5984 52.9166 26.942 52.9166 35.9999Z" fill="white"/>
<path fill-rule="evenodd" clip-rule="evenodd" d="M32.878 41.5551C32.878 41.3073 32.878 41.0337 32.878 40.7592C32.878 39.2618 32.8798 37.7647 32.878 36.2667C32.8773 36.181 32.9043 36.1228 32.9707 36.0661C33.4195 35.6688 33.7697 35.1905 34.0604 34.6706C34.2319 34.3635 34.3898 34.0472 34.5314 33.7249C34.7196 33.2932 34.9744 32.9059 35.2832 32.5546C35.581 32.2141 35.8974 31.8874 36.2181 31.5681C36.5066 31.2827 36.6831 30.9359 36.8405 30.5732C37.0544 30.0779 37.0992 29.5512 37.1412 29.0229C37.1561 28.818 37.188 28.6129 37.2195 28.4094C37.2502 28.2098 37.3543 28.1118 37.5603 28.0886C37.8869 28.0497 38.1551 28.1803 38.3889 28.3921C38.9995 28.9508 39.2361 29.6635 39.154 30.4646C39.1202 30.8121 38.9734 31.152 38.8453 31.4827C38.6808 31.9016 38.4917 32.3106 38.3001 32.7185C38.2065 32.9175 38.0749 33.0979 37.9698 33.293C37.8725 33.4714 37.7933 33.6566 37.7906 33.8676C37.7906 33.9523 37.8187 34.011 37.8963 34.0577C38.1361 34.2022 38.3736 34.2671 38.6646 34.2273C39.15 34.1602 39.6437 34.1469 40.1343 34.1159C40.6994 34.0794 41.2658 34.0528 41.83 34.012C42.0698 33.9948 42.2491 34.0875 42.3866 34.2673C42.7387 34.7314 42.9048 35.2385 42.7148 35.817C42.6458 36.0241 42.5684 36.227 42.501 36.433C42.4889 36.4675 42.4909 36.5282 42.5112 36.5474C42.748 36.7534 42.7701 37.0057 42.7056 37.296C42.6173 37.6907 42.503 38.071 42.2798 38.414C42.26 38.4435 42.2674 38.5056 42.2847 38.5436C42.4082 38.8073 42.4692 39.0737 42.4254 39.371C42.3713 39.7376 42.1684 39.9859 41.8768 40.1821C41.8021 40.2319 41.724 40.2754 41.6426 40.323C41.8044 40.6635 41.7678 41.0139 41.6443 41.3421C41.4946 41.7422 41.2855 42.1207 40.9515 42.4055C40.7862 42.5455 40.5888 42.6204 40.3716 42.6213C39.493 42.6243 38.6153 42.6361 37.7366 42.6154C37.1191 42.6017 36.5202 42.4434 35.9308 42.2607C35.2792 42.0622 34.6333 41.8429 33.9796 41.6458C33.7767 41.5846 33.5623 41.5551 33.3499 41.5355C33.2001 41.5205 33.0474 41.5456 32.878 41.5551Z" fill="url(#paint2_linear_154_4743)"/>
<path fill-rule="evenodd" clip-rule="evenodd" d="M31.3233 35.726C30.7539 35.7102 30.146 35.7191 29.575 35.7561C29.4949 37.0235 29.5531 38.2957 29.5868 39.5665C29.609 40.3869 29.6113 41.2079 29.6093 42.0299C30.1142 42.0279 30.7578 42.0279 31.3231 42.0279L31.3233 35.726Z" fill="url(#paint3_linear_154_4743)"/>
<path fill-rule="evenodd" clip-rule="evenodd" d="M32.4327 35.921C32.4327 35.8238 32.4069 35.7915 32.3085 35.7865C32.1251 35.7776 32.144 35.7505 31.9606 35.7411C31.8677 35.7361 31.7725 35.7331 31.6777 35.7297V42.0276C32.0054 42.0295 32.0993 42.0295 32.3099 42.0315C32.4154 42.0331 32.4325 41.9956 32.4325 41.9014C32.4293 40.9071 32.4298 39.9113 32.4298 38.9169C32.43 37.9183 32.4295 36.9198 32.4327 35.921Z" fill="url(#paint4_linear_154_4743)"/>
<path d="M16.0918 24.1041C15.9075 24.0045 15.7311 23.9933 15.5621 24.0696C15.3931 24.1465 15.1624 24.3244 14.8703 24.6033C14.578 24.8827 14.3258 25.0921 14.1129 25.2316C13.5319 25.6124 12.9957 25.6697 12.5035 25.4041C12.2477 25.2657 12.0586 25.0706 11.9359 24.8182C11.8132 24.5654 11.7683 24.2737 11.8019 23.943C11.835 23.6123 11.942 23.2787 12.1238 22.9427C12.3066 22.6047 12.5302 22.3367 12.7958 22.1385C13.0608 21.94 13.3447 21.8277 13.6473 21.8021C13.9494 21.7765 14.2425 21.8404 14.5268 21.9941L13.9996 22.9692C13.7827 22.8524 13.5772 22.8292 13.3832 22.9007C13.1891 22.9726 13.0255 23.1318 12.8919 23.3793C12.7633 23.6173 12.7134 23.8302 12.7426 24.017C12.7721 24.2038 12.8693 24.3413 13.0338 24.4304C13.1875 24.5136 13.3586 24.5058 13.5463 24.4067C13.734 24.3082 13.9547 24.1328 14.2091 23.8805C14.6757 23.4159 15.101 23.1236 15.4854 23.0034C15.8693 22.8831 16.2457 22.9226 16.6143 23.1217C17.0238 23.3435 17.2612 23.6721 17.3269 24.1077C17.3923 24.5439 17.2835 25.0238 17.0003 25.5486C16.8037 25.9127 16.5577 26.2083 16.2626 26.4355C15.968 26.6627 15.6619 26.7918 15.3451 26.8238C15.0283 26.8558 14.7168 26.7888 14.4114 26.6237L14.94 25.6452C15.4623 25.9275 15.8924 25.7565 16.2295 25.1321C16.3551 24.9 16.4054 24.6936 16.3818 24.5127C16.3574 24.3313 16.2608 24.1954 16.0918 24.1041Z" fill="white"/>
<path d="M19.5228 20.0834L18.2393 21.5432L18.8277 22.553L18.0491 23.438L15.331 18.3806L16.0094 17.6089L21.3805 19.6496L20.6019 20.5351L19.5228 20.0834ZM17.7621 20.7253L18.6507 19.715L16.6914 18.8929L17.7621 20.7253Z" fill="white"/>
<path d="M22.1143 13.5611L20.7948 14.5493L23.4823 18.1372L22.5954 18.802L19.9078 15.214L18.6059 16.189L18.0678 15.47L21.5757 12.8423L22.1143 13.5611Z" fill="white"/>
<path d="M26.6004 16.2865L25.6158 16.7965L23.1411 12.0185L24.1251 11.5085L26.6004 16.2865Z" fill="white"/>
<path d="M29.8755 13.5278C29.8109 13.3284 29.6912 13.1983 29.5164 13.1373C29.341 13.0763 29.0512 13.0457 28.6476 13.0457C28.2436 13.0457 27.9163 13.0231 27.6655 12.9772C26.9826 12.8513 26.5547 12.5224 26.3827 11.9901C26.293 11.7137 26.2911 11.4417 26.3768 11.1744C26.462 10.907 26.631 10.6653 26.884 10.4488C27.1362 10.2325 27.4438 10.0654 27.8074 9.94767C28.1729 9.82938 28.5198 9.79024 28.8491 9.82991C29.1778 9.86976 29.4607 9.98485 29.6971 10.1748C29.9331 10.365 30.1011 10.6138 30.2007 10.9209L29.1456 11.2624C29.0696 11.0281 28.9371 10.8696 28.747 10.7875C28.5573 10.7051 28.3291 10.7074 28.0616 10.7939C27.8038 10.8775 27.6212 10.9968 27.5137 11.1521C27.4057 11.3074 27.3807 11.4741 27.4383 11.6523C27.4925 11.8188 27.6212 11.9309 27.8255 11.9894C28.0296 12.0476 28.3105 12.0732 28.6677 12.0661C29.3266 12.0522 29.836 12.1346 30.1968 12.313C30.5575 12.4914 30.8023 12.78 30.9314 13.1782C31.0748 13.6212 31.0202 14.023 30.7663 14.3836C30.5125 14.7443 30.1027 15.0163 29.535 15.2001C29.1414 15.3274 28.7594 15.3716 28.3894 15.3321C28.0192 15.2926 27.7085 15.1752 27.4577 14.9793C27.2063 14.7836 27.027 14.5206 26.9201 14.1899L27.9785 13.8471C28.1614 14.412 28.5904 14.5853 29.2655 14.3667C29.5163 14.2854 29.6953 14.171 29.8031 14.0235C29.9103 13.8755 29.9345 13.7105 29.8755 13.5278Z" fill="white"/>
<path d="M35.2153 11.8647L33.0985 12.0906L33.332 14.277L32.2297 14.3947L31.6585 9.04414L35.1419 8.67236L35.2374 9.56517L32.8558 9.81936L33.0037 11.201L35.12 10.9751L35.2153 11.8647Z" fill="white"/>
<path d="M38.9025 13.1334L36.9644 12.9857L36.5115 14.0632L35.3362 13.9737L37.7414 8.76025L38.7658 8.83817L40.3663 14.3565L39.1906 14.2669L38.9025 13.1334ZM37.331 12.113L38.6723 12.215L38.1509 10.1552L37.331 12.113Z" fill="white"/>
<path d="M45.4377 14.0787C45.2228 14.6182 44.8818 14.9884 44.4138 15.1894C43.9461 15.3902 43.4114 15.3956 42.8098 15.2054C42.152 14.9975 41.7051 14.6127 41.4674 14.0506C41.2305 13.4886 41.2345 12.8212 41.4789 12.048L41.5779 11.7345C41.7336 11.2411 41.9579 10.8341 42.251 10.513C42.5433 10.1923 42.8832 9.98235 43.2696 9.88345C43.656 9.7849 44.063 9.80305 44.4908 9.93806C45.0826 10.1254 45.5099 10.4345 45.771 10.8661C46.0327 11.2975 46.1012 11.8087 45.976 12.3998L44.919 12.0657C44.9978 11.7262 44.9816 11.457 44.8702 11.2576C44.7589 11.0584 44.5411 10.9075 44.2168 10.8051C43.8645 10.6935 43.561 10.7366 43.3057 10.9337C43.051 11.1308 42.8376 11.4942 42.6647 12.0236L42.5424 12.4112C42.367 12.9658 42.3227 13.3974 42.4099 13.7067C42.4971 14.0161 42.7214 14.2276 43.083 14.342C43.4098 14.4451 43.6768 14.4476 43.8853 14.3494C44.0932 14.2511 44.2583 14.0495 44.3805 13.7446L45.4377 14.0787Z" fill="white"/>
<path d="M51.2957 14.2762L49.8707 13.4478L47.6183 17.3239L46.6599 16.7668L48.9123 12.891L47.5059 12.074L47.9572 11.2974L51.747 13.4996L51.2957 14.2762Z" fill="white"/>
<path d="M50.5357 19.467L49.6813 18.7606L53.1093 14.613L53.9637 15.3194L50.5357 19.467Z" fill="white"/>
<path d="M56.3003 21.9119C55.8967 22.2551 55.4818 22.4842 55.0565 22.6C54.6312 22.7152 54.2228 22.7108 53.832 22.5852C53.4411 22.46 53.0998 22.2255 52.8075 21.8815C52.5193 21.5417 52.3434 21.1689 52.2803 20.7637C52.2168 20.3581 52.2747 19.9536 52.4537 19.5494C52.6326 19.1455 52.9183 18.7747 53.3111 18.438L53.5137 18.2658C53.9177 17.9229 54.3347 17.6937 54.7653 17.5785C55.196 17.4634 55.6065 17.4689 55.9963 17.595C56.3866 17.7211 56.7265 17.955 57.0168 18.2969C57.3071 18.6387 57.4829 19.0122 57.5446 19.4174C57.6058 19.8227 57.5451 20.2286 57.3614 20.6349C57.178 21.0412 56.8853 21.4149 56.4837 21.7564L56.3003 21.9119ZM55.7588 20.8976C56.1889 20.5324 56.45 20.1779 56.5433 19.8342C56.6359 19.4902 56.5611 19.1757 56.3186 18.8904C56.0777 18.6068 55.7814 18.4816 55.4301 18.5152C55.0782 18.5486 54.689 18.7454 54.2612 19.1056L54.0611 19.2757C53.6423 19.6314 53.3826 19.9842 53.2825 20.3344C53.1825 20.6845 53.2549 21.0043 53.5007 21.2936C53.7412 21.577 54.0378 21.7004 54.3891 21.6634C54.741 21.6268 55.1307 21.4281 55.5589 21.0679L55.7588 20.8976Z" fill="white"/>
<path d="M56.7647 28.2393L56.2719 27.2458L58.4848 23.7393L55.3129 25.3122L54.8202 24.3192L59.6409 21.9285L60.1336 22.9214L57.9158 26.4348L61.0946 24.8584L61.5853 25.8483L56.7647 28.2393Z" fill="white"/>
<path d="M15.6821 52.6399C15.3722 52.6109 15.0592 52.4837 14.7444 52.2585C14.429 52.0327 14.1453 51.7376 13.8939 51.3721C13.6298 50.9887 13.4814 50.5951 13.45 50.1904C13.4179 49.7859 13.5071 49.3951 13.7175 49.0187C13.9279 48.6423 14.2467 48.3037 14.674 48.0031L14.9755 47.7957C15.4175 47.4912 15.8521 47.3019 16.2783 47.2281C16.7045 47.1543 17.1003 47.1991 17.4653 47.3617C17.8305 47.5248 18.1429 47.7948 18.4026 48.1723C18.7648 48.6981 18.9224 49.1953 18.8761 49.6639C18.8293 50.1324 18.5855 50.5591 18.1443 50.9441L17.5324 50.0552C17.7581 49.8403 17.8818 49.6226 17.904 49.4024C17.9257 49.1827 17.8528 48.9505 17.6852 48.707C17.4714 48.3966 17.1919 48.241 16.8465 48.2388C16.5016 48.2374 16.098 48.3941 15.6358 48.7093L15.353 48.9045C14.8883 49.2243 14.598 49.5545 14.4822 49.8944C14.3664 50.2343 14.426 50.575 14.6606 50.9158C14.8972 51.2588 15.1386 51.4528 15.385 51.4982L16.1492 50.972L15.5766 50.1413L16.2492 49.6781L17.4504 51.4219L15.6821 52.6399Z" fill="white"/>
<path d="M23.1165 53.3221L20.73 55.9421C20.3333 56.3778 19.8834 56.598 19.3809 56.603C18.8778 56.6083 18.3904 56.3961 17.9189 55.9663C17.4542 55.5429 17.1975 55.0844 17.1483 54.5895C17.099 54.0948 17.2674 53.6296 17.6538 53.1951L20.0679 50.5449L20.8872 51.2915L18.4954 53.9169C18.2583 54.1775 18.1474 54.4244 18.1636 54.6571C18.18 54.8901 18.2981 55.107 18.5185 55.308C18.9792 55.7272 19.4341 55.6982 19.8823 55.2208L22.2939 52.5732L23.1165 53.3221Z" fill="white"/>
<path d="M24.2882 58.9893L22.5946 58.0347L21.7283 58.8187L20.7014 58.2396L25.0895 54.5366L25.9844 55.0416L25.0955 60.7178L24.0686 60.1382L24.2882 58.9893ZM23.2969 57.3995L24.4686 58.0603L24.8689 55.9739L23.2969 57.3995Z" fill="white"/>
<path d="M29.1169 59.9744L28.2693 59.7256L27.7134 61.6153L26.65 61.3024L28.1683 56.1401L30.086 56.7044C30.696 56.8837 31.1263 57.1576 31.3775 57.5268C31.6283 57.8959 31.681 58.3285 31.5347 58.8251C31.4312 59.1775 31.2686 59.4484 31.047 59.6386C30.8257 59.8293 30.5394 59.9485 30.1885 59.9969L30.6851 62.4349L30.6704 62.4848L29.5287 62.1487L29.1169 59.9744ZM28.5228 58.8637L29.3813 59.116C29.6483 59.1948 29.8751 59.1875 30.0613 59.0948C30.2481 59.0021 30.3762 58.8362 30.4466 58.5976C30.5181 58.3543 30.5053 58.1422 30.4082 57.962C30.3107 57.7822 30.1195 57.6502 29.8331 57.5659L28.9787 57.3145L28.5228 58.8637Z" fill="white"/>
<path d="M35.5319 61.8443L33.5914 61.7279L33.1563 62.8125L31.9796 62.7421L34.2999 57.4907L35.3257 57.5517L37.0149 63.0436L35.8382 62.9731L35.5319 61.8443ZM33.9438 60.8494L35.2866 60.9298L34.7318 58.8789L33.9438 60.8494Z" fill="white"/>
<path d="M42.9971 62.1517L41.905 62.3438L39.1653 59.2316L39.7791 62.7183L38.6873 62.9109L37.7539 57.6114L38.8454 57.4193L41.5905 60.538L40.9745 57.0443L42.063 56.8525L42.9971 62.1517Z" fill="white"/>
<path d="M46.9043 55.8393L45.3866 56.4813L47.1324 60.6096L46.1113 61.0417L44.365 56.9134L42.8675 57.5466L42.5176 56.7198L46.5544 55.012L46.9043 55.8393Z" fill="white"/>
<path d="M51.4477 55.34L49.6975 56.5512L50.5174 57.7363L52.5718 56.3147L53.0788 57.0468L50.1129 59.0991L47.0504 54.6751L50.0104 52.6262L50.5215 53.3648L48.4735 54.7825L49.2034 55.837L50.9536 54.6253L51.4477 55.34Z" fill="white"/>
<path d="M54.9334 51.9792L53.4512 53.5072L54.4859 54.511L56.2253 52.7174L56.8645 53.3378L54.3534 55.9268L50.4907 52.1809L52.9969 49.5969L53.6413 50.2222L51.9074 52.0099L52.8279 52.9027L54.31 51.3747L54.9334 51.9792Z" fill="white"/>
<path d="M57.9393 51.9725L53.3833 49.1097L54.2644 47.7078C54.5163 47.3072 54.8315 47.0056 55.2105 46.803C55.59 46.6004 56.0014 46.5147 56.4454 46.5469C56.89 46.5784 57.3235 46.7278 57.7468 46.9937L57.9567 47.1254C58.3799 47.3915 58.7017 47.7152 58.9221 48.0966C59.1423 48.478 59.2434 48.8841 59.2257 49.3151C59.208 49.7463 59.0749 50.1617 58.8266 50.5614L57.9393 51.9725ZM54.7338 48.6484L57.7751 50.5598L58.0604 50.1065C58.291 49.7394 58.3472 49.3833 58.2294 49.0387C58.1111 48.6938 57.8303 48.3789 57.3868 48.0941L57.1458 47.9429C56.6826 47.6517 56.2711 47.5276 55.9119 47.5688C55.5523 47.6106 55.2566 47.8163 55.0245 48.1857L54.7338 48.6484Z" fill="white"/>
<path d="M12.7658 33.1475L13.8158 35.2748L16.1635 35.6167L14.4649 37.2724L14.8662 39.6097L12.7658 38.5068L10.6664 39.6097L11.0675 37.2724L9.36871 35.6167L11.7164 35.2748L12.7658 33.1475Z" fill="url(#paint5_linear_154_4743)"/>
<path d="M60.4489 33.1475L61.4991 35.2748L63.8468 35.6167L62.148 37.2724L62.5494 39.6097L60.4489 38.5068L58.3495 39.6097L58.7506 37.2724L57.052 35.6167L59.3997 35.2748L60.4489 33.1475Z" fill="url(#paint6_linear_154_4743)"/>
<defs>
<linearGradient id="paint0_linear_154_4743" x1="9.50125" y1="54.9152" x2="63.5285" y2="17.0849" gradientUnits="userSpaceOnUse">
<stop stop-color="#161A1F"/>
<stop offset="0.1398" stop-color="#2A323B"/>
<stop offset="0.2581" stop-color="#343F4A"/>
<stop offset="0.3602" stop-color="#2A323B"/>
<stop offset="0.4892" stop-color="#161A1F"/>
<stop offset="0.6129" stop-color="#2A323B"/>
<stop offset="0.7366" stop-color="#343F4A"/>
<stop offset="0.8387" stop-color="#2A323B"/>
<stop offset="1" stop-color="#161A1F"/>
</linearGradient>
<radialGradient id="paint1_radial_154_4743" cx="0" cy="0" r="1" gradientUnits="userSpaceOnUse" gradientTransform="translate(36.5148 36.0002) scale(32.9747 32.9747)">
<stop offset="0.5744" stop-color="#130C0E" stop-opacity="0"/>
<stop offset="0.7977" stop-color="#130C0E" stop-opacity="0.6512"/>
<stop offset="1" stop-color="#130C0E" stop-opacity="0.95"/>
</radialGradient>
<linearGradient id="paint2_linear_154_4743" x1="31.996" y1="40.2955" x2="41.9293" y2="33.3402" gradientUnits="userSpaceOnUse">
<stop stop-color="#161A1F"/>
<stop offset="0.1398" stop-color="#2A323B"/>
<stop offset="0.2581" stop-color="#343F4A"/>
<stop offset="0.3602" stop-color="#2A323B"/>
<stop offset="0.4892" stop-color="#161A1F"/>
<stop offset="0.6129" stop-color="#2A323B"/>
<stop offset="0.7366" stop-color="#343F4A"/>
<stop offset="0.8387" stop-color="#2A323B"/>
<stop offset="1" stop-color="#161A1F"/>
</linearGradient>
<linearGradient id="paint3_linear_154_4743" x1="28.4114" y1="40.3189" x2="32.5232" y2="37.4397" gradientUnits="userSpaceOnUse">
<stop stop-color="#161A1F"/>
<stop offset="0.1398" stop-color="#2A323B"/>
<stop offset="0.2581" stop-color="#343F4A"/>
<stop offset="0.3602" stop-color="#2A323B"/>
<stop offset="0.4892" stop-color="#161A1F"/>
<stop offset="0.6129" stop-color="#2A323B"/>
<stop offset="0.7366" stop-color="#343F4A"/>
<stop offset="0.8387" stop-color="#2A323B"/>
<stop offset="1" stop-color="#161A1F"/>
</linearGradient>
<linearGradient id="paint4_linear_154_4743" x1="30.3135" y1="40.0794" x2="33.7206" y2="37.6936" gradientUnits="userSpaceOnUse">
<stop stop-color="#161A1F"/>
<stop offset="0.1398" stop-color="#2A323B"/>
<stop offset="0.2581" stop-color="#343F4A"/>
<stop offset="0.3602" stop-color="#2A323B"/>
<stop offset="0.4892" stop-color="#161A1F"/>
<stop offset="0.6129" stop-color="#2A323B"/>
<stop offset="0.7366" stop-color="#343F4A"/>
<stop offset="0.8387" stop-color="#2A323B"/>
<stop offset="1" stop-color="#161A1F"/>
</linearGradient>
<linearGradient id="paint5_linear_154_4743" x1="9.36873" y1="36.3786" x2="16.1636" y2="36.3786" gradientUnits="userSpaceOnUse">
<stop offset="0.0215" stop-color="white"/>
<stop offset="0.1075" stop-color="#989697"/>
<stop offset="0.2849" stop-color="white"/>
<stop offset="0.6075" stop-color="#D7D6D7"/>
<stop offset="0.6989" stop-color="white"/>
<stop offset="0.8387" stop-color="#ACABAB"/>
<stop offset="0.8656" stop-color="#CECECE"/>
<stop offset="0.9892" stop-color="#D9D8D9"/>
</linearGradient>
<linearGradient id="paint6_linear_154_4743" x1="57.0519" y1="36.3786" x2="63.8468" y2="36.3786" gradientUnits="userSpaceOnUse">
<stop offset="0.0215" stop-color="white"/>
<stop offset="0.1075" stop-color="#989697"/>
<stop offset="0.2849" stop-color="white"/>
<stop offset="0.6075" stop-color="#D7D6D7"/>
<stop offset="0.6989" stop-color="white"/>
<stop offset="0.8387" stop-color="#ACABAB"/>
<stop offset="0.8656" stop-color="#CECECE"/>
<stop offset="0.9892" stop-color="#D9D8D9"/>
</linearGradient>
</defs>
</svg>
