<svg width="72" height="72" viewBox="0 0 72 72" fill="none" xmlns="http://www.w3.org/2000/svg">
<path d="M35.2052 71.8433C34.7864 71.8383 34.4538 71.4905 34.4635 71.0766C34.4685 70.6577 34.8118 70.3247 35.2308 70.3295C35.6491 70.3393 35.9822 70.6822 35.9724 71.1011C35.9676 71.5101 35.6289 71.8433 35.2155 71.8433C35.2155 71.8433 35.2107 71.8433 35.2052 71.8433ZM36.9968 71.0814C36.9712 70.6627 37.2944 70.3039 37.7078 70.2841C38.1267 70.2633 38.4848 70.5817 38.5051 71.0006C38.5302 71.4146 38.2075 71.7723 37.7886 71.7979C37.7886 71.7979 37.7886 71.7979 37.7934 71.7979C37.7786 71.7979 37.7633 71.7979 37.7535 71.7979C37.3495 71.7979 37.0166 71.4847 36.9968 71.0814ZM32.6215 71.7074C32.2032 71.672 31.8952 71.3032 31.9356 70.8845C31.9707 70.4705 32.3392 70.1631 32.7532 70.1985C33.1719 70.2389 33.4795 70.6016 33.4444 71.0206C33.409 71.4147 33.0759 71.7123 32.6875 71.7123C32.6674 71.7122 32.6418 71.7074 32.6215 71.7074ZM39.5247 70.9101C39.469 70.4912 39.7617 70.1128 40.1806 70.0625C40.5945 70.0112 40.9729 70.3039 41.0232 70.7178C41.0789 71.1317 40.7813 71.5101 40.3674 71.5654C40.3368 71.5654 40.3067 71.5704 40.2713 71.5704C39.8981 71.5704 39.5701 71.2884 39.5247 70.9101ZM30.0534 71.389C30.0534 71.389 30.0534 71.389 30.0534 71.384C29.64 71.318 29.3622 70.9297 29.4282 70.5157C29.4938 70.1077 29.8819 69.8248 30.2959 69.891C30.7093 69.9561 30.9873 70.3492 30.9217 70.7582C30.861 71.1317 30.5378 71.3987 30.1747 71.3939C30.1342 71.3939 30.0938 71.3939 30.0534 71.389ZM42.0324 70.5513C41.9466 70.1432 42.2142 69.7441 42.6228 69.6633C43.0367 69.5825 43.4353 69.8446 43.5161 70.2537C43.5965 70.6676 43.3293 71.0657 42.9204 71.1465C42.8702 71.1574 42.8193 71.1623 42.774 71.1623C42.421 71.1623 42.1028 70.9149 42.0324 70.5513ZM27.5157 70.8795C27.1068 70.784 26.8593 70.3748 26.9554 69.9659C27.0511 69.5628 27.4601 69.3106 27.8635 69.4061C28.2725 69.5018 28.5249 69.9107 28.4286 70.3197C28.3429 70.6676 28.035 70.9001 27.692 70.9001C27.6315 70.9001 27.5758 70.8943 27.5157 70.8795ZM44.5099 70.0221C44.3936 69.6179 44.6311 69.1992 45.0347 69.0878C45.4383 68.9774 45.8523 69.209 45.9681 69.6131C46.0794 70.0173 45.8419 70.4351 45.4383 70.5465C45.3727 70.5671 45.3022 70.5721 45.2363 70.5721C44.9036 70.5719 44.6007 70.3551 44.5099 70.0221ZM25.0228 70.1936C24.6242 70.0675 24.402 69.6387 24.5282 69.2396C24.6543 68.8415 25.0785 68.6236 25.4772 68.7499C25.8758 68.876 26.0976 69.2999 25.9713 69.6989C25.8703 70.0221 25.5677 70.2291 25.25 70.2291C25.1741 70.229 25.0986 70.2133 25.0228 70.1936ZM46.9366 69.3056C46.7958 68.9114 47.0023 68.4777 47.396 68.3368C47.7896 68.1949 48.2238 68.4019 48.3647 68.795C48.5061 69.1892 48.2991 69.6229 47.9054 69.7649C47.8197 69.7944 47.7339 69.8102 47.6532 69.8102C47.3408 69.8044 47.048 69.6131 46.9366 69.3056ZM22.5807 69.3203C22.1918 69.1686 22.0002 68.7251 22.1569 68.3368C22.3131 67.9476 22.7521 67.7613 23.1405 67.912C23.5293 68.0687 23.7159 68.5083 23.5647 68.8966C23.4436 69.1942 23.1607 69.3757 22.8582 69.3757C22.7674 69.3757 22.6714 69.3607 22.5807 69.3203ZM49.3084 68.4167C49.1419 68.0333 49.3134 67.5899 49.6972 67.4184C50.0756 67.2519 50.5246 67.4234 50.6961 67.8067C50.8626 68.1901 50.6913 68.6346 50.3078 68.8061C50.2067 68.8464 50.1057 68.8712 49.9998 68.8712C49.712 68.871 49.4345 68.6995 49.3084 68.4167ZM20.2091 68.2758C19.8307 68.0945 19.6744 67.64 19.8558 67.2667C20.0426 66.8883 20.4914 66.7316 20.8699 66.9139C21.2435 67.0952 21.4002 67.5495 21.2182 67.928C21.0871 68.195 20.8196 68.3518 20.5373 68.3518C20.4259 68.3516 20.315 68.326 20.2091 68.2758ZM51.6095 67.3622C51.4124 66.9947 51.5538 66.5354 51.9219 66.3383C52.2904 66.1412 52.7498 66.2831 52.9463 66.6506C53.1434 67.0192 53.002 67.4785 52.6334 67.6756C52.5176 67.7357 52.3963 67.7614 52.2801 67.7614C52.0082 67.7614 51.7456 67.6144 51.6095 67.3622ZM17.9183 67.0646C17.56 66.8527 17.4339 66.3934 17.6458 66.0307C17.8528 65.6671 18.3169 65.541 18.6752 65.7529C19.0384 65.9597 19.1646 66.424 18.9527 66.7876C18.8166 67.029 18.5594 67.166 18.2968 67.166C18.1706 67.166 18.0394 67.1306 17.9183 67.0646ZM53.8295 66.1412C53.6077 65.7884 53.7137 65.3194 54.0665 65.0975C54.4197 64.8748 54.8893 64.9812 55.1112 65.3339C55.3335 65.6877 55.2275 66.1568 54.8692 66.3786C54.7481 66.4594 54.6067 66.495 54.4706 66.495C54.2182 66.495 53.9709 66.3687 53.8295 66.1412ZM15.7284 65.6878C15.3801 65.4551 15.2893 64.9812 15.5263 64.6382C15.7584 64.2894 16.2328 64.1987 16.5758 64.4361C16.9241 64.6678 17.01 65.1427 16.7779 65.4857C16.6315 65.7025 16.3945 65.8187 16.1521 65.8187C16.0059 65.8188 15.8547 65.7785 15.7284 65.6878ZM55.9538 64.7585C55.7064 64.4264 55.7773 63.9514 56.1155 63.704C56.4535 63.4576 56.9281 63.5275 57.175 63.8657C57.4224 64.2037 57.3465 64.6788 57.0138 64.9252C56.8774 65.0217 56.7212 65.0719 56.5645 65.0719C56.3322 65.0719 56.1 64.9654 55.9538 64.7585ZM13.6396 64.1583C13.3114 63.9011 13.2508 63.422 13.5135 63.094C13.7707 62.7658 14.2501 62.7107 14.578 62.9679C14.9062 63.2301 14.9613 63.704 14.6991 64.0322C14.5527 64.2243 14.3305 64.32 14.1039 64.32C13.9422 64.3198 13.7757 64.2697 13.6396 64.1583ZM57.9721 63.2349C57.7045 62.9175 57.74 62.4376 58.0578 62.1656C58.3811 61.8976 58.8551 61.9331 59.1276 62.2564C59.4001 62.5748 59.3598 63.0486 59.0419 63.3206C58.9005 63.4418 58.724 63.503 58.5525 63.503C58.3352 63.503 58.1233 63.4112 57.9721 63.2349ZM11.6665 62.4828C11.3536 62.2009 11.3336 61.7211 11.6159 61.4135C11.8987 61.106 12.3781 61.0853 12.6856 61.3682C12.9936 61.6451 13.0138 62.1251 12.731 62.4325C12.5846 62.599 12.3783 62.6797 12.1762 62.6797C11.9942 62.6799 11.8076 62.6139 11.6665 62.4828ZM59.8795 61.5654C59.5867 61.2668 59.5917 60.7879 59.8895 60.4951C60.1876 60.2023 60.6665 60.2073 60.9593 60.5049C61.2521 60.8025 61.2471 61.2824 60.9493 61.5752C60.803 61.7211 60.6114 61.7921 60.4196 61.7921C60.2225 61.7921 60.0259 61.7161 59.8795 61.5654ZM9.81495 60.6716C9.52713 60.369 9.54242 59.89 9.845 59.6023C10.1476 59.3145 10.627 59.3245 10.9148 59.627C11.2026 59.9305 11.1923 60.4095 10.8848 60.6974C10.7384 60.8383 10.5517 60.9043 10.365 60.9043C10.1677 60.9041 9.96615 60.8281 9.81495 60.6716ZM61.6609 59.7638C61.348 59.486 61.3174 59.0069 61.5952 58.6937C61.8727 58.3813 62.3521 58.3507 62.6645 58.6286C62.9774 58.9055 63.008 59.3805 62.7305 59.6978C62.7305 59.6978 62.7305 59.6978 62.7305 59.6929C62.5788 59.8643 62.3719 59.9501 62.1598 59.9501C61.9836 59.9501 61.8071 59.8899 61.6609 59.7638ZM8.10404 58.7291C7.84184 58.4059 7.8872 57.9318 8.20988 57.6648C8.5331 57.4026 9.00717 57.4479 9.27471 57.7703C9.54225 58.0935 9.49154 58.5725 9.16868 58.8356C9.02726 58.9509 8.86077 59.0071 8.68929 59.0071C8.47263 59.0069 8.25524 58.9103 8.10404 58.7291ZM63.3106 57.8361C62.9776 57.5839 62.9119 57.1098 63.1642 56.7766C63.4214 56.4436 63.896 56.3774 64.229 56.6347C64.5567 56.8869 64.6227 57.362 64.3704 57.6941C64.224 57.8912 63.9969 57.9928 63.7697 57.9928C63.6082 57.9928 63.447 57.9416 63.3106 57.8361ZM6.53511 56.6752C6.29265 56.3323 6.3734 55.8582 6.71636 55.6207C7.05985 55.3783 7.52895 55.459 7.77088 55.7972C8.01333 56.1412 7.93239 56.6151 7.58943 56.8517C7.45833 56.9483 7.30658 56.9936 7.15538 56.9936C6.91844 56.9936 6.68133 56.8823 6.53511 56.6752ZM64.8194 55.7972C64.4661 55.5705 64.3704 55.1015 64.5971 54.7477C64.8242 54.3997 65.2933 54.3042 65.6466 54.5308C65.9949 54.7585 66.0906 55.2276 65.8639 55.5803C65.7175 55.8022 65.4751 55.9233 65.2278 55.9233C65.087 55.9233 64.9455 55.8829 64.8194 55.7972ZM5.1218 54.5111C4.90496 54.1523 5.01598 53.6882 5.37406 53.4713C5.73232 53.2545 6.19695 53.3708 6.41379 53.7286C6.63063 54.0824 6.51482 54.5515 6.15656 54.7633C6.03542 54.8393 5.8988 54.8736 5.7677 54.8736C5.51065 54.8738 5.26322 54.7427 5.1218 54.5111ZM66.1715 53.6526C65.8083 53.4516 65.6773 52.9923 65.8787 52.6287C66.0808 52.2601 66.5399 52.129 66.9081 52.3311C67.2717 52.5332 67.4028 52.9973 67.2009 53.36C67.0648 53.6074 66.8023 53.7492 66.5401 53.7492C66.414 53.7492 66.2878 53.7188 66.1715 53.6526ZM3.86577 52.2503C3.67401 51.8768 3.8204 51.4225 4.19342 51.2314C4.56698 51.0393 5.02131 51.191 5.21289 51.5596C5.39967 51.9321 5.25326 52.3914 4.87971 52.5785C4.76888 52.6337 4.65255 52.6643 4.53675 52.6643C4.26441 52.6641 3.99687 52.5125 3.86577 52.2503ZM67.3674 51.4225C66.9891 51.246 66.8224 50.7917 66.9994 50.4133C67.1758 50.035 67.6246 49.8683 68.0085 50.0458C68.3869 50.2223 68.548 50.6707 68.3766 51.0491C68.2455 51.3269 67.9729 51.4886 67.6853 51.4886C67.5793 51.4885 67.4734 51.4678 67.3674 51.4225ZM2.77586 49.9037C2.60936 49.5203 2.79116 49.0769 3.17949 48.9104C3.56283 48.7487 4.00682 48.9301 4.16852 49.3135C4.33021 49.7018 4.14825 50.1461 3.76491 50.3078C3.66885 50.3482 3.56835 50.368 3.47211 50.368C3.17451 50.368 2.897 50.1915 2.77586 49.9037ZM68.4018 49.1016C68.0135 48.9557 67.8116 48.5162 67.9628 48.1279C68.1092 47.7346 68.5432 47.5375 68.9369 47.6894C69.3302 47.8352 69.5271 48.2689 69.3759 48.6629C69.2646 48.9655 68.9773 49.1518 68.6694 49.1518C68.5786 49.1518 68.4874 49.137 68.4018 49.1016ZM1.85727 47.4873C1.72617 47.0881 1.93803 46.6594 2.33186 46.5283C2.7305 46.3922 3.1592 46.6043 3.2903 47.0024C3.42673 47.3966 3.21489 47.8253 2.81625 47.9614C2.73549 47.987 2.65454 48.0017 2.57378 48.0017C2.26089 48.0017 1.96329 47.7997 1.85727 47.4873ZM69.2596 46.7195C68.8609 46.5993 68.6338 46.1804 68.7501 45.7764C68.8713 45.3783 69.2902 45.1506 69.6938 45.2669C70.0924 45.3881 70.3191 45.807 70.2033 46.2101C70.1072 46.5383 69.8046 46.7501 69.4764 46.7501C69.406 46.7501 69.3355 46.7403 69.2596 46.7195ZM1.12065 45.0047C1.01481 44.6007 1.25709 44.1868 1.66071 44.0813C2.06433 43.9798 2.47826 44.2222 2.5841 44.6264C2.69012 45.0294 2.44767 45.4434 2.03907 45.5498C1.97841 45.5645 1.91294 45.5745 1.85228 45.5745C1.5143 45.5745 1.20639 45.3477 1.12065 45.0047ZM69.946 44.2774C69.5371 44.1916 69.2799 43.7885 69.3706 43.3796C69.4618 42.9706 69.8605 42.7134 70.2689 42.7991C70.6779 42.8897 70.9351 43.2938 70.8493 43.7028C70.7734 44.0555 70.4557 44.298 70.1072 44.298C70.0569 44.2982 70.0012 44.2932 69.946 44.2774ZM0.560486 42.477C0.485063 42.068 0.757593 41.6738 1.17153 41.5989C1.57995 41.5232 1.97378 41.7952 2.04921 42.2089C2.12516 42.6179 1.85264 43.0112 1.44368 43.0869C1.39832 43.0967 1.34797 43.0967 1.30759 43.0967C0.944175 43.0967 0.626303 42.8445 0.560486 42.477ZM70.4507 41.795C70.0368 41.7348 69.7545 41.3515 69.8096 40.9376C69.8703 40.5286 70.2536 40.2408 70.6675 40.297C71.0815 40.3571 71.3688 40.7405 71.3086 41.1544C71.253 41.5328 70.9303 41.8058 70.5615 41.8058C70.526 41.8058 70.4911 41.8 70.4507 41.795ZM0.18728 39.9185C0.1469 39.5045 0.444514 39.1262 0.858452 39.0858C1.27737 39.0404 1.6502 39.338 1.69557 39.7569V39.752C1.74146 40.1709 1.43834 40.5443 1.02494 40.5896C0.99434 40.5896 0.969261 40.5946 0.938665 40.5946C0.560482 40.5946 0.23264 40.3068 0.18728 39.9185ZM70.7784 39.2829C70.3596 39.2573 70.0471 38.8937 70.0771 38.4748C70.1072 38.056 70.4708 37.7435 70.8842 37.7741C71.3031 37.8036 71.616 38.1674 71.5858 38.5861C71.5858 38.5861 71.5858 38.5861 71.5858 38.5811C71.5607 38.9792 71.2222 39.2877 70.8289 39.2877C70.8138 39.2879 70.7935 39.2879 70.7784 39.2829ZM0.000687563 37.3395C-0.0146105 36.9208 0.313589 36.5678 0.732508 36.5531C1.14591 36.5372 1.49919 36.8654 1.51449 37.2843C1.52979 37.6983 1.20158 38.051 0.787641 38.0669C0.777679 38.0669 0.767372 38.0669 0.757588 38.0669C0.353968 38.0667 0.0158078 37.7435 0.000687563 37.3395ZM70.1629 35.9972C70.1629 35.9824 70.1629 35.9726 70.1629 35.9577C70.1629 35.9419 70.1629 35.9321 70.1629 35.9173C70.1629 35.4984 70.5009 35.1604 70.9198 35.1545C71.3387 35.1545 71.6767 35.4925 71.6767 35.9114C71.6767 35.9273 71.6767 35.942 71.6767 35.9577C71.6767 35.9724 71.6767 35.9822 71.6767 35.9972C71.6767 36.4161 71.3387 36.7541 70.9198 36.7541C70.5058 36.7541 70.1629 36.4161 70.1629 35.9972ZM0.732313 35.5331C0.313394 35.5183 -0.0147842 35.1704 0.000513848 34.7514C0.0102975 34.3327 0.363754 34.0045 0.782495 34.0193C1.20141 34.0351 1.5241 34.3829 1.51432 34.8018C1.49902 35.2107 1.16103 35.5331 0.757414 35.5331C0.747097 35.5331 0.737293 35.5331 0.732313 35.5331ZM70.0722 33.4397C70.0416 33.0208 70.3545 32.6572 70.7684 32.6266C71.1873 32.5971 71.5504 32.9094 71.5804 33.3284C71.611 33.7423 71.2982 34.105 70.8792 34.1354C70.8639 34.1404 70.8438 34.1404 70.8235 34.1404C70.4304 34.1404 70.0972 33.8378 70.0722 33.4397ZM0.85311 33.0002C0.434191 32.9598 0.136586 32.5862 0.176965 32.1675C0.222326 31.7546 0.595881 31.451 1.01462 31.4963C1.42856 31.5426 1.73115 31.9151 1.68579 32.329C1.64541 32.7173 1.31721 33.005 0.933866 33.005C0.908784 33.0051 0.878725 33.0051 0.85311 33.0002ZM69.7996 30.9721C69.739 30.5631 70.0268 30.1748 70.4402 30.1147C70.8541 30.0535 71.2375 30.3413 71.2981 30.7553C71.3588 31.1692 71.071 31.5525 70.6576 31.6127C70.6222 31.6177 70.5816 31.6226 70.5462 31.6226C70.1782 31.6225 69.855 31.3505 69.7996 30.9721ZM1.15605 30.4872C0.74211 30.4123 0.46959 30.0181 0.545547 29.61C0.62097 29.1961 1.01463 28.9232 1.42359 28.999C1.837 29.07 2.10952 29.4633 2.03409 29.8771C1.9681 30.2406 1.65022 30.4979 1.29196 30.4979C1.24678 30.498 1.20141 30.4931 1.15605 30.4872ZM69.3503 28.5349C69.2596 28.1259 69.5168 27.7229 69.9258 27.6321C70.3344 27.5453 70.7378 27.8036 70.8291 28.2117C70.9198 28.6158 70.6626 29.0198 70.2536 29.1105C70.1985 29.1253 70.1428 29.1303 70.0871 29.1303C69.744 29.1301 69.4311 28.8877 69.3503 28.5349ZM1.64043 27.9997C1.23681 27.8942 0.99434 27.4852 1.09538 27.0812C1.2014 26.6732 1.60983 26.4307 2.01878 26.5312C2.42241 26.6378 2.66486 27.0515 2.56382 27.4546C2.47256 27.7976 2.16518 28.0253 1.8272 28.0253C1.76672 28.0254 1.70607 28.0155 1.64043 27.9997ZM68.7299 26.1381C68.6085 25.74 68.8357 25.3152 69.2345 25.1949C69.6381 25.0786 70.0569 25.3052 70.1782 25.7044C70.2993 26.1025 70.0722 26.5264 69.6687 26.6476C69.5977 26.6682 69.5273 26.6781 69.4515 26.6781C69.1285 26.6781 68.8256 26.4663 68.7299 26.1381ZM2.30678 25.5527C1.90814 25.4216 1.69574 24.9929 1.82737 24.5987C1.96345 24.2006 2.39252 23.9887 2.78583 24.1198C3.18447 24.2509 3.39632 24.6796 3.26522 25.0788C3.15937 25.3961 2.86161 25.5932 2.54391 25.5932C2.46795 25.5931 2.38701 25.5833 2.30678 25.5527ZM67.9326 23.7916C67.7814 23.4033 67.9779 22.9648 68.3716 22.8179C68.7599 22.6661 69.1989 22.8632 69.3453 23.2565C69.4965 23.6457 69.3 24.0794 68.9063 24.2312C68.8206 24.2657 68.7299 24.2815 68.6393 24.2815C68.3312 24.2813 68.0484 24.094 67.9326 23.7916ZM3.14924 23.1608C2.76038 22.9991 2.57859 22.5557 2.74029 22.1723C2.90199 21.7831 3.34598 21.6017 3.72932 21.7634C4.11818 21.9251 4.29945 22.3685 4.13829 22.7577C4.01715 23.0445 3.7343 23.2218 3.4367 23.2218C3.34099 23.2218 3.24494 23.2012 3.14924 23.1608ZM66.9688 21.5111C66.7923 21.1328 66.9535 20.6833 67.332 20.507C67.7159 20.3305 68.1647 20.4922 68.3412 20.8706C68.518 21.2489 68.3515 21.7032 67.9731 21.8797C67.8721 21.9251 67.7613 21.9496 67.6553 21.9496C67.3674 21.9496 67.0949 21.789 66.9688 21.5111ZM4.15857 20.835C3.78999 20.6477 3.63878 20.1944 3.82556 19.8209C4.01732 19.4473 4.47111 19.2956 4.84449 19.4877C5.21804 19.6739 5.36445 20.1283 5.17767 20.5018C5.04657 20.764 4.77903 20.9207 4.50153 20.9207C4.38519 20.9207 4.26939 20.8901 4.15857 20.835ZM65.8438 19.3064C65.637 18.9428 65.7679 18.4785 66.1311 18.2765C66.4997 18.0746 66.959 18.2055 67.1654 18.5693C67.1654 18.5693 67.1654 18.5693 67.1604 18.5693C67.3674 18.9329 67.2363 19.3971 66.8731 19.5982C66.7518 19.6642 66.6257 19.6947 66.5045 19.6947C66.237 19.6947 65.9799 19.5528 65.8438 19.3064ZM5.33918 18.5949C4.98093 18.3772 4.86476 17.9129 5.08196 17.5551C5.2988 17.1964 5.76291 17.0811 6.12117 17.2929C6.47943 17.5098 6.59559 17.9739 6.3784 18.3316C6.23698 18.5691 5.98473 18.7002 5.72733 18.7002C5.59641 18.7004 5.46032 18.665 5.33918 18.5949ZM64.5569 17.1866C64.3302 16.8386 64.4258 16.3695 64.774 16.1371C65.1273 15.9104 65.5964 16.006 65.8236 16.3589C66.0557 16.7077 65.9547 17.1768 65.6062 17.4036C65.4751 17.4893 65.3337 17.5297 65.1928 17.5297C64.9455 17.5295 64.7031 17.4084 64.5569 17.1866ZM6.67599 16.4396C6.33303 16.1982 6.25226 15.7231 6.49472 15.3851C6.73166 15.0422 7.20625 14.9614 7.54922 15.1989C7.89218 15.4413 7.97295 15.9154 7.73103 16.2534C7.58463 16.4653 7.35265 16.5766 7.11019 16.5766C6.96379 16.5766 6.80763 16.5312 6.67599 16.4396ZM63.1238 15.1633C62.8716 14.8351 62.937 14.3562 63.2652 14.1038C63.5982 13.8516 64.0723 13.9165 64.3247 14.2447C64.5825 14.5779 64.5165 15.0518 64.1886 15.309C64.0472 15.4106 63.8855 15.4607 63.7293 15.4607C63.4974 15.4611 63.275 15.3604 63.1238 15.1633ZM8.16471 14.3868C7.84185 14.1237 7.79666 13.6447 8.05868 13.3215C8.32622 12.9993 8.8003 12.9479 9.12351 13.216C9.4462 13.4782 9.49706 13.9571 9.23432 14.2803H9.22935C9.08295 14.4616 8.86611 14.5581 8.64393 14.5581C8.47743 14.5583 8.30613 14.5021 8.16471 14.3868ZM61.5495 13.2516C61.272 12.9381 61.3026 12.4591 61.6152 12.1813C61.9281 11.9034 62.4075 11.9338 62.685 12.2522C62.9628 12.5598 62.9324 13.0387 62.6193 13.3165C62.4729 13.4426 62.2967 13.5086 62.1147 13.5086C61.9078 13.5086 61.7013 13.4229 61.5495 13.2516ZM9.79964 12.4483C9.49706 12.1615 9.48176 11.6816 9.76904 11.379C10.0569 11.0764 10.5363 11.0608 10.8388 11.3484C11.142 11.6362 11.1567 12.1161 10.8694 12.4187C10.7182 12.5744 10.5212 12.6553 10.3196 12.6553C10.1327 12.6553 9.94586 12.5852 9.79964 12.4483ZM59.844 11.4549C59.5414 11.1623 59.5364 10.6824 59.8292 10.3846C60.1215 10.087 60.6009 10.082 60.8985 10.3748C61.1966 10.6675 61.2064 11.1465 60.9138 11.4452C60.7626 11.596 60.5658 11.6718 60.3689 11.6718C60.1771 11.6718 59.9904 11.6008 59.844 11.4549ZM11.5657 10.6321C11.2828 10.3245 11.3031 9.84562 11.611 9.56279C11.9239 9.27995 12.3985 9.30058 12.6808 9.60814C12.9631 9.91553 12.943 10.3955 12.6355 10.6774C12.4891 10.8085 12.3073 10.8795 12.126 10.8795C11.919 10.8793 11.7169 10.7936 11.5657 10.6321ZM58.0075 9.78443C57.6896 9.51743 57.6492 9.03731 57.9217 8.72015C58.1893 8.40173 58.6683 8.36135 58.9862 8.62942C59.3046 8.90141 59.3445 9.37547 59.0775 9.69869C58.9263 9.87515 58.7139 9.96569 58.497 9.96569C58.3254 9.96569 58.1489 9.90575 58.0075 9.78443ZM13.4578 8.94677C13.2006 8.61857 13.2558 8.14451 13.584 7.88249C13.9068 7.62527 14.3862 7.68041 14.6434 8.00861C14.906 8.3368 14.8505 8.81087 14.5228 9.06809C14.3814 9.17944 14.2197 9.23459 14.0532 9.23459C13.8314 9.23459 13.6091 9.13408 13.4578 8.94677ZM56.0596 8.25106C55.7217 8.00861 55.6462 7.53454 55.8931 7.19656C56.1406 6.85751 56.615 6.78262 56.953 7.03006C57.291 7.27643 57.3616 7.75139 57.1195 8.08954C56.9678 8.29162 56.7411 8.39711 56.5035 8.39711C56.3523 8.39693 56.1961 8.35157 56.0596 8.25106ZM15.4658 7.40255C15.2289 7.05461 15.3194 6.58553 15.6679 6.34805C16.0108 6.11645 16.4805 6.20219 16.7174 6.55013C16.9543 6.89807 16.8638 7.36804 16.5208 7.59965C16.3892 7.69037 16.238 7.73075 16.0916 7.73075C15.8497 7.73057 15.6122 7.62028 15.4658 7.40255ZM54.0063 6.86338C53.653 6.64067 53.5417 6.17159 53.7639 5.81867C53.986 5.46485 54.4551 5.35937 54.8086 5.58119C55.1619 5.79803 55.2727 6.26711 55.0505 6.62093C54.9041 6.85253 54.6572 6.97865 54.405 6.97865C54.2685 6.97865 54.1325 6.93827 54.0063 6.86338ZM17.5801 6.00491C17.3683 5.64718 17.4944 5.18308 17.8527 4.97105C18.2159 4.76399 18.68 4.8853 18.8869 5.24801C19.0988 5.6068 18.9776 6.07091 18.6144 6.28277C18.493 6.34787 18.3621 6.38327 18.236 6.38327C17.974 6.38345 17.7216 6.24737 17.5801 6.00491ZM51.8564 5.62655C51.4884 5.43052 51.3469 4.97122 51.5387 4.60265C51.7358 4.23407 52.1946 4.09318 52.5631 4.28441C52.9312 4.48151 53.0726 4.9408 52.881 5.30938C52.7449 5.5666 52.4824 5.71247 52.2099 5.71247C52.0886 5.71229 51.9678 5.68276 51.8564 5.62655ZM19.7854 4.76915C19.6036 4.39079 19.7603 3.93647 20.1387 3.75502C20.5117 3.57269 20.966 3.72941 21.1478 4.10297C21.3346 4.48133 21.1779 4.93565 20.7993 5.11709C20.6935 5.16743 20.5825 5.19305 20.4717 5.19305C20.1888 5.19287 19.9213 5.03615 19.7854 4.76915ZM49.6213 4.5475C49.2379 4.37495 49.0665 3.93148 49.233 3.54814C49.3991 3.1648 49.8484 2.99332 50.2318 3.15982C50.6151 3.32543 50.7866 3.77477 50.6206 4.15811C50.4945 4.44095 50.2165 4.60745 49.9294 4.60745C49.8234 4.60745 49.7223 4.58681 49.6213 4.5475ZM22.0812 3.69401C21.925 3.30071 22.1118 2.86133 22.4999 2.7055C22.8882 2.55377 23.3272 2.7409 23.484 3.12923C23.6401 3.51755 23.4534 3.95603 23.0652 4.11275C22.9692 4.14815 22.8735 4.16896 22.7824 4.16896C22.4796 4.16896 22.1973 3.98663 22.0812 3.69401ZM47.3152 3.63389C46.9219 3.49193 46.715 3.05843 46.8559 2.66513C46.9923 2.27093 47.4265 2.06405 47.8252 2.20583C47.8252 2.20583 47.8252 2.20583 47.8197 2.20583C48.2183 2.34671 48.4204 2.77541 48.2839 3.16961C48.1729 3.48197 47.8803 3.67426 47.5674 3.67426C47.4867 3.67426 47.4009 3.65843 47.3152 3.63389ZM24.4424 2.78626C24.3163 2.38709 24.5385 1.95839 24.9371 1.83227C25.3357 1.70615 25.7595 1.92797 25.8856 2.32697C26.0117 2.72027 25.7949 3.14879 25.3962 3.27509C25.3203 3.30071 25.2395 3.31049 25.1641 3.31049C24.8464 3.31067 24.5482 3.10361 24.4424 2.78626ZM44.9538 2.88677C44.5501 2.77541 44.3132 2.35667 44.424 1.95839C44.535 1.55423 44.9488 1.31782 45.3524 1.42811C45.756 1.53947 45.993 1.95341 45.8821 2.35649C45.7914 2.69448 45.4835 2.91719 45.1558 2.91719C45.0849 2.91736 45.0194 2.90758 44.9538 2.88677ZM26.8696 2.04911C26.7736 1.64602 27.0208 1.23707 27.4294 1.13549C27.8334 1.03997 28.242 1.29221 28.3431 1.69636C28.4386 2.10443 28.1919 2.51339 27.7829 2.60891C27.7223 2.62474 27.6621 2.62955 27.6064 2.62955C27.2635 2.62955 26.9506 2.39705 26.8696 2.04911ZM42.5418 2.31629C42.1284 2.23642 41.8657 1.83743 41.9466 1.42829C42.0274 1.02022 42.426 0.752328 42.8346 0.833088C43.2436 0.913847 43.5106 1.31302 43.4304 1.72109C43.3594 2.08469 43.0415 2.33212 42.6882 2.33212C42.6379 2.33195 42.5872 2.32714 42.5418 2.31629ZM29.3419 1.49429C29.2714 1.08035 29.5543 0.692027 29.9677 0.626032C30.3766 0.556123 30.765 0.837891 30.8354 1.24685C30.9014 1.66079 30.6235 2.04911 30.2101 2.12008C30.1698 2.12506 30.1294 2.12987 30.089 2.12987C29.7258 2.12987 29.4024 1.86785 29.3419 1.49429ZM40.0948 1.92299C39.6759 1.87265 39.3833 1.49429 39.4335 1.08035C39.4842 0.666412 39.8627 0.368811 40.2814 0.423955C40.6949 0.475186 40.9875 0.853545 40.9373 1.26748C40.8919 1.65082 40.5637 1.92779 40.1854 1.92779C40.1555 1.92797 40.1249 1.92797 40.0948 1.92299ZM31.8499 1.12073C31.8095 0.701987 32.1169 0.333411 32.5308 0.297835C32.9497 0.258344 33.3183 0.565906 33.3532 0.984646C33.3936 1.39858 33.0862 1.76609 32.6722 1.80647C32.6472 1.80647 32.6215 1.80647 32.6013 1.80647C32.2131 1.80665 31.8849 1.51403 31.8499 1.12073ZM37.6221 1.70615C37.2087 1.68551 36.8854 1.33259 36.9055 0.913849C36.9306 0.49493 37.2839 0.171714 37.7028 0.197329C38.1218 0.217964 38.4394 0.570886 38.4193 0.989627C38.3991 1.39378 38.0661 1.71095 37.6624 1.71095C37.6527 1.71113 37.6374 1.71113 37.6221 1.70615ZM35.1445 1.66577C34.7261 1.67573 34.3828 1.34255 34.3728 0.928612C34.3675 0.510761 34.6957 0.161929 35.1144 0.156948C35.5333 0.147165 35.8763 0.480165 35.8866 0.899083C35.8966 1.318 35.5634 1.66097 35.1445 1.67075C34.7263 1.67573 35.1445 1.67075 35.1445 1.66577Z" fill="#231F20"/>
<path d="M68.8134 36C68.8134 54.2113 54.0498 68.9748 35.8385 68.9748C17.6272 68.9748 2.86365 54.2113 2.86365 36C2.86365 17.7886 17.6272 3.02563 35.8385 3.02563C54.0498 3.02563 68.8134 17.7886 68.8134 36Z" fill="url(#paint0_linear_154_4710)"/>
<path d="M68.8134 36C68.8134 54.2113 54.0498 68.9748 35.8385 68.9748C17.6272 68.9748 2.86365 54.2113 2.86365 36C2.86365 17.7886 17.6272 3.02563 35.8385 3.02563C54.0498 3.02563 68.8134 17.7886 68.8134 36Z" fill="url(#paint1_radial_154_4710)"/>
<path d="M52.2404 35.9999C52.2404 45.0587 44.8968 52.4018 35.8386 52.4018C26.7803 52.4018 19.4367 45.0587 19.4367 35.9999C19.4367 26.942 26.7803 19.5984 35.8386 19.5984C44.8968 19.5984 52.2404 26.942 52.2404 35.9999Z" fill="white"/>
<path d="M40.9422 35.753C40.9422 35.684 40.9422 35.6146 40.9342 35.5456C40.8874 35.1203 40.6091 34.7108 40.1019 34.762C40.0685 34.765 40.0359 34.7547 39.9808 34.7503C39.9808 34.39 39.9788 34.0328 39.9822 33.6751C39.9897 32.5388 39.625 31.5355 38.8183 30.7334C37.6647 29.5818 36.2687 29.2394 34.7289 29.7335C33.2318 30.2121 32.3301 31.2947 32.0356 32.833C31.932 33.3761 31.9754 33.9471 31.9518 34.5069C31.9487 34.5854 31.9518 34.6656 31.9518 34.7631C31.8749 34.7631 31.8201 34.7631 31.763 34.762C31.4407 34.7531 31.2152 34.9128 31.1008 35.1976C31.0328 35.3691 30.9953 35.5662 30.9953 35.75C30.9873 37.6624 30.9908 39.5738 30.9908 41.4852C30.9908 41.5542 30.9908 41.6232 30.9967 41.6926C31.0405 42.1572 31.3397 42.4843 31.7364 42.4863C34.5558 42.4874 37.3735 42.4874 40.1916 42.4863C40.4335 42.4863 40.6228 42.3769 40.7612 42.1773C40.9045 41.9699 40.9435 41.7363 40.9421 41.488C40.9414 39.5768 40.9422 37.6644 40.9422 35.753ZM36.774 38.8717C36.7707 39.3427 36.7726 39.8148 36.7707 40.2853C36.7707 40.6475 36.6293 40.7875 36.269 40.7875C36.0483 40.7894 35.8295 40.7909 35.6112 40.7875C35.3259 40.7845 35.1697 40.6361 35.1624 40.3513C35.156 40.0759 35.1605 39.797 35.1605 39.522C35.1605 39.3594 35.156 39.1979 35.1605 39.0367C35.1633 38.9805 35.1624 38.9249 35.159 38.8717C34.7565 38.6086 34.4898 38.1543 34.4898 37.6359C34.4898 36.8203 35.151 36.1596 35.9666 36.1596C36.7822 36.1596 37.4429 36.8205 37.4429 37.6359C37.4427 38.1523 37.1771 38.607 36.774 38.8717ZM38.314 34.7522C36.7475 34.7522 35.1967 34.7522 33.6102 34.7522C33.6539 34.0722 33.5189 33.3932 33.7658 32.7384C34.1581 31.7031 35.2565 31.0478 36.3128 31.2271C37.4383 31.4183 38.2725 32.3445 38.3104 33.4656C38.3243 33.8909 38.314 34.3176 38.314 34.7522Z" fill="url(#paint2_linear_154_4710)"/>
<path d="M12.4061 40.197L13.5208 42.4549L16.0102 42.8162L14.2077 44.5723L14.6329 47.0532L12.4061 45.8815L10.1794 47.0532L10.6036 44.5723L8.80164 42.8162L11.2911 42.4549L12.4061 40.197Z" fill="url(#paint3_linear_154_4710)"/>
<path d="M10.6131 30.0356L11.7272 32.2919L14.2176 32.6552L12.4156 34.4113L12.8413 36.8908L10.6131 35.721L8.38581 36.8908L8.81167 34.4113L7.00916 32.6552L9.50008 32.2919L10.6131 30.0356Z" fill="url(#paint4_linear_154_4710)"/>
<path d="M13.9551 19.7378L15.0692 21.996L17.5601 22.3568L15.7566 24.1136L16.1824 26.594L13.9551 25.4232L11.7278 26.594L12.1521 24.1136L10.351 22.3568L12.8411 21.996L13.9551 19.7378Z" fill="url(#paint5_linear_154_4710)"/>
<path d="M59.2705 40.197L58.1559 42.4549L55.6664 42.8162L57.4685 44.5723L57.0432 47.0532L59.2705 45.8815L61.4973 47.0532L61.073 44.5723L62.875 42.8162L60.3851 42.4549L59.2705 40.197Z" fill="url(#paint6_linear_154_4710)"/>
<path d="M61.063 30.0356L59.9494 32.2919L57.4585 32.6552L59.2606 34.4113L58.8348 36.8908L61.063 35.721L63.2903 36.8908L62.8651 34.4113L64.6671 32.6552L62.1767 32.2919L61.063 30.0356Z" fill="url(#paint7_linear_154_4710)"/>
<path d="M57.7218 19.7378L56.6075 21.996L54.1166 22.3568L55.9197 24.1136L55.4945 26.594L57.7218 25.4232L59.9489 26.594L59.5241 24.1136L61.3252 22.3568L58.8359 21.996L57.7218 19.7378Z" fill="url(#paint8_linear_154_4710)"/>
<path d="M23.7252 14.491C23.6075 14.3024 23.4507 14.1993 23.2547 14.1818C23.0585 14.1644 22.7531 14.2073 22.3372 14.3115C21.9213 14.4152 21.5788 14.4766 21.3094 14.4937C20.5736 14.5403 20.0489 14.3124 19.7346 13.8088C19.5709 13.5477 19.499 13.268 19.5182 12.9712C19.5374 12.6736 19.6493 12.3813 19.8534 12.0935C20.0569 11.8055 20.3308 11.5545 20.6743 11.3401C21.0203 11.124 21.3675 10.994 21.716 10.9506C22.0648 10.9066 22.3858 10.9518 22.6778 11.087C22.9701 11.2215 23.2065 11.4339 23.3883 11.7242L22.3905 12.348C22.2521 12.1262 22.0746 11.9976 21.8583 11.9622C21.6415 11.9259 21.407 11.9871 21.1542 12.1454C20.9104 12.2971 20.7531 12.4674 20.6821 12.6549C20.6117 12.8424 20.6289 13.0202 20.7339 13.1887C20.8324 13.3461 20.9942 13.4285 21.2188 13.4358C21.444 13.4433 21.7397 13.3968 22.1058 13.2976C22.7798 13.1135 23.3259 13.0672 23.7432 13.1579C24.1605 13.2487 24.4867 13.4822 24.7223 13.8588C24.9839 14.2779 25.0307 14.7054 24.8628 15.1419C24.6947 15.5782 24.3425 15.9642 23.8063 16.2988C23.4338 16.5319 23.0514 16.6758 22.6608 16.7306C22.2696 16.785 21.9197 16.7444 21.6107 16.6071C21.3023 16.4709 21.05 16.2464 20.8543 15.9335L21.8556 15.3084C22.1892 15.8426 22.6755 15.91 23.3138 15.5112C23.5507 15.3628 23.706 15.199 23.7789 15.0197C23.8508 14.8402 23.833 14.6643 23.7252 14.491Z" fill="white"/>
<path d="M28.7485 11.2736L26.6262 12.0454L27.1484 13.4826L29.6393 12.5766L29.9626 13.4646L26.3665 14.7731L24.415 9.40828L28.0039 8.10278L28.329 8.9979L25.8461 9.90155L26.3113 11.1802L28.4336 10.408L28.7485 11.2736Z" fill="white"/>
<path d="M34.929 10.7854C34.9669 11.4003 34.8068 11.9101 34.4486 12.3145C34.0903 12.719 33.5803 12.9657 32.9166 13.0553C32.1917 13.1537 31.5882 12.9867 31.1066 12.5542C30.6248 12.1222 30.3261 11.4804 30.2108 10.6276L30.1646 10.2821C30.0911 9.73815 30.1222 9.2463 30.2578 8.8055C30.3933 8.36506 30.6244 8.01018 30.9506 7.74069C31.2769 7.47119 31.6755 7.30433 32.1471 7.24047C32.7999 7.1526 33.3494 7.25595 33.7954 7.55195C34.2419 7.84777 34.5384 8.30743 34.6862 8.93145L33.5204 9.0887C33.4424 8.72706 33.3049 8.47642 33.1078 8.33535C32.9107 8.19465 32.6338 8.1484 32.2761 8.1966C31.8877 8.24961 31.6157 8.4275 31.4606 8.73221C31.305 9.03622 31.2644 9.48236 31.3384 10.0681L31.3961 10.4956C31.4788 11.1068 31.6316 11.5407 31.8554 11.7984C32.0786 12.0558 32.3895 12.1572 32.7882 12.1037C33.1489 12.0551 33.4061 11.9368 33.5613 11.7479C33.7166 11.5593 33.7835 11.2914 33.7634 10.9431L34.929 10.7854Z" fill="white"/>
<path d="M40.894 7.399L40.5407 11.1428C40.4817 11.7641 40.2406 12.2376 39.8173 12.5628C39.3941 12.8875 38.8455 13.0186 38.172 12.9545C37.5078 12.8919 36.9978 12.666 36.6406 12.2784C36.2839 11.8901 36.1301 11.3884 36.1804 10.7735L36.5381 6.98755L37.709 7.09766L37.3546 10.8487C37.3196 11.2216 37.3827 11.5008 37.5453 11.6878C37.7074 11.8755 37.9459 11.9836 38.2608 12.0135C38.9186 12.0756 39.2857 11.7609 39.362 11.0702L39.7192 7.28782L40.894 7.399Z" fill="white"/>
<path d="M44.0461 12.0018L43.1572 11.7055L42.495 13.6871L41.3795 13.3135L43.1894 7.90015L45.2008 8.5722C45.8404 8.78655 46.2859 9.09411 46.5381 9.49506C46.79 9.89584 46.8284 10.3567 46.6544 10.8772C46.5312 11.2465 46.348 11.5281 46.1055 11.7211C45.863 11.9148 45.5557 12.0297 45.1816 12.0675L45.6133 14.6717L45.596 14.7235L44.3987 14.3234L44.0461 12.0018ZM43.4593 10.8016L44.359 11.1024C44.6394 11.1964 44.8799 11.1978 45.0814 11.1058C45.2824 11.0151 45.4253 10.8441 45.509 10.5939C45.5943 10.3391 45.5889 10.1139 45.4929 9.91861C45.3968 9.72418 45.1986 9.57618 44.8985 9.47638L44.0022 9.17647L43.4593 10.8016Z" fill="white"/>
<path d="M50.5116 14.7436L48.5691 13.5923L47.7891 14.9074L50.0691 16.2588L49.5872 17.0721L46.2956 15.1205L49.2068 10.2102L52.492 12.1572L52.0057 12.9768L49.7327 11.6292L49.0389 12.7997L50.9818 13.9513L50.5116 14.7436Z" fill="white"/>
<path d="M19.3359 57.0507C18.8816 57.4666 18.385 57.6622 17.8453 57.638C17.3057 57.6135 16.7927 57.3714 16.3064 56.9117C15.7742 56.409 15.5249 55.8346 15.5584 55.1886C15.5918 54.5421 15.9038 53.9064 16.4946 53.2816L16.734 53.0278C17.111 52.6286 17.5135 52.3438 17.9413 52.1729C18.3691 52.0014 18.7904 51.958 19.2052 52.0428C19.6197 52.1272 20 52.3326 20.346 52.6592C20.8245 53.1116 21.089 53.6043 21.1393 54.1374C21.1897 54.67 21.0186 55.19 20.626 55.6966L19.7711 54.889C20.0036 54.6012 20.1126 54.3367 20.0982 54.0947C20.0838 53.8528 19.9459 53.6084 19.6834 53.3606C19.3986 53.0911 19.0885 52.992 18.7545 53.0625C18.4198 53.1329 18.0479 53.3807 17.6384 53.8066L17.3422 54.1205C16.9185 54.569 16.6766 54.9607 16.6168 55.2962C16.5567 55.6313 16.6734 55.9373 16.9656 56.2137C17.2298 56.4635 17.484 56.5892 17.7279 56.5917C17.9723 56.5942 18.2231 56.4779 18.4808 56.2429L19.3359 57.0507Z" fill="white"/>
<path d="M23.6903 61.9691L22.6712 61.3812L23.8941 59.2624L21.9074 58.1163L20.6848 60.2351L19.6656 59.6472L22.5188 54.7029L23.5379 55.2908L22.3814 57.2943L24.3682 58.4404L25.5243 56.4369L26.5434 57.0248L23.6903 61.9691Z" fill="white"/>
<path d="M29.7798 61.4715L27.6241 60.7989L27.1687 62.2584L29.6989 63.0479L29.4175 63.9496L25.7643 62.8104L27.4638 57.3611L31.1097 58.4979L30.8258 59.4076L28.3034 58.6207L27.8984 59.9196L30.0541 60.5922L29.7798 61.4715Z" fill="white"/>
<path d="M35.8817 62.8262C35.7821 63.4338 35.5132 63.8949 35.0736 64.2097C34.6346 64.5241 34.0817 64.6513 33.4155 64.5911C32.6867 64.5251 32.1353 64.2279 31.7619 63.6997C31.3883 63.1711 31.2405 62.4787 31.3179 61.6222L31.3494 61.2743C31.3987 60.7278 31.5387 60.2548 31.7687 59.8557C31.9992 59.457 32.3032 59.1623 32.6812 58.9721C33.0592 58.7819 33.4854 58.7079 33.959 58.7508C34.6154 58.8099 35.1279 59.0336 35.497 59.4214C35.8661 59.8087 36.0532 60.3231 36.0582 60.9637L34.8868 60.8582C34.8913 60.4882 34.8128 60.2132 34.6524 60.0319C34.4917 59.8507 34.2315 59.7436 33.8723 59.7112C33.4821 59.6762 33.177 59.7895 32.9578 60.0517C32.7385 60.3142 32.5996 60.739 32.5414 61.3269L32.5024 61.7567C32.4468 62.3711 32.4994 62.8285 32.6601 63.1291C32.8202 63.4297 33.101 63.5982 33.5016 63.6341C33.8638 63.6672 34.1413 63.609 34.3345 63.4596C34.5277 63.3104 34.6533 63.064 34.7105 62.72L35.8817 62.8262Z" fill="white"/>
<path d="M39.1774 62.142L38.6565 62.8747L38.8689 64.4919L37.7025 64.6447L36.9604 58.9849L38.1268 58.8316L38.4628 61.3974L38.8837 60.6268L40.0821 58.5754L41.5166 58.3872L39.8362 61.1659L42.3169 64.0402L40.9292 64.222L39.1774 62.142Z" fill="white"/>
<path d="M47.258 59.4427C47.4536 59.9694 47.5319 60.4657 47.493 60.9317C47.454 61.3978 47.3012 61.8034 47.0347 62.1474C46.7681 62.4918 46.4109 62.7476 45.9624 62.9141C45.5184 63.0786 45.0833 63.119 44.6561 63.0352C44.2293 62.9509 43.8465 62.7465 43.5083 62.4217C43.1704 62.0971 42.9042 61.6781 42.711 61.1642L42.6125 60.8995C42.4168 60.3728 42.3395 59.874 42.3809 59.4025C42.4218 58.9314 42.576 58.5244 42.8431 58.1815C43.1101 57.838 43.4663 57.5838 43.9128 57.4182C44.3588 57.2525 44.7948 57.2127 45.2212 57.2979C45.6474 57.3836 46.0298 57.5916 46.3689 57.9217C46.7074 58.2519 46.9741 58.6792 47.1687 59.2034L47.258 59.4427ZM46.0501 59.6147C45.8416 59.054 45.583 58.6646 45.274 58.4478C44.9645 58.2309 44.6237 58.1916 44.2515 58.33C43.8815 58.467 43.6494 58.7172 43.5553 59.0794C43.4612 59.4421 43.5163 59.9018 43.7204 60.4591L43.8175 60.7197C44.0205 61.2662 44.2782 61.6531 44.5911 61.8797C44.904 62.1063 45.2489 62.1497 45.6264 62.0097C45.9964 61.8722 46.2266 61.6214 46.3173 61.2573C46.408 60.8931 46.3513 60.433 46.1473 59.8756L46.0501 59.6147Z" fill="white"/>
<path d="M50.4932 53.8577L52.5816 56.9842C52.929 57.504 53.0409 58.0228 52.9176 58.5423C52.7944 59.0617 52.4516 59.5091 51.8882 59.8849C51.3339 60.2549 50.7958 60.4024 50.2739 60.327C49.7516 60.251 49.3165 59.9589 48.9672 59.4504L46.8548 56.2879L47.833 55.6346L49.9258 58.768C50.1332 59.0784 50.3595 59.2554 50.6034 59.2983C50.8472 59.3417 51.1005 59.2751 51.3636 59.0992C51.9135 58.7321 51.9998 58.2566 51.6223 57.6728L49.5122 54.5132L50.4932 53.8577Z" fill="white"/>
<path d="M54.8416 50.7936L53.6349 52.0586L57.0753 55.3418L56.2638 56.1928L52.8228 52.9096L51.6319 54.1578L50.9426 53.5005L54.1523 50.136L54.8416 50.7936Z" fill="white"/>
<defs>
<linearGradient id="paint0_linear_154_4710" x1="8.82485" y1="54.9152" x2="62.8521" y2="17.0849" gradientUnits="userSpaceOnUse">
<stop stop-color="#161A1F"/>
<stop offset="0.1398" stop-color="#2A323B"/>
<stop offset="0.2581" stop-color="#343F4A"/>
<stop offset="0.3602" stop-color="#2A323B"/>
<stop offset="0.4892" stop-color="#161A1F"/>
<stop offset="0.6129" stop-color="#2A323B"/>
<stop offset="0.7366" stop-color="#343F4A"/>
<stop offset="0.8387" stop-color="#2A323B"/>
<stop offset="1" stop-color="#161A1F"/>
</linearGradient>
<radialGradient id="paint1_radial_154_4710" cx="0" cy="0" r="1" gradientUnits="userSpaceOnUse" gradientTransform="translate(35.8384 36.0002) scale(32.9747 32.9747)">
<stop offset="0.5744" stop-color="#130C0E" stop-opacity="0"/>
<stop offset="0.7977" stop-color="#130C0E" stop-opacity="0.6512"/>
<stop offset="1" stop-color="#130C0E" stop-opacity="0.95"/>
</radialGradient>
<linearGradient id="paint2_linear_154_4710" x1="30.3646" y1="41.0335" x2="40.9293" y2="33.636" gradientUnits="userSpaceOnUse">
<stop stop-color="#161A1F"/>
<stop offset="0.1398" stop-color="#2A323B"/>
<stop offset="0.2581" stop-color="#343F4A"/>
<stop offset="0.3602" stop-color="#2A323B"/>
<stop offset="0.4892" stop-color="#161A1F"/>
<stop offset="0.6129" stop-color="#2A323B"/>
<stop offset="0.7366" stop-color="#343F4A"/>
<stop offset="0.8387" stop-color="#2A323B"/>
<stop offset="1" stop-color="#161A1F"/>
</linearGradient>
<linearGradient id="paint3_linear_154_4710" x1="8.80167" y1="43.6252" x2="16.0102" y2="43.6252" gradientUnits="userSpaceOnUse">
<stop offset="0.0215" stop-color="white"/>
<stop offset="0.1075" stop-color="#989697"/>
<stop offset="0.2849" stop-color="white"/>
<stop offset="0.6075" stop-color="#D7D6D7"/>
<stop offset="0.6989" stop-color="white"/>
<stop offset="0.8387" stop-color="#ACABAB"/>
<stop offset="0.8656" stop-color="#CECECE"/>
<stop offset="0.9892" stop-color="#D9D8D9"/>
</linearGradient>
<linearGradient id="paint4_linear_154_4710" x1="7.0091" y1="33.4632" x2="14.2177" y2="33.4632" gradientUnits="userSpaceOnUse">
<stop offset="0.0215" stop-color="white"/>
<stop offset="0.1075" stop-color="#989697"/>
<stop offset="0.2849" stop-color="white"/>
<stop offset="0.6075" stop-color="#D7D6D7"/>
<stop offset="0.6989" stop-color="white"/>
<stop offset="0.8387" stop-color="#ACABAB"/>
<stop offset="0.8656" stop-color="#CECECE"/>
<stop offset="0.9892" stop-color="#D9D8D9"/>
</linearGradient>
<linearGradient id="paint5_linear_154_4710" x1="10.3511" y1="23.1659" x2="17.5601" y2="23.1659" gradientUnits="userSpaceOnUse">
<stop offset="0.0215" stop-color="white"/>
<stop offset="0.1075" stop-color="#989697"/>
<stop offset="0.2849" stop-color="white"/>
<stop offset="0.6075" stop-color="#D7D6D7"/>
<stop offset="0.6989" stop-color="white"/>
<stop offset="0.8387" stop-color="#ACABAB"/>
<stop offset="0.8656" stop-color="#CECECE"/>
<stop offset="0.9892" stop-color="#D9D8D9"/>
</linearGradient>
<linearGradient id="paint6_linear_154_4710" x1="62.875" y1="43.6252" x2="55.6665" y2="43.6252" gradientUnits="userSpaceOnUse">
<stop offset="0.0215" stop-color="white"/>
<stop offset="0.1075" stop-color="#989697"/>
<stop offset="0.2849" stop-color="white"/>
<stop offset="0.6075" stop-color="#D7D6D7"/>
<stop offset="0.6989" stop-color="white"/>
<stop offset="0.8387" stop-color="#ACABAB"/>
<stop offset="0.8656" stop-color="#CECECE"/>
<stop offset="0.9892" stop-color="#D9D8D9"/>
</linearGradient>
<linearGradient id="paint7_linear_154_4710" x1="64.6671" y1="33.4632" x2="57.4586" y2="33.4632" gradientUnits="userSpaceOnUse">
<stop offset="0.0215" stop-color="white"/>
<stop offset="0.1075" stop-color="#989697"/>
<stop offset="0.2849" stop-color="white"/>
<stop offset="0.6075" stop-color="#D7D6D7"/>
<stop offset="0.6989" stop-color="white"/>
<stop offset="0.8387" stop-color="#ACABAB"/>
<stop offset="0.8656" stop-color="#CECECE"/>
<stop offset="0.9892" stop-color="#D9D8D9"/>
</linearGradient>
<linearGradient id="paint8_linear_154_4710" x1="61.3253" y1="23.1659" x2="54.1167" y2="23.1659" gradientUnits="userSpaceOnUse">
<stop offset="0.0215" stop-color="white"/>
<stop offset="0.1075" stop-color="#989697"/>
<stop offset="0.2849" stop-color="white"/>
<stop offset="0.6075" stop-color="#D7D6D7"/>
<stop offset="0.6989" stop-color="white"/>
<stop offset="0.8387" stop-color="#ACABAB"/>
<stop offset="0.8656" stop-color="#CECECE"/>
<stop offset="0.9892" stop-color="#D9D8D9"/>
</linearGradient>
</defs>
</svg>
