<svg width="206" height="62" viewBox="0 0 206 62" fill="none" xmlns="http://www.w3.org/2000/svg">
<path d="M11.0822 49.899C11.3308 49.6707 11.5001 49.3793 11.5688 49.0623C11.6374 48.7454 11.6022 48.4168 11.4677 48.118C11.3332 47.8193 11.1054 47.5639 10.8131 47.3843C10.5208 47.2047 10.1771 47.1088 9.82557 47.1088C9.47399 47.1088 9.13033 47.2047 8.83802 47.3843C8.54575 47.5639 8.31794 47.8193 8.18341 48.118C8.04892 48.4168 8.01374 48.7454 8.08238 49.0623C8.15099 49.3793 8.32033 49.6707 8.56896 49.899C8.90357 50.2032 9.35509 50.3738 9.82557 50.3738C10.296 50.3738 10.7475 50.2032 11.0822 49.899ZM21.5651 33.2219C21.3158 33.4502 21.1457 33.7414 21.0765 34.0586C21.0073 34.3758 21.042 34.7048 21.1763 35.0039C21.3106 35.303 21.5384 35.5586 21.8309 35.7386C22.1233 35.9185 22.4673 36.0145 22.8192 36.0145C23.171 36.0145 23.515 35.9185 23.8074 35.7386C24.0999 35.5586 24.3277 35.303 24.462 35.0039C24.5963 34.7048 24.631 34.3758 24.5618 34.0586C24.4926 33.7414 24.3225 33.4502 24.0732 33.2219C23.7394 32.9176 23.2881 32.7472 22.8181 32.7481C22.3481 32.749 21.8975 32.9211 21.5651 33.2267V33.2219ZM7.42895 50.9667C7.08487 50.6544 6.81714 50.2783 6.64366 49.8634C6.47013 49.4485 6.39486 49.0043 6.4228 48.5608C6.45078 48.1169 6.58133 47.6838 6.80575 47.2903C7.03016 46.8967 7.34333 46.5515 7.72432 46.2779V20.8092C7.7316 17.9154 8.64556 15.0849 10.3568 12.6563C12.0681 10.2278 14.5042 8.3041 17.3735 7.11556C20.2428 5.92698 23.4238 5.52389 26.5357 5.95454C29.6477 6.38514 32.5588 7.63123 34.9206 9.54364C37.2825 11.456 38.995 13.9538 39.8532 16.7379C40.7114 19.522 40.6789 22.4745 39.7597 25.2421C38.8405 28.0097 37.0735 30.4751 34.6702 32.3433C32.2668 34.2114 29.3289 35.4032 26.2081 35.7759L25.8713 35.8188C25.5404 36.404 25.0177 36.8786 24.3773 37.1757C23.7369 37.4728 23.0111 37.5772 22.3026 37.4742C21.5942 37.3711 20.9388 37.0658 20.4294 36.6015C19.92 36.1372 19.5822 35.5374 19.4638 34.8868C19.3454 34.2363 19.4525 33.568 19.7699 32.9765C20.0872 32.385 20.5987 31.9002 21.2322 31.5907C21.8656 31.2812 22.5888 31.1627 23.2995 31.2519C24.0102 31.3411 24.6724 31.6336 25.1925 32.0878L25.7107 32.0307C28.0563 31.7476 30.2635 30.849 32.068 29.4422C33.8725 28.0355 35.1978 26.1803 35.8853 24.0988C36.5728 22.0174 36.5933 19.7978 35.9444 17.7059C35.2954 15.614 34.0046 13.7383 32.2264 12.3036C30.4481 10.8689 28.2579 9.93582 25.9178 9.6162C23.5778 9.29654 21.1871 9.60386 19.0321 10.5013C16.8771 11.3988 15.0491 12.8484 13.7669 14.6765C12.4846 16.5046 11.8026 18.6338 11.8024 20.8092V46.1633C11.9586 46.2655 12.1059 46.3785 12.2429 46.502C12.5766 46.7891 12.8442 47.1355 13.0299 47.5198C13.2156 47.9037 13.3156 48.3185 13.324 48.7388C13.3324 49.1591 13.2491 49.577 13.0789 49.9671C12.9087 50.3572 12.6552 50.7125 12.3332 51.0108C12.0113 51.3096 11.6275 51.5457 11.2045 51.7055C10.7816 51.8653 10.3281 51.9454 9.87089 51.9416C9.41364 51.9373 8.96196 51.8487 8.54253 51.6815C8.1231 51.5139 7.74442 51.2709 7.42895 50.9667Z" fill="#80CC28"/>
<path d="M17.3359 40.7842C17.5853 40.5558 17.7553 40.2648 17.8245 39.9475C17.8937 39.6301 17.859 39.3012 17.7247 39.0021C17.5904 38.7029 17.3626 38.4474 17.0702 38.2675C16.7777 38.0875 16.4337 37.9915 16.0819 37.9915C15.73 37.9915 15.386 38.0875 15.0936 38.2675C14.8011 38.4474 14.5733 38.7029 14.439 39.0021C14.3047 39.3012 14.27 39.6301 14.3392 39.9475C14.4085 40.2648 14.5785 40.5558 14.8278 40.7842C15.1623 41.0868 15.6127 41.2563 16.0819 41.2563C16.5511 41.2563 17.0015 41.0868 17.3359 40.7842ZM24.8289 26.7418C24.4982 27.0496 24.3128 27.4647 24.3128 27.8974C24.3128 28.3299 24.4982 28.7451 24.8289 29.0528C25.0775 29.2815 25.3941 29.4372 25.7389 29.5003C26.0837 29.5634 26.4411 29.5311 26.7659 29.4074C27.0908 29.2836 27.3684 29.0742 27.5637 28.8054C27.759 28.5366 27.8633 28.2206 27.8633 27.8974C27.8633 27.5741 27.759 27.258 27.5637 26.9893C27.3684 26.7205 27.0908 26.511 26.7659 26.3873C26.4411 26.2637 26.0837 26.2313 25.7389 26.2944C25.3941 26.3575 25.0775 26.5132 24.8289 26.7418ZM13.6464 41.8561C13.3283 41.5643 13.076 41.2172 12.9038 40.8356C12.7317 40.4537 12.6431 40.0442 12.6431 39.6309C12.6431 39.2176 12.7317 38.8086 12.9038 38.4266C13.076 38.0447 13.3283 37.6979 13.6464 37.4058C13.7597 37.2997 13.8809 37.201 14.0091 37.1103V20.8095C14.009 19.3119 14.4045 17.8367 15.1614 16.5106C15.9183 15.1845 17.0142 14.0474 18.3546 13.1968C19.6951 12.3462 21.2402 11.8077 22.857 11.6275C24.4739 11.4473 26.1141 11.6309 27.6367 12.1624C29.1594 12.6939 30.5189 13.5574 31.5984 14.6788C32.6779 15.8001 33.4451 17.1458 33.8341 18.6001C34.2231 20.0543 34.2222 21.5737 33.8316 23.0276C33.4409 24.4815 32.6721 25.8264 31.5913 26.9467C30.9441 27.6163 30.1975 28.1986 29.3734 28.6764C29.2177 29.2165 28.9103 29.7095 28.4822 30.1059C28.0323 30.5185 27.4663 30.8077 26.8477 30.9411C26.2291 31.0746 25.5822 31.0469 24.9798 30.8612C24.3774 30.6754 23.8431 30.3391 23.4369 29.8898C23.0307 29.4405 22.7686 28.896 22.6801 28.3174C22.5916 27.7388 22.6801 27.1491 22.9358 26.6141C23.1914 26.0792 23.604 25.6204 24.1274 25.2891C24.6507 24.9577 25.2641 24.767 25.8988 24.7383C26.5334 24.7096 27.1642 24.844 27.7204 25.1265C28.009 24.9177 28.2778 24.6865 28.5236 24.4356C29.5269 23.3889 30.0596 22.0303 30.0134 20.6356C29.9672 19.241 29.3456 17.9147 28.2749 16.9261C27.4402 16.1669 26.3801 15.6516 25.2279 15.4449C24.0756 15.2383 22.8826 15.3494 21.7989 15.7644C20.7152 16.1794 19.789 16.8798 19.1369 17.7775C18.4848 18.6751 18.1359 19.73 18.1339 20.8095V37.1008C18.2619 37.19 18.3831 37.2871 18.4966 37.3915C19.1405 37.9829 19.5025 38.7853 19.503 39.622C19.5035 40.4591 19.1424 41.2617 18.4992 41.8538C17.856 42.4459 16.9834 42.7787 16.0734 42.7791C15.1633 42.7795 14.2903 42.4478 13.6464 41.8561Z" fill="#FFB701"/>
<path d="M4.67298 59.5391C4.92161 59.3104 5.09094 59.0194 5.15959 58.702C5.2282 58.3851 5.19306 58.0565 5.05853 57.7578C4.92404 57.459 4.69623 57.204 4.40391 57.0244C4.11161 56.8449 3.76795 56.7489 3.41639 56.7489C3.06483 56.7489 2.72117 56.8449 2.42887 57.0244C2.13656 57.204 1.90875 57.459 1.77424 57.7578C1.63973 58.0565 1.60457 58.3851 1.67319 58.702C1.74182 59.0194 1.91115 59.3104 2.15978 59.5391C2.49442 59.8433 2.94592 60.0136 3.41639 60.0136C3.88686 60.0136 4.33837 59.8433 4.67298 59.5391ZM27.4733 38.1349C27.2247 38.3635 27.0553 38.6547 26.9867 38.9719C26.9181 39.2889 26.9533 39.6174 27.0878 39.9162C27.2223 40.2149 27.4501 40.47 27.7424 40.6495C28.0347 40.8295 28.3784 40.9251 28.7299 40.9251C29.0815 40.9251 29.4252 40.8295 29.7175 40.6495C30.0097 40.47 30.2376 40.2149 30.3721 39.9162C30.5066 39.6174 30.5418 39.2889 30.4732 38.9719C30.4045 38.6547 30.2352 38.3635 29.9865 38.1349C29.6528 37.8366 29.2057 37.6697 28.7403 37.6697C28.2748 37.6697 27.8278 37.8366 27.494 38.1349H27.4733ZM0.999034 60.6111C0.359201 60.0201 0 59.2198 0 58.3859C0 57.5519 0.359201 56.752 0.999034 56.1607C1.11598 56.0546 1.24063 55.9559 1.37213 55.8654V20.8096C1.38516 16.9979 2.5329 13.2623 4.69087 10.0078C6.84879 6.7534 9.93458 4.10435 13.6136 2.34805C17.2925 0.591746 21.4242 -0.204799 25.5606 0.044817C29.6969 0.294433 33.68 1.58068 37.0777 3.76405C40.4755 5.94741 43.1583 8.94457 44.8353 12.4305C46.512 15.9163 47.1193 19.7579 46.5903 23.5384C46.0613 27.3189 44.4169 30.8942 41.8354 33.8763C39.2537 36.8585 35.8334 39.1337 31.9453 40.4556C31.773 40.8473 31.5176 41.2037 31.1939 41.5036C30.7291 41.9316 30.1399 42.2273 29.497 42.3554C28.854 42.4831 28.1846 42.4378 27.5689 42.225C26.9533 42.0117 26.4175 41.6398 26.0259 41.1538C25.6343 40.6677 25.4034 40.0884 25.3609 39.4847C25.3184 38.881 25.4662 38.279 25.7864 37.7506C26.1067 37.2223 26.5858 36.79 27.1665 36.5057C27.7471 36.2214 28.4046 36.0972 29.0601 36.1478C29.7156 36.1984 30.3413 36.4218 30.8623 36.7912C34.0309 35.6639 36.8046 33.7623 38.884 31.2915C40.9634 28.8208 42.2695 25.8748 42.6615 22.7714C43.0531 19.6681 42.5158 16.5252 41.1075 13.6821C39.699 10.839 37.473 8.40359 34.6695 6.63866C31.866 4.87377 28.5915 3.84639 25.1996 3.66744C21.8076 3.48848 18.4268 4.16476 15.4222 5.62322C12.4176 7.08173 9.90321 9.26705 8.15039 11.9434C6.39757 14.6197 5.47293 17.6854 5.4762 20.8096V55.8603C5.60261 55.9478 5.72206 56.0434 5.83372 56.1463C6.47556 56.7361 6.83639 57.5356 6.83685 58.37C6.83736 59.204 6.47744 60.0043 5.83632 60.5945C5.1952 61.1846 4.32538 61.5163 3.41822 61.517C2.51105 61.5174 1.64084 61.1866 0.999034 60.5968" fill="#489FED"/>
<path d="M58.8608 38.5611V19.3204H67.7374C68.6601 19.3148 69.5715 19.5056 70.4008 19.8779C71.1975 20.2392 71.9116 20.7374 72.5047 21.3455C73.0953 21.9506 73.5639 22.6476 73.8881 23.404C74.222 24.1363 74.3979 24.9211 74.4067 25.715C74.4 27.3384 73.76 28.9057 72.6031 30.1321C72.0222 30.7304 71.3177 31.2163 70.5303 31.5616C69.7047 31.9341 68.7971 32.1281 67.8773 32.1286H62.9546V38.5611H58.8608ZM62.9546 28.8313H67.675C68.0352 28.8344 68.3908 28.7608 68.7146 28.6161C69.0383 28.4714 69.3211 28.2596 69.5405 27.9974C70.0779 27.3426 70.346 26.5341 70.2974 25.715C70.3028 25.2687 70.2224 24.825 70.0591 24.4047C69.9187 24.0413 69.706 23.7052 69.432 23.4136C69.1904 23.1505 68.885 22.9432 68.5407 22.8084C68.214 22.6747 67.8614 22.6033 67.5041 22.5987H62.9546V28.8313Z" fill="black"/>
<path d="M77.2123 38.5615V19.3205H86.4671C87.3898 19.3143 88.3017 19.5052 89.1306 19.878C89.9314 20.2355 90.648 20.7341 91.2398 21.3456C91.8271 21.952 92.2937 22.6488 92.6183 23.404C92.9517 24.1363 93.1276 24.9211 93.1364 25.715C93.1452 26.9175 92.7858 28.0981 92.0997 29.1219C91.466 30.1101 90.5002 30.8826 89.3483 31.3234L94.1207 38.5615H89.5557L85.291 32.1286H81.2852V38.5615H77.2123ZM81.2852 28.8313H86.3792C86.741 28.8335 87.0975 28.7516 87.4154 28.593C87.7433 28.4276 88.0307 28.2023 88.2602 27.9307C88.5056 27.6296 88.6945 27.293 88.8198 26.9348C88.9592 26.541 89.0292 26.1292 89.0271 25.715C89.0304 25.2921 88.9496 24.8723 88.7888 24.4761C88.6401 24.1129 88.4244 23.776 88.1513 23.4803C87.8962 23.2085 87.5842 22.9865 87.234 22.8274C86.9124 22.679 86.5576 22.6007 86.1978 22.5987H81.2751L81.2852 28.8313Z" fill="black"/>
<path d="M96.8099 38.5611V19.3204H105.681C106.606 19.3149 107.519 19.5057 108.35 19.8779C109.146 20.2405 109.86 20.7385 110.454 21.3455C111.041 21.953 111.509 22.6495 111.838 23.404C112.171 24.1362 112.347 24.9211 112.356 25.715C112.359 26.529 112.199 27.3366 111.884 28.0975C111.578 28.8459 111.128 29.5381 110.558 30.1416C109.977 30.7399 109.272 31.2259 108.485 31.5711C107.655 31.9337 106.745 32.1178 105.826 32.1096H100.883V38.5611H96.8099ZM100.878 28.8313H105.593C105.954 28.8337 106.31 28.7597 106.634 28.6151C106.959 28.4705 107.243 28.2592 107.464 27.9974C108.001 27.3426 108.269 26.5341 108.221 25.715C108.226 25.2687 108.146 24.825 107.982 24.4046C107.84 24.0422 107.627 23.7064 107.355 23.4135C107.113 23.1494 106.805 22.942 106.459 22.8084C106.133 22.6735 105.78 22.6021 105.422 22.5987H100.888L100.878 28.8313Z" fill="black"/>
<path d="M129.457 19.3727H133.204L135.556 25.7435L137.914 19.3727H141.718L138.142 28.1259L140.8 34.2823L146.723 19.3203H151.138L142.599 38.5611H139.184L135.556 30.4608L131.929 38.5611H128.519L120.058 19.3203H124.415L130.364 34.2823L132.955 28.1259L129.457 19.3727Z" fill="black"/>
<path d="M167.794 35.2829V38.5611H153.285V19.3203H167.525V22.5986H157.332V27.2349H166.141V30.2702H157.332V35.2829H167.794Z" fill="black"/>
<path d="M187.838 33.5963C187.857 34.3147 187.685 35.0265 187.338 35.67C186.99 36.3135 186.477 36.8693 185.843 37.289C185.191 37.7186 184.464 38.041 183.692 38.2422C182.85 38.464 181.977 38.5746 181.101 38.5708H170.997V19.3206H182.189C182.879 19.3131 183.559 19.4638 184.169 19.759C184.746 20.0374 185.255 20.4198 185.667 20.8835C186.092 21.3459 186.419 21.8777 186.63 22.4512C186.854 23.0211 186.971 23.6224 186.973 24.2285C186.973 25.1642 186.699 26.0826 186.18 26.8873C185.67 27.706 184.882 28.3474 183.936 28.7123C185.067 28.9949 186.068 29.6088 186.786 30.461C187.507 31.3687 187.878 32.4725 187.838 33.5963ZM183.739 32.8912C183.738 32.5558 183.671 32.2232 183.542 31.9095C183.427 31.6076 183.251 31.3281 183.024 31.0852C182.813 30.8533 182.552 30.6649 182.257 30.5325C181.957 30.3913 181.625 30.3193 181.288 30.3228H175.038V35.3927H181.101C181.457 35.3944 181.809 35.3312 182.138 35.2069C182.455 35.0803 182.742 34.8973 182.982 34.6685C183.22 34.4387 183.41 34.1706 183.542 33.8775C183.674 33.563 183.739 33.2282 183.734 32.8912H183.739ZM175.038 22.5178V27.3638H180.459C180.784 27.37 181.106 27.3153 181.407 27.2031C181.709 27.0908 181.982 26.9234 182.21 26.711C182.457 26.4748 182.649 26.1941 182.773 25.8867C182.897 25.5792 182.951 25.2515 182.931 24.9241C182.971 24.2814 182.734 23.6499 182.272 23.1659C182.068 22.954 181.815 22.7855 181.532 22.672C181.25 22.5585 180.943 22.5026 180.635 22.5083L175.038 22.5178Z" fill="black"/>
<path d="M203.474 24.3577C203.239 24.1668 202.986 23.9961 202.717 23.8478C202.295 23.6028 201.851 23.3908 201.39 23.2141C200.842 22.9942 200.276 22.8157 199.696 22.6804C199.089 22.5337 198.463 22.46 197.836 22.4613C196.956 22.4037 196.079 22.6057 195.333 23.0378C195.064 23.2215 194.849 23.4633 194.706 23.7417C194.563 24.0201 194.497 24.3266 194.514 24.6341C194.499 24.9852 194.604 25.3319 194.814 25.6252C195.056 25.9107 195.362 26.1447 195.711 26.3113C196.185 26.5403 196.683 26.7239 197.198 26.8593C197.805 27.0165 198.499 27.1928 199.271 27.3739C200.308 27.6248 201.237 27.8964 202.059 28.1887C202.824 28.4379 203.539 28.8035 204.173 29.2703C204.746 29.6896 205.208 30.2222 205.526 30.8285C205.863 31.5316 206.024 32.2953 205.997 33.0632C206.024 33.978 205.806 34.8849 205.36 35.703C204.957 36.4167 204.367 37.0274 203.644 37.4802C202.894 37.9477 202.056 38.2836 201.173 38.4713C200.215 38.6802 199.234 38.784 198.25 38.7812C196.669 38.782 195.097 38.5634 193.586 38.133C192.105 37.729 190.705 37.1063 189.441 36.2891L191.244 33.0632C191.536 33.3042 191.854 33.5166 192.192 33.697C192.716 33.9964 193.261 34.2623 193.825 34.4927C194.494 34.7648 195.188 34.9832 195.898 35.1455C196.67 35.3272 197.464 35.4185 198.261 35.4171C200.499 35.4171 201.619 34.758 201.619 33.4397C201.632 33.057 201.494 32.6828 201.23 32.3866C200.929 32.0631 200.556 31.803 200.136 31.6242C199.59 31.3763 199.019 31.1768 198.432 31.0286L196.198 30.433C195.315 30.2137 194.449 29.9382 193.607 29.6087C192.936 29.348 192.314 28.9927 191.762 28.5556C191.283 28.1611 190.906 27.6726 190.659 27.1261C190.401 26.5194 190.275 25.8716 190.291 25.2201C190.273 24.3237 190.474 23.4349 190.876 22.6185C191.255 21.8752 191.815 21.2228 192.514 20.7125C193.239 20.1934 194.063 19.8038 194.944 19.5642C195.909 19.2923 196.914 19.1573 197.924 19.1639C199.312 19.1506 200.692 19.3669 201.997 19.8024C203.138 20.1831 204.225 20.6886 205.235 21.3081L203.474 24.3577Z" fill="black"/>
</svg>
