<svg width="73" height="73" viewBox="0 0 73 73" fill="none" xmlns="http://www.w3.org/2000/svg">
<mask id="mask0_154_4189" style="mask-type:luminance" maskUnits="userSpaceOnUse" x="0" y="0" width="73" height="73">
<path d="M73 0H0V73H73V0Z" fill="white"/>
</mask>
<g mask="url(#mask0_154_4189)">
<path d="M73 36.4966C73 38.4031 71.5234 40.1725 71.2368 41.998C70.9502 43.8234 71.7975 46.0103 71.2368 47.7796C70.6761 49.549 68.7011 50.8013 67.8538 52.4648C67.0065 54.1283 67.1435 56.4397 66.0408 57.9537C64.938 59.4676 62.7013 60.0346 61.3805 61.3616C60.0597 62.6887 59.5115 64.9253 57.9664 66.0281C56.4212 67.1308 54.1597 66.9813 52.4775 67.8349C50.7953 68.6884 49.5929 70.6385 47.7923 71.2179C45.9918 71.7973 43.8922 70.9375 42.0169 71.2179C40.1416 71.4983 38.422 72.9811 36.5093 72.9811C34.5966 72.9811 32.8335 71.5045 31.008 71.2179C29.1825 70.9313 26.9957 71.7724 25.2325 71.2179C23.4694 70.6634 22.2046 68.6822 20.5474 67.8349C18.8901 66.9875 16.5662 67.1308 15.0585 66.0281C13.5508 64.9253 12.9714 62.6887 11.6443 61.3616C10.3173 60.0346 8.08686 59.4925 6.9841 57.9537C5.88132 56.4148 6.03087 54.1407 5.17109 52.4648C4.31132 50.7889 2.3737 49.5802 1.78806 47.7796C1.20241 45.9791 2.06842 43.8733 1.78806 41.998C1.5077 40.1227 0.0248871 38.4031 0.0248871 36.4966C0.0248871 34.5902 1.50147 32.8208 1.78806 30.9953C2.07465 29.1698 1.22734 26.983 1.78806 25.2136C2.34878 23.4442 4.32378 22.192 5.17109 20.5285C6.01841 18.865 5.88132 16.5536 6.9841 15.0396C8.08686 13.5257 10.3235 12.9587 11.6443 11.6317C12.9652 10.3046 13.5134 8.07417 15.0585 6.96519C16.6036 5.85619 18.8652 6.01195 20.5474 5.15841C22.2296 4.30486 23.432 2.36102 25.2325 1.77537C27.0331 1.18973 29.1327 2.05573 31.008 1.77537C32.8833 1.49501 34.6029 0.012207 36.5093 0.012207C38.4158 0.012207 40.1914 1.48878 42.0169 1.77537C43.8423 2.06196 46.0292 1.21465 47.7923 1.77537C49.5555 2.3361 50.8202 4.31109 52.4775 5.15841C54.1347 6.00572 56.4524 5.86866 57.9664 6.96519C59.4803 8.06172 60.0535 10.3046 61.3805 11.6317C62.7076 12.9587 64.938 13.5007 66.0408 15.0396C67.1435 16.5785 66.994 18.8525 67.8538 20.5285C68.7136 22.2044 70.6512 23.4193 71.2368 25.2136C71.8225 27.0079 70.9564 29.12 71.2368 30.9953C71.5172 32.8706 73 34.5902 73 36.4966Z" fill="url(#paint0_linear_154_4189)"/>
<path d="M70.0156 36.4968C70.0156 38.2475 68.6637 39.8736 68.3958 41.5496C68.1279 43.2255 68.9129 45.2379 68.3958 46.8578C67.8786 48.4776 66.0719 49.6365 65.2806 51.1629C64.4894 52.6893 64.6576 54.8138 63.6171 56.2032C62.5767 57.5925 60.5519 58.1158 59.3307 59.3183C58.1096 60.5207 57.5987 62.5892 56.2156 63.6047C54.8325 64.6202 52.7142 64.4769 51.1753 65.262C49.6364 66.047 48.5212 67.8351 46.8702 68.3771C45.2192 68.9191 43.2878 68.1217 41.5682 68.3771C39.8487 68.6325 38.2662 69.997 36.5093 69.997C34.7523 69.997 33.1387 68.6388 31.4565 68.3771C29.7744 68.1154 27.7744 68.8942 26.1546 68.3771C24.5347 67.86 23.3759 66.047 21.8495 65.262C20.323 64.4769 18.1985 64.6389 16.8092 63.6047C15.4198 62.5705 14.8965 60.5394 13.694 59.3183C12.4916 58.0972 10.4294 57.58 9.41385 56.2032C8.39832 54.8263 8.54161 52.7017 7.75037 51.1629C6.95912 49.624 5.18351 48.5088 4.63524 46.8578C4.08698 45.2067 4.89068 43.2754 4.63524 41.5496C4.3798 39.8238 3.02159 38.2475 3.02159 36.4968C3.02159 34.7461 4.37357 33.12 4.63524 31.4441C4.89691 29.7681 4.12436 27.762 4.63524 26.1359C5.14612 24.5098 6.95912 23.3634 7.75037 21.837C8.54161 20.3106 8.40455 18.1861 9.41385 16.7967C10.4232 15.4074 12.4791 14.884 13.694 13.6816C14.9089 12.4792 15.4323 10.4169 16.8092 9.4014C18.1861 8.38587 20.3106 8.52294 21.8495 7.73792C23.3883 6.95291 24.5035 5.16483 26.1546 4.6228C27.8056 4.08077 29.737 4.88447 31.4565 4.6228C33.1761 4.36113 34.7586 3.00293 36.5093 3.00293C38.26 3.00293 39.8861 4.36113 41.5682 4.6228C43.2504 4.88447 45.2503 4.11192 46.8702 4.6228C48.4901 5.13368 49.6489 6.95291 51.1753 7.73792C52.7017 8.52294 54.8262 8.36095 56.2156 9.4014C57.6049 10.4419 58.1283 12.4667 59.3307 13.6816C60.5332 14.8965 62.6016 15.4198 63.6171 16.7967C64.6327 18.1736 64.4894 20.2919 65.2806 21.837C66.0719 23.3821 67.8475 24.4849 68.3958 26.1359C68.944 27.7869 68.1403 29.7245 68.3958 31.4441C68.6512 33.1636 70.0156 34.7461 70.0156 36.4968Z" fill="url(#paint1_linear_154_4189)"/>
<path d="M68.9315 36.4966C68.9315 38.1913 67.6169 39.7613 67.3677 41.3874C67.1185 43.0135 67.8599 44.9511 67.3677 46.5211C66.8755 48.0912 65.1185 49.2126 64.3647 50.6829C63.6108 52.1533 63.7417 54.2155 62.7573 55.5612C61.7729 56.907 59.7917 57.4303 58.6141 58.5892C57.4366 59.748 56.932 61.7541 55.58 62.7385C54.228 63.7229 52.197 63.5858 50.7079 64.3459C49.2189 65.106 48.1411 66.838 46.5399 67.3489C44.9387 67.8598 43.0759 67.0997 41.4062 67.3489C39.7364 67.5981 38.21 68.9189 36.5154 68.9189C34.8208 68.9189 33.2507 67.6043 31.6309 67.3489C30.011 67.0935 28.0609 67.8473 26.4909 67.3489C24.9209 66.8505 23.8057 65.0998 22.3291 64.3459C20.8525 63.5921 18.7965 63.7229 17.457 62.7385C16.1175 61.7541 15.5879 59.7667 14.4229 58.5892C13.2578 57.4116 11.2641 56.9132 10.2798 55.5612C9.29538 54.2093 9.43244 52.1782 8.67235 50.6829C7.91226 49.1877 6.18023 48.1223 5.66311 46.5211C5.146 44.92 5.91233 43.0509 5.66311 41.3874C5.4139 39.7239 4.09935 38.1913 4.09935 36.4966C4.09935 34.802 5.40767 33.232 5.66311 31.6059C5.91856 29.9798 5.17092 28.0422 5.66311 26.4721C6.15531 24.9021 7.91849 23.7869 8.67235 22.3103C9.42621 20.8338 9.29538 18.7778 10.2798 17.432C11.2641 16.0863 13.2454 15.5629 14.4229 14.4041C15.6004 13.2453 16.1051 11.2391 17.457 10.261C18.809 9.28284 20.8401 9.41368 22.3291 8.65359C23.8181 7.89349 24.896 6.16147 26.4909 5.64436C28.0859 5.12725 29.9612 5.89357 31.6309 5.64436C33.3006 5.39515 34.8208 4.08057 36.5154 4.08057C38.21 4.08057 39.7863 5.38892 41.4062 5.64436C43.026 5.8998 44.9699 5.14594 46.5399 5.64436C48.1099 6.14278 49.2314 7.89972 50.7079 8.65359C52.1845 9.40745 54.2405 9.27661 55.58 10.261C56.9195 11.2454 57.4491 13.2266 58.6141 14.4041C59.7792 15.5816 61.7729 16.0863 62.7573 17.432C63.7417 18.7778 63.6046 20.8213 64.3647 22.3103C65.1248 23.7994 66.8568 24.8772 67.3677 26.4721C67.8785 28.0671 67.1247 29.9424 67.3677 31.6059C67.6106 33.2694 68.9315 34.802 68.9315 36.4966Z" stroke="#FBF1F0" stroke-width="0.5" stroke-miterlimit="10"/>
<path d="M36.4966 69.125C35.5035 69.0489 34.5375 68.7648 33.6618 68.2901C33.0042 67.953 32.3043 67.7057 31.5809 67.5549C30.8236 67.4777 30.0595 67.4964 29.3069 67.611C28.3485 67.7861 27.3641 67.7612 26.416 67.5362C25.5016 67.1556 24.6763 66.5892 23.9924 65.8728C23.4629 65.3463 22.8683 64.8902 22.223 64.5146C21.5317 64.2161 20.8053 64.0068 20.0611 63.8915C19.0895 63.7588 18.156 63.4261 17.3198 62.9134C16.5711 62.2747 15.9661 61.4848 15.5442 60.5957C14.9227 59.2106 13.8142 58.1021 12.4291 57.4806C11.5428 57.0543 10.7554 56.4474 10.1176 55.6987C9.60253 54.8639 9.26921 53.9298 9.1395 52.9574C9.02704 52.2127 8.81758 51.4859 8.51647 50.7955C8.14483 50.1496 7.68803 49.5565 7.15827 49.0324C6.44167 48.35 5.87699 47.5241 5.50103 46.6088C5.27413 45.659 5.24655 44.6726 5.42004 43.7117C5.53945 42.9617 5.56038 42.1993 5.48233 41.4439C5.32642 40.7191 5.07721 40.0175 4.74092 39.3568C4.26948 38.4802 3.98718 37.5145 3.91229 36.522C3.98881 35.5298 4.27102 34.5644 4.74092 33.6872C5.07721 33.0264 5.32642 32.3249 5.48233 31.6001C5.56038 30.8447 5.53945 30.0823 5.42004 29.3323C5.24652 28.3734 5.2741 27.389 5.50103 26.4414C5.87397 25.5244 6.43905 24.698 7.15827 24.0178C7.68816 23.4915 8.14496 22.8964 8.51647 22.2484C8.81758 21.5581 9.02704 20.8313 9.1395 20.0865C9.26921 19.1142 9.60253 18.1801 10.1176 17.3452C10.7554 16.5966 11.5428 15.9897 12.4291 15.5634C13.1039 15.2315 13.7323 14.8126 14.2982 14.3173C14.8021 13.7515 15.2314 13.1234 15.5754 12.4482C15.9972 11.5591 16.6023 10.7693 17.351 10.1306C18.1863 9.61746 19.1204 9.28633 20.0923 9.15867C20.8358 9.04035 21.5618 8.83114 22.2542 8.53564C22.9007 8.16207 23.4956 7.70546 24.0236 7.17744C24.706 6.46084 25.5318 5.89614 26.4472 5.52019C27.3944 5.29032 28.3794 5.26272 29.338 5.43919C30.0901 5.56001 30.855 5.57887 31.6121 5.49526C32.3189 5.32193 32.9998 5.05588 33.6369 4.70402C34.4846 4.16326 35.4692 3.87598 36.4748 3.87598C37.4803 3.87598 38.4649 4.16326 39.3127 4.70402C39.9703 5.04111 40.6702 5.28838 41.3936 5.43919C42.1507 5.52272 42.9156 5.50386 43.6676 5.38311C44.6262 5.20664 45.6112 5.23424 46.5585 5.46411C47.4738 5.84007 48.2996 6.40477 48.982 7.12137C49.51 7.64939 50.1048 8.106 50.7514 8.47957C51.4438 8.77507 52.1699 8.98428 52.9133 9.10259C53.8852 9.23025 54.8194 9.56139 55.6546 10.0745C56.4016 10.7149 57.0064 11.5043 57.4303 12.3922C57.7646 13.0655 58.1833 13.6937 58.6763 14.2613C59.2419 14.7569 59.8703 15.1759 60.5454 15.5073C61.4576 15.9342 62.2672 16.5526 62.9191 17.3203C63.4344 18.1552 63.7677 19.0893 63.8973 20.0616C64.0094 20.8063 64.2194 21.5332 64.5203 22.2235C64.8916 22.87 65.3458 23.4648 65.8723 23.9929C66.5956 24.671 67.1632 25.4978 67.5358 26.4165C67.7638 27.3641 67.7893 28.3492 67.6105 29.3073C67.4959 30.0578 67.4772 30.8199 67.5544 31.5752C67.7108 32.299 67.9582 33.0002 68.2896 33.6623C68.7644 34.538 69.0485 35.504 69.1245 36.4971C69.0503 37.4905 68.7656 38.4568 68.2896 39.3318C67.9582 39.9939 67.7108 40.6951 67.5544 41.419C67.4772 42.1742 67.4959 42.9363 67.6105 43.6868C67.7893 44.647 67.7638 45.6341 67.5358 46.5839C67.1595 47.5006 66.5925 48.3268 65.8723 49.0074C65.3464 49.5333 64.8916 50.1261 64.5203 50.7706C64.2194 51.4609 64.0094 52.1877 63.8973 52.9325C63.7677 53.9049 63.4344 54.839 62.9191 55.6738C62.2813 56.4224 61.494 57.0293 60.6077 57.4557C59.9333 57.7882 59.305 58.2071 58.7386 58.7017C58.245 59.2689 57.8262 59.897 57.4926 60.5708C57.1374 61.4971 56.5221 62.3009 55.7207 62.886C54.9193 63.4704 53.9661 63.8112 52.9756 63.8666C52.2315 63.9819 51.5051 64.1912 50.8137 64.4896C50.1685 64.8653 49.5739 65.3214 49.0443 65.8478C48.3604 66.5643 47.5352 67.1306 46.6208 67.5113C45.6727 67.7362 44.6883 67.7612 43.7299 67.5861C42.9773 67.4714 42.2132 67.4528 41.4559 67.53C40.7325 67.6808 40.0326 67.9281 39.375 68.2652C38.488 68.7543 37.5065 69.0477 36.4966 69.125ZM30.8208 67.1126C31.0941 67.1113 31.367 67.1325 31.637 67.1749C32.3973 67.33 33.133 67.588 33.8238 67.9412C34.6193 68.4614 35.5492 68.7381 36.4997 68.7381C37.4501 68.7381 38.3801 68.4614 39.1756 67.9412C39.866 67.5867 40.6018 67.3288 41.3624 67.1749C42.1504 67.0889 42.9463 67.1057 43.7299 67.2247C44.6355 67.3979 45.5673 67.3792 46.465 67.1687C47.3251 66.8023 48.1011 66.2634 48.7453 65.5862C49.3035 65.0348 49.932 64.5594 50.6144 64.1719C51.3335 63.8485 52.0917 63.6205 52.8697 63.4928C53.7879 63.3744 54.6709 63.0648 55.4615 62.5832C56.1632 61.975 56.7317 61.2283 57.1312 60.3901C57.7863 58.9375 58.9495 57.7744 60.4021 57.1192C61.2403 56.7196 61.987 56.1512 62.5952 55.4495C63.0768 54.6589 63.3864 53.7759 63.5048 52.8577C63.6331 52.0779 63.8618 51.3178 64.1839 50.5962C64.5745 49.9144 65.0524 49.2861 65.6044 48.7271C66.2797 48.0823 66.8162 47.3063 67.1806 46.4468C67.39 45.5491 67.4112 44.6179 67.2429 43.7117C67.1189 42.9265 67.0996 42.1282 67.1869 41.338C67.3476 40.5812 67.6049 39.8483 67.9532 39.1574C68.4005 38.3286 68.6715 37.4166 68.7507 36.4784C68.6734 35.5418 68.4018 34.6315 67.9532 33.8056C67.6049 33.1125 67.3476 32.3775 67.1869 31.6188C67.0996 30.8285 67.1189 30.0302 67.2429 29.245C67.4112 28.3409 67.39 27.4117 67.1806 26.5162C66.8187 25.6535 66.2816 24.8751 65.6044 24.2297C65.0493 23.6731 64.5714 23.0445 64.1839 22.3606C63.8574 21.646 63.625 20.8921 63.4923 20.1177C63.3752 19.1994 63.0649 18.3162 62.5827 17.5259C61.9729 16.8243 61.2267 16.2541 60.3896 15.85C59.6892 15.4938 59.0396 15.0454 58.4583 14.5167C57.9296 13.9339 57.4793 13.2847 57.1188 12.5853C56.716 11.7545 56.1453 11.0163 55.4428 10.4172C54.6525 9.94324 53.7718 9.63977 52.8573 9.52625C52.0785 9.40146 51.32 9.17312 50.6019 8.84715C49.9181 8.46194 49.2894 7.98626 48.7328 7.43288C48.0901 6.75516 47.3136 6.21839 46.4525 5.85662C45.5553 5.64425 44.6234 5.62302 43.7175 5.79431C42.9319 5.91551 42.134 5.93436 41.3437 5.85038C40.587 5.68963 39.8541 5.43207 39.1631 5.08406C38.3675 4.56403 37.4377 4.28709 36.4872 4.28709C35.5368 4.28709 34.6069 4.56403 33.8113 5.08406C33.1182 5.43213 32.3833 5.68968 31.6245 5.85038C30.8421 5.93 30.0527 5.90907 29.2757 5.78809C28.3718 5.61674 27.442 5.63797 26.5469 5.85038C25.6849 6.21055 24.9081 6.74756 24.2666 7.42665C23.71 7.98003 23.0813 8.45571 22.3975 8.84092C21.6797 9.16901 20.9212 9.39947 20.1421 9.52625C19.2236 9.64656 18.3405 9.95857 17.5504 10.4421C16.8465 11.0522 16.276 11.8009 15.8744 12.6414C15.5182 13.3419 15.0698 13.9914 14.5411 14.5728C13.9598 15.1015 13.3102 15.5499 12.6098 15.906C11.7727 16.3101 11.0265 16.8804 10.4167 17.582C9.94164 18.3553 9.632 19.2187 9.50708 20.1177C9.37942 20.8957 9.15115 21.6539 8.82798 22.3731C8.4404 23.057 7.96266 23.6856 7.40748 24.2421C6.73019 24.8876 6.19352 25.666 5.83122 26.5286C5.62192 27.4242 5.60072 28.3534 5.76894 29.2575C5.88998 30.043 5.90881 30.8409 5.82498 31.6312C5.66428 32.3899 5.40674 33.1249 5.05867 33.8181C4.61027 34.644 4.33867 35.5542 4.26118 36.4908C4.34014 37.4291 4.61163 38.3411 5.05867 39.1698C5.40668 39.8608 5.66423 40.5937 5.82498 41.3504C5.90896 42.1408 5.89013 42.9387 5.76894 43.7242C5.60076 44.6304 5.62195 45.5616 5.83122 46.4593C6.19136 47.3321 6.72801 48.1212 7.40748 48.7769C7.95973 49.336 8.43722 49.9642 8.82798 50.646C9.15027 51.3676 9.37855 52.1277 9.50708 52.9076C9.62527 53.8257 9.93516 54.7088 10.4167 55.4994C11.0249 56.201 11.7715 56.7695 12.6098 57.1691C14.0602 57.822 15.2215 58.9833 15.8744 60.4337C16.2766 61.2738 16.847 62.0224 17.5504 62.633C18.341 63.1146 19.2241 63.4243 20.1421 63.5426C20.9202 63.6704 21.6783 63.8984 22.3975 64.2217C23.08 64.6093 23.7083 65.0846 24.2666 65.636C24.9096 66.3151 25.6859 66.8534 26.5469 67.2185C27.4425 67.4285 28.3723 67.4478 29.2757 67.2746C29.7875 67.193 30.3033 67.1387 30.8208 67.1126Z" fill="white"/>
<path d="M14.311 41.0262L13.4699 41.7239L14.311 42.7395V44.2223H12.5292V37.5684H14.311V41.0262Z" fill="white"/>
<path d="M18.5599 35.1758V39.8921L16.7718 39.5557V35.1758H18.5599Z" fill="white"/>
<path d="M16.9151 42.1787L18.5599 42.4902V44.2222H16.7718V42.2971L16.9151 42.1787Z" fill="white"/>
<path d="M22.9583 31.4004V36.2849L21.1764 36.7273V31.4004H22.9583Z" fill="white"/>
<path d="M22.4598 43.369L22.9583 42.5653V44.2225H21.1764V41.3691L22.1795 40.6401L22.4598 43.369Z" fill="white"/>
<path d="M27.4881 27.002V35.1761L25.7062 35.6122V27.002H27.4881Z" fill="white"/>
<path d="M25.7062 38.1355L27.4881 35.2571V44.2224H25.7062V38.1355Z" fill="white"/>
<path d="M27.544 35.1636L27.4879 35.257V35.176L27.544 35.1636Z" fill="#76C043"/>
<path d="M26.3604 36.0232L19.8809 37.6119L21.7874 38.453L18.9277 40.5277L16.3671 40.0417L14.2488 41.7986L15.1771 42.9076L16.7658 41.5868L19.2704 42.0665L22.6347 39.6243L22.8465 41.699L26.3604 36.0232Z" fill="url(#paint2_linear_154_4189)"/>
<path d="M29.9487 43.4623C29.6836 43.4678 29.4202 43.4168 29.1762 43.3127C28.9631 43.224 28.7718 43.0901 28.6155 42.9202C28.4653 42.7554 28.3489 42.5628 28.2728 42.3533C28.1978 42.1412 28.16 41.9178 28.1607 41.6929V41.5932C28.1623 41.3807 28.2003 41.17 28.2728 40.9702C28.3446 40.7651 28.4568 40.5765 28.603 40.4157C28.751 40.2459 28.9337 40.1099 29.1389 40.0169C29.3713 39.9187 29.6217 39.8699 29.874 39.8736C30.1485 39.8684 30.4207 39.9237 30.6714 40.0356C30.8941 40.14 31.0853 40.3012 31.2259 40.5029C31.3707 40.7062 31.457 40.9455 31.4752 41.1944H30.8085C30.7898 41.0555 30.7338 40.9242 30.6465 40.8144C30.5577 40.708 30.4444 40.6246 30.3163 40.5714C30.1757 40.5153 30.0254 40.4878 29.874 40.4904C29.7267 40.4877 29.5803 40.5153 29.4441 40.5714C29.3161 40.6246 29.2027 40.708 29.1139 40.8144C29.0179 40.9194 28.9475 41.0452 28.9083 41.182C28.8568 41.3366 28.8316 41.4987 28.8335 41.6617C28.8305 41.8354 28.8579 42.0083 28.9145 42.1726C28.9603 42.3143 29.0369 42.4441 29.1389 42.5526C29.2351 42.6576 29.3546 42.7387 29.4877 42.7894C29.6349 42.8453 29.7914 42.8728 29.9487 42.8704C30.1656 42.8804 30.3811 42.8308 30.5718 42.7271C30.7293 42.6433 30.8592 42.5156 30.9456 42.3595L30.8272 42.8953V42.0168H31.4502V42.7707C31.2985 43.0011 31.0817 43.1811 30.8272 43.2878C30.5521 43.414 30.2512 43.4737 29.9487 43.4623ZM29.8428 42.1352V41.6368H31.7119V42.1352H29.8428Z" fill="white"/>
<path d="M33.0143 43.3749V39.9358H33.6809V43.3749H33.0143ZM33.4815 42.2348V41.6928H34.3538C34.4645 41.6965 34.5741 41.6707 34.6715 41.618C34.7592 41.5689 34.8306 41.4953 34.8771 41.4062C34.9277 41.3125 34.9534 41.2074 34.9519 41.1009C34.9537 40.9904 34.9279 40.8812 34.8771 40.7831C34.8286 40.6972 34.7575 40.6261 34.6715 40.5775C34.5741 40.5248 34.4645 40.4991 34.3538 40.5028H33.4815V39.9358H34.2603C34.5025 39.9289 34.7437 39.9691 34.9706 40.0542C35.1629 40.1246 35.3269 40.2559 35.4378 40.428C35.5548 40.614 35.6114 40.8316 35.5998 41.0511V41.1258C35.6086 41.3449 35.5523 41.5617 35.4378 41.7488C35.3219 41.915 35.1593 42.0429 34.9706 42.1164C34.7441 42.2036 34.5029 42.246 34.2603 42.241L33.4815 42.2348ZM35.1014 43.3749L34.0547 41.8859H34.7961L35.8802 43.3749H35.1014Z" fill="white"/>
<path d="M38.6776 43.4619C38.403 43.4672 38.1308 43.4118 37.8801 43.2999C37.6634 43.1974 37.4703 43.051 37.3131 42.8701C37.1714 42.699 37.0597 42.5052 36.9829 42.2969C36.9103 42.1079 36.8724 41.9074 36.8708 41.705V41.6053C36.8711 41.3926 36.909 41.1817 36.9829 40.9823C37.0591 40.7728 37.1754 40.5801 37.3256 40.4153C37.4813 40.2417 37.6725 40.1036 37.8863 40.0104C38.3949 39.811 38.9602 39.811 39.4688 40.0104C39.6826 40.1036 39.8738 40.2417 40.0295 40.4153C40.1797 40.5801 40.296 40.7728 40.3722 40.9823C40.4461 41.1817 40.484 41.3926 40.4843 41.6053V41.705C40.4827 41.9074 40.4448 42.1079 40.3722 42.2969C40.2954 42.5052 40.1837 42.699 40.042 42.8701C39.8848 43.051 39.6917 43.1974 39.475 43.2999C39.2243 43.4118 38.9521 43.4672 38.6776 43.4619ZM38.6776 42.8389C38.8402 42.8417 39.0016 42.8099 39.151 42.7455C39.2866 42.6843 39.4076 42.5951 39.5062 42.4838C39.6055 42.3733 39.6818 42.2441 39.7305 42.1037C39.7811 41.9596 39.8063 41.8079 39.8052 41.6552C39.8072 41.4942 39.7819 41.3341 39.7305 41.1817C39.6831 41.0425 39.6067 40.9151 39.5062 40.8078C39.4042 40.7007 39.2812 40.6159 39.1448 40.5586C38.9961 40.4998 38.8375 40.4702 38.6776 40.4714C38.5156 40.4703 38.355 40.4999 38.204 40.5586C38.0704 40.6175 37.9497 40.7022 37.8489 40.8078C37.7484 40.9151 37.672 41.0425 37.6246 41.1817C37.5732 41.3341 37.5479 41.4942 37.5499 41.6552C37.5488 41.8079 37.5741 41.9596 37.6246 42.1037C37.6734 42.2441 37.7496 42.3733 37.8489 42.4838C37.9475 42.5951 38.0685 42.6843 38.204 42.7455C38.3532 42.8114 38.5145 42.8454 38.6776 42.8451V42.8389Z" fill="white"/>
<path d="M42.3595 43.375L41.4873 39.9546H42.1788L42.8829 42.9264L42.7022 42.8205H43.1694L42.9638 42.9264L43.5183 40.0917H44.0915L43.4 43.375H42.3595ZM44.403 43.375L43.6492 40.0917H44.2286L44.8516 42.9264L44.6522 42.8205H45.1071L44.9326 42.9264L45.5556 39.9546H46.1787L45.4746 43.375H44.403Z" fill="white"/>
<path d="M47.2751 40.5402V39.9546H49.9167V40.5402H47.2751ZM48.2657 43.375V40.4468H48.9261V43.375H48.2657Z" fill="white"/>
<path d="M50.9139 40.5402V39.9546H53.5742V40.5402H50.9139ZM51.8983 43.375V40.4468H52.5649V43.375H51.8983Z" fill="white"/>
<path d="M54.8199 43.375V39.9546H55.4803V43.375H54.8199ZM55.362 41.9545V41.3689H57.1812V41.9545H55.362ZM57.0566 43.375V39.9546H57.7232V43.375H57.0566Z" fill="white"/>
<path d="M32.5719 38.1851C31.7422 38.2091 30.9172 38.0518 30.1545 37.7241C29.5475 37.4626 29.03 37.0295 28.6656 36.4781C28.3245 35.9334 28.1492 35.3013 28.1609 34.6588H30.4599C30.4583 34.9268 30.5363 35.1892 30.6841 35.4127C30.8553 35.6603 31.0928 35.8547 31.3694 35.9734C31.752 36.1235 32.1612 36.1935 32.5719 36.179C32.9512 36.1905 33.3294 36.1314 33.6872 36.0046C33.954 35.9115 34.1893 35.7452 34.3662 35.5248C34.515 35.3155 34.5956 35.0652 34.5967 34.8083C34.6002 34.648 34.5618 34.4895 34.4853 34.3486C34.4088 34.2077 34.2969 34.0891 34.1607 34.0046C33.7313 33.7648 33.2504 33.6323 32.7589 33.6184L31.9613 33.5498C31.0448 33.5054 30.1687 33.1593 29.4692 32.5654C29.1583 32.2802 28.913 31.9308 28.7506 31.5413C28.5881 31.1519 28.5124 30.7318 28.5284 30.3101C28.51 29.6963 28.679 29.0915 29.0128 28.5761C29.3468 28.0608 29.8298 27.6594 30.3975 27.4255C31.0457 27.1447 31.7474 27.0087 32.4535 27.0267C33.1864 27.0081 33.9143 27.1528 34.5843 27.4504C35.1495 27.7078 35.6261 28.126 35.9549 28.6528C36.28 29.2007 36.4441 29.8291 36.4284 30.4658H34.1171C34.1195 30.2146 34.0549 29.9674 33.9301 29.7494C33.7979 29.5242 33.6031 29.3424 33.3694 29.226C33.0866 29.0807 32.7713 29.01 32.4535 29.0204C32.1512 29.0099 31.8505 29.0696 31.575 29.1949C31.363 29.2929 31.1841 29.4506 31.0602 29.6486C30.9363 29.8466 30.8727 30.0765 30.8773 30.3101C30.876 30.4545 30.9035 30.5977 30.958 30.7314C31.0126 30.865 31.0931 30.9866 31.195 31.0889C31.4817 31.3433 31.8522 31.483 32.2355 31.4814L33.0454 31.5499C33.7474 31.6019 34.4359 31.7704 35.0827 32.0483C35.6327 32.282 36.1102 32.6584 36.4658 33.1386C36.8104 33.6256 36.9855 34.2122 36.9643 34.8083C36.9784 35.4392 36.7931 36.0584 36.4346 36.5777C36.0582 37.1043 35.5395 37.5127 34.9394 37.7553C34.1893 38.0637 33.3825 38.2102 32.5719 38.1851Z" fill="url(#paint3_linear_154_4189)"/>
<path d="M38.5463 37.8734V27.3193H40.8578V37.8734H38.5463ZM40.5712 29.2881V27.3193H45.0819V29.2881H40.5712ZM40.5712 33.4935V31.5248H44.8514V33.4935H40.5712ZM40.5712 37.8547V35.8922H45.1816V37.8547H40.5712Z" fill="url(#paint4_linear_154_4189)"/>
<path d="M52.0975 38.1852C51.2397 38.2038 50.3884 38.0314 49.6054 37.6805C48.9248 37.3606 48.3228 36.8947 47.8423 36.3161C47.394 35.7933 47.0437 35.1939 46.808 34.5467C46.589 33.9477 46.4752 33.3154 46.4716 32.6776V32.3599C46.474 31.6961 46.5942 31.0379 46.8267 30.4161C47.0613 29.7704 47.4212 29.1775 47.8859 28.6716C48.3789 28.1362 48.9798 27.7116 49.649 27.4255C51.2198 26.8028 52.969 26.8028 54.5398 27.4255C55.209 27.7116 55.81 28.1362 56.303 28.6716C57.2205 29.6814 57.7311 30.9955 57.7359 32.3599V32.6776C57.7342 33.3167 57.6159 33.9501 57.387 34.5467C57.152 35.1955 56.7993 35.7954 56.3466 36.3161C55.8658 36.8794 55.2657 37.3285 54.5896 37.6307C53.8109 37.9997 52.9592 38.1892 52.0975 38.1852ZM52.0975 35.9672C52.5608 35.9733 53.0204 35.8865 53.4495 35.7118C53.8377 35.5432 54.1875 35.2973 54.4775 34.9891C54.7536 34.6763 54.9654 34.3122 55.1005 33.9175C55.3953 33.0573 55.3953 32.1235 55.1005 31.2634C54.9575 30.8655 54.7349 30.5009 54.4463 30.1918C54.1621 29.8872 53.8157 29.6472 53.4308 29.4878C53.0023 29.3202 52.5452 29.2377 52.0851 29.2448C51.6248 29.2365 51.1676 29.3191 50.7393 29.4878C50.3526 29.6471 50.0042 29.8871 49.7176 30.1918C49.4388 30.5026 49.2268 30.8673 49.0945 31.2634C48.9461 31.6985 48.8724 32.1556 48.8765 32.6153C48.8744 33.0586 48.9481 33.499 49.0945 33.9175C49.2297 34.3122 49.4414 34.6763 49.7176 34.9891C50.005 35.2974 50.3529 35.5434 50.7393 35.7118C51.172 35.8787 51.6343 35.955 52.0975 35.9361V35.9672Z" fill="url(#paint5_linear_154_4189)"/>
</g>
<defs>
<linearGradient id="paint0_linear_154_4189" x1="-3.39928e-05" y1="36.4966" x2="73" y2="36.4966" gradientUnits="userSpaceOnUse">
<stop stop-color="#FFF4A7"/>
<stop offset="0.14" stop-color="#F8DF7C"/>
<stop offset="0.29" stop-color="#DCB85B"/>
<stop offset="0.43" stop-color="#C69941"/>
<stop offset="0.55" stop-color="#B98631"/>
<stop offset="0.63" stop-color="#B47F2B"/>
<stop offset="0.77" stop-color="#E2C062"/>
<stop offset="0.84" stop-color="#F8DF7C"/>
<stop offset="0.87" stop-color="#F4DA78"/>
<stop offset="0.91" stop-color="#EACB6B"/>
<stop offset="0.94" stop-color="#D8B256"/>
<stop offset="0.98" stop-color="#C08F39"/>
<stop offset="1" stop-color="#B47F2B"/>
</linearGradient>
<linearGradient id="paint1_linear_154_4189" x1="2.98421" y1="36.4968" x2="70.0156" y2="36.4968" gradientUnits="userSpaceOnUse">
<stop stop-color="#133042"/>
<stop offset="0.59" stop-color="#1D4058"/>
<stop offset="1" stop-color="#254D69"/>
</linearGradient>
<linearGradient id="paint2_linear_154_4189" x1="14.2488" y1="39.4685" x2="26.3604" y2="39.4685" gradientUnits="userSpaceOnUse">
<stop stop-color="#FFF4A7"/>
<stop offset="0.14" stop-color="#F8DF7C"/>
<stop offset="0.29" stop-color="#DCB85B"/>
<stop offset="0.43" stop-color="#C69941"/>
<stop offset="0.55" stop-color="#B98631"/>
<stop offset="0.63" stop-color="#B47F2B"/>
<stop offset="0.77" stop-color="#E2C062"/>
<stop offset="0.84" stop-color="#F8DF7C"/>
<stop offset="0.87" stop-color="#F4DA78"/>
<stop offset="0.91" stop-color="#EACB6B"/>
<stop offset="0.94" stop-color="#D8B256"/>
<stop offset="0.98" stop-color="#C08F39"/>
<stop offset="1" stop-color="#B47F2B"/>
</linearGradient>
<linearGradient id="paint3_linear_154_4189" x1="28.1609" y1="32.5779" x2="36.9082" y2="32.5779" gradientUnits="userSpaceOnUse">
<stop stop-color="#FFF4A7"/>
<stop offset="0.14" stop-color="#F8DF7C"/>
<stop offset="0.29" stop-color="#DCB85B"/>
<stop offset="0.43" stop-color="#C69941"/>
<stop offset="0.55" stop-color="#B98631"/>
<stop offset="0.63" stop-color="#B47F2B"/>
<stop offset="0.77" stop-color="#E2C062"/>
<stop offset="0.84" stop-color="#F8DF7C"/>
<stop offset="0.87" stop-color="#F4DA78"/>
<stop offset="0.91" stop-color="#EACB6B"/>
<stop offset="0.94" stop-color="#D8B256"/>
<stop offset="0.98" stop-color="#C08F39"/>
<stop offset="1" stop-color="#B47F2B"/>
</linearGradient>
<linearGradient id="paint4_linear_154_4189" x1="38.5463" y1="32.5964" x2="45.1816" y2="32.5964" gradientUnits="userSpaceOnUse">
<stop stop-color="#FFF4A7"/>
<stop offset="0.14" stop-color="#F8DF7C"/>
<stop offset="0.29" stop-color="#DCB85B"/>
<stop offset="0.43" stop-color="#C69941"/>
<stop offset="0.55" stop-color="#B98631"/>
<stop offset="0.63" stop-color="#B47F2B"/>
<stop offset="0.77" stop-color="#E2C062"/>
<stop offset="0.84" stop-color="#F8DF7C"/>
<stop offset="0.87" stop-color="#F4DA78"/>
<stop offset="0.91" stop-color="#EACB6B"/>
<stop offset="0.94" stop-color="#D8B256"/>
<stop offset="0.98" stop-color="#C08F39"/>
<stop offset="1" stop-color="#B47F2B"/>
</linearGradient>
<linearGradient id="paint5_linear_154_4189" x1="46.4716" y1="32.578" x2="57.7359" y2="32.578" gradientUnits="userSpaceOnUse">
<stop stop-color="#FFF4A7"/>
<stop offset="0.14" stop-color="#F8DF7C"/>
<stop offset="0.29" stop-color="#DCB85B"/>
<stop offset="0.43" stop-color="#C69941"/>
<stop offset="0.55" stop-color="#B98631"/>
<stop offset="0.63" stop-color="#B47F2B"/>
<stop offset="0.77" stop-color="#E2C062"/>
<stop offset="0.84" stop-color="#F8DF7C"/>
<stop offset="0.87" stop-color="#F4DA78"/>
<stop offset="0.91" stop-color="#EACB6B"/>
<stop offset="0.94" stop-color="#D8B256"/>
<stop offset="0.98" stop-color="#C08F39"/>
<stop offset="1" stop-color="#B47F2B"/>
</linearGradient>
</defs>
</svg>
