<svg width="210" height="70" viewBox="0 0 210 70" fill="none" xmlns="http://www.w3.org/2000/svg">
<path d="M11.3692 56.5307C11.6242 56.2753 11.7979 55.9493 11.8683 55.5948C11.9387 55.2403 11.9027 54.8728 11.7647 54.5386C11.6267 54.2044 11.393 53.9187 11.0931 53.7179C10.7933 53.517 10.4407 53.4097 10.0801 53.4097C9.71941 53.4097 9.36686 53.517 9.067 53.7179C8.76717 53.9187 8.53347 54.2044 8.39546 54.5386C8.25749 54.8728 8.2214 55.2403 8.29182 55.5948C8.3622 55.9493 8.53592 56.2753 8.79097 56.5307C9.13424 56.8709 9.59743 57.0618 10.0801 57.0618C10.5627 57.0618 11.0259 56.8709 11.3692 56.5307ZM22.1232 37.8766C21.8674 38.1319 21.6929 38.4576 21.6219 38.8125C21.5509 39.1673 21.5865 39.5353 21.7243 39.8698C21.8621 40.2043 22.0958 40.4903 22.3958 40.6916C22.6958 40.8928 23.0487 41.0002 23.4096 41.0002C23.7706 41.0002 24.1234 40.8928 24.4234 40.6916C24.7235 40.4903 24.9572 40.2043 25.0949 39.8698C25.2327 39.5353 25.2683 39.1673 25.1973 38.8125C25.1263 38.4576 24.9518 38.1319 24.6961 37.8766C24.3537 37.5362 23.8907 37.3456 23.4085 37.3466C22.9263 37.3476 22.4642 37.5401 22.1232 37.8819V37.8766ZM7.62149 57.7249C7.26851 57.3756 6.99387 56.9549 6.81589 56.4908C6.63788 56.0268 6.56067 55.5299 6.58933 55.0338C6.61803 54.5373 6.75196 54.0529 6.98218 53.6127C7.2124 53.1724 7.53366 52.7863 7.92449 52.4803V23.9924C7.93197 20.7556 8.86956 17.5895 10.6251 14.873C12.3806 12.1566 14.8797 10.0049 17.8231 8.67544C20.7666 7.34597 24.0299 6.89509 27.2223 7.37679C30.4147 7.85844 33.4011 9.25224 35.824 11.3914C38.2469 13.5305 40.0037 16.3243 40.8841 19.4385C41.7645 22.5526 41.7312 25.8551 40.7882 28.9508C39.8452 32.0465 38.0325 34.8042 35.567 36.8938C33.1015 38.9834 30.0877 40.3164 26.8862 40.7333L26.5407 40.7813C26.2012 41.4358 25.665 41.9668 25.008 42.2991C24.3511 42.6314 23.6065 42.7481 22.8797 42.6329C22.153 42.5176 21.4807 42.1762 20.9581 41.6568C20.4355 41.1375 20.0889 40.4665 19.9675 39.7389C19.8461 39.0112 19.9559 38.2637 20.2815 37.6021C20.607 36.9405 21.1318 36.3982 21.7816 36.052C22.4314 35.7058 23.1733 35.5733 23.9024 35.6731C24.6315 35.7729 25.3108 36.0999 25.8443 36.608L26.3759 36.5441C28.7821 36.2275 31.0464 35.2223 32.8975 33.6488C34.7487 32.0753 36.1083 30.0002 36.8136 27.672C37.5189 25.3438 37.5399 22.8611 36.8742 20.5212C36.2085 18.1813 34.8843 16.0833 33.06 14.4785C31.2358 12.8737 28.9889 11.83 26.5884 11.4725C24.1878 11.115 21.7354 11.4587 19.5246 12.4626C17.3139 13.4664 15.4386 15.0879 14.1233 17.1327C12.8079 19.1775 12.1083 21.5591 12.1081 23.9924V52.3522C12.2683 52.4664 12.4194 52.5928 12.5599 52.7309C12.9022 53.0521 13.1767 53.4395 13.3672 53.8694C13.5577 54.2988 13.6603 54.7628 13.669 55.2329C13.6776 55.703 13.5921 56.1705 13.4175 56.6068C13.2429 57.0432 12.9828 57.4405 12.6525 57.7743C12.3223 58.1085 11.9286 58.3725 11.4947 58.5513C11.0609 58.7301 10.5956 58.8197 10.1266 58.8153C9.6575 58.8106 9.19414 58.7115 8.76386 58.5245C8.33359 58.337 7.94512 58.0652 7.62149 57.7249Z" fill="#80CC28"/>
<path d="M17.7858 46.3353C18.0417 46.0799 18.2161 45.7544 18.2871 45.3994C18.3581 45.0444 18.3225 44.6765 18.1847 44.3419C18.0469 44.0073 17.8132 43.7215 17.5132 43.5202C17.2132 43.319 16.8604 43.2116 16.4994 43.2116C16.1384 43.2116 15.7856 43.319 15.4856 43.5202C15.1855 43.7215 14.9518 44.0073 14.8141 44.3419C14.6763 44.6765 14.6407 45.0444 14.7117 45.3994C14.7827 45.7544 14.9572 46.0799 15.2129 46.3353C15.556 46.6738 16.0181 46.8634 16.4994 46.8634C16.9807 46.8634 17.4428 46.6738 17.7858 46.3353ZM25.4726 30.6283C25.1334 30.9725 24.9431 31.4369 24.9431 31.9208C24.9431 32.4047 25.1334 32.8691 25.4726 33.2133C25.7276 33.469 26.0524 33.6431 26.4061 33.7137C26.7599 33.7843 27.1265 33.7482 27.4597 33.6098C27.7929 33.4714 28.0778 33.2371 28.2781 32.9365C28.4785 32.6359 28.5855 32.2824 28.5855 31.9208C28.5855 31.5592 28.4785 31.2057 28.2781 30.9051C28.0778 30.6044 27.7929 30.3701 27.4597 30.2318C27.1265 30.0934 26.7599 30.0572 26.4061 30.1278C26.0524 30.1984 25.7276 30.3726 25.4726 30.6283ZM14.0009 47.5343C13.6747 47.2079 13.4158 46.8196 13.2392 46.3928C13.0626 45.9656 12.9717 45.5076 12.9717 45.0453C12.9717 44.583 13.0626 44.1255 13.2392 43.6982C13.4158 43.2711 13.6747 42.8831 14.0009 42.5564C14.1172 42.4377 14.2415 42.3274 14.3731 42.2259V23.9927C14.373 22.3176 14.7786 20.6675 15.5551 19.1842C16.3316 17.7009 17.4558 16.429 18.8309 15.4775C20.206 14.5261 21.7911 13.9238 23.4497 13.7222C25.1084 13.5207 26.791 13.726 28.353 14.3205C29.915 14.915 31.3097 15.8809 32.4171 17.1352C33.5245 18.3895 34.3116 19.8947 34.7107 21.5214C35.1097 23.148 35.1088 24.8475 34.708 26.4738C34.3072 28.1 33.5186 29.6044 32.4098 30.8575C31.7459 31.6064 30.9799 32.2577 30.1346 32.7922C29.9748 33.3963 29.6596 33.9477 29.2203 34.3911C28.7588 34.8527 28.1782 35.1762 27.5436 35.3254C26.909 35.4747 26.2454 35.4437 25.6274 35.2359C25.0094 35.0282 24.4613 34.652 24.0446 34.1494C23.6279 33.6469 23.359 33.0379 23.2682 32.3907C23.1775 31.7435 23.2682 31.0838 23.5305 30.4854C23.7927 29.8871 24.2161 29.3739 24.7529 29.0033C25.2898 28.6327 25.9191 28.4193 26.5701 28.3873C27.2212 28.3552 27.8683 28.5055 28.4388 28.8215C28.7349 28.5879 29.0106 28.3293 29.2628 28.0487C30.2921 26.8779 30.8385 25.3582 30.7911 23.7982C30.7437 22.2383 30.1061 20.7548 29.0077 19.6489C28.1514 18.7998 27.0639 18.2234 25.8819 17.9922C24.6998 17.761 23.476 17.8853 22.3642 18.3496C21.2525 18.8138 20.3024 19.5971 19.6334 20.6012C18.9645 21.6053 18.6065 22.7852 18.6045 23.9927V42.2153C18.7357 42.315 18.8601 42.4237 18.9766 42.5404C19.6371 43.2019 20.0085 44.0995 20.009 45.0354C20.0095 45.9717 19.6391 46.8694 18.9792 47.5317C18.3194 48.194 17.4243 48.5663 16.4907 48.5667C15.557 48.5672 14.6615 48.1962 14.0009 47.5343Z" fill="white"/>
<path d="M4.7938 67.313C5.04885 67.0572 5.22257 66.7317 5.293 66.3767C5.36338 66.0222 5.32733 65.6547 5.18932 65.3205C5.05135 64.9863 4.81765 64.7011 4.51778 64.5002C4.21791 64.2994 3.86537 64.192 3.50472 64.192C3.14407 64.192 2.79152 64.2994 2.49167 64.5002C2.19181 64.7011 1.9581 64.9863 1.82011 65.3205C1.68213 65.6547 1.64605 66.0222 1.71645 66.3767C1.78685 66.7317 1.96056 67.0572 2.21562 67.313C2.55891 67.6533 3.02209 67.8437 3.50472 67.8437C3.98735 67.8437 4.45053 67.6533 4.7938 67.313ZM28.1836 43.3715C27.9286 43.6271 27.7549 43.9529 27.6845 44.3077C27.6141 44.6622 27.6501 45.0297 27.7882 45.3639C27.9261 45.6981 28.1598 45.9833 28.4597 46.1842C28.7596 46.3855 29.1121 46.4924 29.4727 46.4924C29.8334 46.4924 30.186 46.3855 30.4858 46.1842C30.7856 45.9833 31.0193 45.6981 31.1574 45.3639C31.2953 45.0297 31.3314 44.6622 31.261 44.3077C31.1906 43.9529 31.0169 43.6271 30.7618 43.3715C30.4195 43.0378 29.9608 42.8511 29.4834 42.8511C29.0059 42.8511 28.5473 43.0378 28.2049 43.3715H28.1836ZM1.02486 68.5121C0.368489 67.8511 0 66.9559 0 66.0231C0 65.0902 0.368489 64.1955 1.02486 63.5341C1.14483 63.4155 1.27271 63.3051 1.40761 63.2038V23.9923C1.42098 19.7288 2.59838 15.5503 4.81215 11.9101C7.02587 8.26984 10.1914 5.30675 13.9656 3.34225C17.7396 1.37774 21.9782 0.486774 26.2214 0.765981C30.4647 1.04519 34.5507 2.48391 38.0364 4.92611C41.522 7.3683 44.2741 10.7208 45.9945 14.6199C47.7145 18.519 48.3376 22.8159 47.7949 27.0446C47.2522 31.2733 45.5653 35.2724 42.917 38.6081C40.2686 41.9438 36.7599 44.4886 32.7713 45.9673C32.5945 46.4054 32.3325 46.804 32.0005 47.1395C31.5236 47.6183 30.9192 47.949 30.2596 48.0923C29.6 48.2351 28.9133 48.1845 28.2817 47.9464C27.6502 47.7079 27.1006 47.2919 26.6988 46.7482C26.2971 46.2045 26.0602 45.5565 26.0166 44.8812C25.973 44.2059 26.1246 43.5326 26.4531 42.9416C26.7817 42.3506 27.2732 41.8671 27.8689 41.5491C28.4645 41.2311 29.139 41.0921 29.8114 41.1488C30.4839 41.2054 31.1258 41.4553 31.6602 41.8685C34.9108 40.6075 37.7562 38.4805 39.8894 35.7168C42.0225 32.9532 43.3624 29.6579 43.7645 26.1867C44.1663 22.7155 43.615 19.2001 42.1703 16.0199C40.7255 12.8398 38.4418 10.1156 35.5659 8.14149C32.6899 6.16738 29.3308 5.01821 25.8511 4.81804C22.3714 4.61787 18.9032 5.37432 15.8209 7.00568C12.7387 8.63708 10.1593 11.0815 8.36112 14.0751C6.56298 17.0687 5.61443 20.4978 5.61779 23.9923V63.1982C5.74746 63.296 5.87 63.4029 5.98455 63.518C6.64299 64.1777 7.01315 65.0721 7.01362 66.0053C7.01414 66.9382 6.64492 67.8333 5.98722 68.4935C5.32952 69.1536 4.43722 69.5246 3.5066 69.5254C2.57597 69.5259 1.68327 69.1558 1.02486 68.4961" fill="#489FED"/>
<path d="M58.7075 45.5777V24.0561H67.8136C68.7602 24.0499 69.6951 24.2633 70.5459 24.6797C71.3631 25.0838 72.0957 25.641 72.7041 26.3213C73.31 26.9981 73.7908 27.7777 74.1233 28.6238C74.4658 29.4429 74.6463 30.3207 74.6553 31.2088C74.6484 33.0246 73.9919 34.7777 72.8051 36.1495C72.2091 36.8187 71.4864 37.3622 70.6787 37.7484C69.8318 38.1651 68.9007 38.3821 67.9571 38.3826H62.9071V45.5777H58.7075ZM62.9071 34.6945H67.7496C68.1191 34.698 68.4839 34.6156 68.816 34.4537C69.1482 34.2919 69.4382 34.055 69.6633 33.7617C70.2146 33.0293 70.4896 32.1249 70.4398 31.2088C70.4453 30.7095 70.3628 30.2132 70.1953 29.7431C70.0513 29.3366 69.8331 28.9607 69.552 28.6345C69.3041 28.3403 68.9909 28.1084 68.6377 27.9576C68.3026 27.808 67.9408 27.7282 67.5743 27.7231H62.9071V34.6945Z" fill="white"/>
<path d="M77.5361 45.5781V24.0562H87.0302C87.9768 24.0493 88.9122 24.2628 89.7625 24.6798C90.584 25.0796 91.3192 25.6374 91.9263 26.3213C92.5287 26.9997 93.0074 27.7791 93.3404 28.6238C93.6824 29.4429 93.8629 30.3208 93.8719 31.2087C93.8809 32.5538 93.5122 33.8744 92.8084 35.0196C92.1583 36.1249 91.1675 36.9889 89.9859 37.482L94.8816 45.5781H90.1986L85.8237 38.3827H81.7143V45.5781H77.5361ZM81.7143 34.6944H86.94C87.3112 34.6969 87.6769 34.6053 88.003 34.428C88.3394 34.243 88.6342 33.9909 88.8696 33.6871C89.1214 33.3503 89.3152 32.9739 89.4437 32.5732C89.5868 32.1327 89.6585 31.672 89.6564 31.2087C89.6598 30.7357 89.5769 30.2661 89.4119 29.823C89.2593 29.4167 89.0381 29.0399 88.7579 28.7091C88.4962 28.4051 88.1761 28.1568 87.8169 27.9789C87.4869 27.8128 87.123 27.7253 86.7539 27.7231H81.704L81.7143 34.6944Z" fill="white"/>
<path d="M97.6411 45.5777V24.0561H106.742C107.69 24.05 108.627 24.2634 109.479 24.6797C110.296 25.0852 111.028 25.6423 111.638 26.3213C112.24 27.0007 112.721 27.7798 113.057 28.6238C113.399 29.4428 113.58 30.3207 113.589 31.2088C113.592 32.1193 113.428 33.0226 113.105 33.8736C112.791 34.7108 112.33 35.485 111.744 36.1601C111.148 36.8293 110.425 37.3729 109.618 37.7591C108.766 38.1646 107.833 38.3706 106.891 38.3613H101.819V45.5777H97.6411ZM101.814 34.6944H106.651C107.021 34.6971 107.387 34.6144 107.72 34.4527C108.053 34.2909 108.343 34.0545 108.571 33.7617C109.122 33.0293 109.397 32.1249 109.347 31.2088C109.353 30.7095 109.27 30.2132 109.102 29.7431C108.956 29.3376 108.738 28.962 108.459 28.6344C108.21 28.339 107.895 28.107 107.54 27.9576C107.205 27.8067 106.843 27.7268 106.476 27.7231H101.825L101.814 34.6944Z" fill="white"/>
<path d="M131.131 24.1147H134.974L137.388 31.2406L139.807 24.1147H143.708L140.041 33.9055L142.767 40.7916L148.843 24.056H153.373L144.612 45.5777H141.109L137.388 36.5171L133.667 45.5777H130.169L121.488 24.056H125.959L132.061 40.7916L134.719 33.9055L131.131 24.1147Z" fill="white"/>
<path d="M170.458 41.9108V45.5777H155.574V24.056H170.182V27.7229H159.726V32.9088H168.763V36.3039H159.726V41.9108H170.458Z" fill="white"/>
<path d="M191.02 40.0244C191.04 40.8279 190.863 41.6241 190.507 42.3438C190.15 43.0636 189.623 43.6853 188.973 44.1548C188.305 44.6353 187.558 44.9959 186.767 45.221C185.903 45.469 185.008 45.5928 184.109 45.5885H173.743V24.0563H185.225C185.933 24.0479 186.63 24.2165 187.256 24.5467C187.848 24.8581 188.37 25.2859 188.792 25.8045C189.229 26.3217 189.564 26.9165 189.781 27.558C190.011 28.1955 190.13 28.868 190.132 29.546C190.132 30.5926 189.851 31.6199 189.319 32.52C188.796 33.4357 187.987 34.1532 187.017 34.5613C188.178 34.8775 189.204 35.5641 189.941 36.5174C190.681 37.5326 191.061 38.7673 191.02 40.0244ZM186.815 39.2356C186.814 38.8604 186.746 38.4885 186.613 38.1376C186.495 37.7999 186.314 37.4872 186.081 37.2156C185.866 36.9561 185.597 36.7454 185.294 36.5973C184.987 36.4393 184.646 36.3589 184.301 36.3628H177.89V42.0337H184.109C184.474 42.0355 184.835 41.9649 185.172 41.8259C185.498 41.6843 185.793 41.4796 186.039 41.2236C186.283 40.9666 186.477 40.6667 186.613 40.3389C186.748 39.9871 186.815 39.6126 186.81 39.2356H186.815ZM177.89 27.6326V33.053H183.45C183.783 33.0599 184.114 32.9988 184.423 32.8732C184.732 32.7477 185.012 32.5604 185.247 32.3228C185.5 32.0586 185.697 31.7447 185.824 31.4008C185.951 31.0569 186.006 30.6903 185.986 30.3241C186.027 29.6052 185.784 28.8989 185.31 28.3575C185.1 28.1205 184.841 27.932 184.551 27.805C184.261 27.678 183.947 27.6156 183.631 27.6219L177.89 27.6326Z" fill="white"/>
<path d="M207.063 29.6902C206.822 29.4766 206.562 29.2857 206.287 29.1199C205.854 28.8458 205.398 28.6087 204.926 28.411C204.364 28.1651 203.782 27.9655 203.188 27.8141C202.565 27.6499 201.923 27.5675 201.279 27.5689C200.377 27.5046 199.477 27.7305 198.712 28.2138C198.436 28.4193 198.215 28.6897 198.068 29.0011C197.922 29.3126 197.855 29.6554 197.872 29.9993C197.856 30.3921 197.964 30.7799 198.18 31.1079C198.428 31.4273 198.741 31.6891 199.1 31.8754C199.586 32.1315 200.097 32.3369 200.625 32.4883C201.247 32.6642 201.96 32.8614 202.751 33.0639C203.815 33.3446 204.768 33.6484 205.611 33.9753C206.397 34.2541 207.13 34.663 207.78 35.1852C208.368 35.6541 208.842 36.2499 209.168 36.928C209.514 37.7145 209.679 38.5687 209.652 39.4277C209.68 40.451 209.455 41.4653 208.998 42.3804C208.584 43.1787 207.98 43.8618 207.238 44.3683C206.468 44.8912 205.608 45.2669 204.703 45.4769C203.72 45.7106 202.714 45.8266 201.704 45.8236C200.082 45.8244 198.469 45.5799 196.92 45.0985C195.401 44.6466 193.964 43.95 192.667 43.036L194.517 39.4277C194.816 39.6972 195.142 39.9348 195.49 40.1366C196.027 40.4716 196.587 40.7689 197.164 41.0267C197.851 41.331 198.563 41.5753 199.291 41.7568C200.083 41.9601 200.897 42.0621 201.715 42.0607C204.011 42.0607 205.16 41.3234 205.16 39.8488C205.174 39.4207 205.032 39.0022 204.761 38.6709C204.453 38.309 204.07 38.0181 203.639 37.8182C203.079 37.5408 202.493 37.3177 201.89 37.1519L199.599 36.4857C198.693 36.2404 197.805 35.9323 196.941 35.5636C196.253 35.2721 195.615 34.8747 195.049 34.3857C194.557 33.9445 194.17 33.3981 193.917 32.7868C193.652 32.1081 193.523 31.3835 193.539 30.6549C193.521 29.6521 193.727 28.658 194.14 27.7448C194.528 26.9134 195.103 26.1837 195.82 25.6129C196.563 25.0322 197.409 24.5965 198.313 24.3284C199.303 24.0243 200.334 23.8734 201.37 23.8807C202.794 23.8659 204.209 24.1077 205.548 24.5949C206.719 25.0207 207.834 25.5862 208.87 26.2791L207.063 29.6902Z" fill="white"/>
</svg>
