<svg width="15" height="9" viewBox="0 0 15 9" fill="none" xmlns="http://www.w3.org/2000/svg">
<path fill-rule="evenodd" clip-rule="evenodd" d="M13.1379 0.34908L7.5 6.87169L1.86208 0.34908C1.78804 0.263424 1.69285 0.189854 1.58195 0.13257C1.47105 0.0752869 1.3466 0.0354128 1.21572 0.0152225C1.08484 -0.00496674 0.950082 -0.00507355 0.819146 0.014904C0.688209 0.0348825 0.563656 0.0745554 0.452599 0.13166C0.341541 0.188764 0.246154 0.26218 0.171884 0.347716C0.0976135 0.433253 0.0459142 0.529235 0.0197378 0.630181C-0.00643872 0.731129 -0.00657994 0.835063 0.0193227 0.936051C0.0452253 1.03704 0.0966644 1.13311 0.170703 1.21876L6.56185 8.6128C6.66482 8.73191 6.80433 8.82957 6.96799 8.89711C7.13164 8.96466 7.31439 9 7.5 9C7.68562 9 7.86836 8.96466 8.03201 8.89711C8.19567 8.82957 8.33518 8.73191 8.43815 8.6128L14.8293 1.21876C14.9033 1.13311 14.9548 1.03704 14.9807 0.936051C15.0066 0.835063 15.0064 0.731129 14.9803 0.630181C14.9541 0.529235 14.9024 0.433253 14.8281 0.347716C14.7538 0.26218 14.6585 0.188764 14.5474 0.13166C14.4363 0.0745554 14.3118 0.0348825 14.1809 0.014904C14.0499 -0.00507355 13.9152 -0.00496674 13.7843 0.0152225C13.6534 0.0354118 13.529 0.0752869 13.418 0.13257C13.3071 0.189854 13.212 0.263424 13.1379 0.34908Z" fill="#0046B5"/>
</svg>
