<svg width="1200" height="320" viewBox="0 0 1200 320" fill="none" xmlns="http://www.w3.org/2000/svg">
<rect width="1200" height="320" rx="10" fill="#0046B5"/>
<mask id="mask0_154_4412" style="mask-type:alpha" maskUnits="userSpaceOnUse" x="0" y="0" width="1200" height="320">
<rect width="1200" height="320" rx="10" fill="#0046B5"/>
</mask>
<g mask="url(#mask0_154_4412)">
<path d="M61 -9C58.8404 14.3922 43.8169 72.5413 1 118" stroke="#0057BC" stroke-width="3"/>
<path d="M-2 162C-2 162 109.696 123.471 148 -8" stroke="#0057BC" stroke-width="3"/>
<path d="M0 51C23.4558 48.7302 80.894 33.3525 123 -10" stroke="#0057BC" stroke-width="3"/>
<path d="M1158.99 -8.72217C1158.99 56.294 1106.28 109 1041.27 109C976.25 109 923.544 56.294 923.544 -8.72217" stroke="#0057BC" stroke-width="3"/>
<path d="M1125.58 -10C1125.58 36.5623 1087.83 74.3084 1041.27 74.3084C994.704 74.3084 956.958 36.5623 956.958 -10" stroke="#0057BC" stroke-width="3"/>
<path d="M977 330C1008.9 309.619 1098.15 272.879 1200 288.963" stroke="#0057BC" stroke-width="3"/>
<path d="M1200 239C1169.91 242.482 1099.18 265.558 1057 330" stroke="#0057BC" stroke-width="3"/>
<path fill-rule="evenodd" clip-rule="evenodd" d="M97.8044 438.891C150.932 438.891 194 395.823 194 342.696C194 289.568 150.932 246.5 97.8044 246.5C44.677 246.5 1.60876 289.568 1.60876 342.696C1.60876 395.823 44.677 438.891 97.8044 438.891ZM97.8043 410.584C135.298 410.584 165.693 380.189 165.693 342.696C165.693 305.202 135.298 274.807 97.8043 274.807C60.3104 274.807 29.9156 305.202 29.9156 342.696C29.9156 380.189 60.3104 410.584 97.8043 410.584Z" fill="#0057BC"/>
<path fill-rule="evenodd" clip-rule="evenodd" d="M1041.11 60.5461C1080.07 60.5461 1111.66 28.9615 1111.66 -9.99992C1111.66 -48.9614 1080.07 -80.5459 1041.11 -80.5459C1002.15 -80.5459 970.567 -48.9614 970.567 -9.99992C970.567 28.9615 1002.15 60.5461 1041.11 60.5461ZM1041.11 39.7869C1068.61 39.7869 1090.9 17.4966 1090.9 -9.99994C1090.9 -37.4964 1068.61 -59.7868 1041.11 -59.7868C1013.62 -59.7868 991.327 -37.4964 991.327 -9.99994C991.327 17.4966 1013.62 39.7869 1041.11 39.7869Z" fill="#0057BC"/>
</g>
</svg>
